<?xml version="1.0" encoding="UTF-8" standalone="no"?>
<svg id="svg4489" xmlns:rdf="http://www.w3.org/1999/02/22-rdf-syntax-ns#" xmlns="http://www.w3.org/2000/svg" height="1871" viewBox="0 0 1641 1871" width="1641" version="1.1" xmlns:cc="http://creativecommons.org/ns#" xmlns:dc="http://purl.org/dc/elements/1.1/">
<path id="path4499" d="m1018.6 1870.2c-0.3186-0.3186-0.5793-2.1319-0.5793-4.0295s-1.1728-10.26-2.6063-18.583c-3.6343-21.102-2.3682-32.21 3.8105-33.427 1.3422-0.2645 8.6485 23.808 11.397 37.55 1.0725 5.3624 7.9432-0.9189 17.213-15.736l4.6795-7.4801 1.6689 12.98c0.9179 7.1391 1.7068 13.698 1.7531 14.574 0.066 1.2445-1.6574 1.8405-7.854 2.7168-8.8891 1.2571-17.877 4.5728-24.485 9.0328-2.4298 1.6398-4.6785 2.7208-4.9971 2.4022zm-52.562-28.903-11.141-14.824 2.173-1.7595c3.1901-2.5832 2.9774-2.7671 12.061 10.427 13.257 19.255 12.203 17.221 9.9692 19.242-1.8615 1.6847-2.2663 1.2792-13.062-13.085zm-47.478-0.5931c-3.3916-15.284-3.4713-18.75-0.43116-18.75 2.2423 0 7.8924 14.492 7.8924 20.243 0 2.0864-6.9767 0.6904-7.4612-1.493zm-241.06-66.3c-2.75-0.1994-11.975-0.8471-20.5-1.4395-110.25-7.6608-190.86-37.856-229.46-85.953l-2.7926-3.4795-14.093 3.6652-14.093 3.6652-34.731-14.041-34.731-14.041-14.797 3.5664c-55.606 13.402-75.86 9.8419-88.281-15.519-5.8962-12.038-9.6101-16.815-15.49-19.924l-4.5643-2.4128-9.7306 5.0046c-5.3518 2.7526-16.992 8.7598-25.867 13.349l-16.137 8.3448-20.89-9.0994c-25.088-10.928-18.118-10.926-55.132-0.016l-30.818 9.0836-7.4958-7.8336c-14.344-14.99-20.384-21.615-19.353-21.226 0.57055 0.2155 6.7939 3.4605 13.83 7.2112l12.792 6.8195 32.017-9.398 32.017-9.398 10.013 1.886c12.575 2.3687 11.103 9.3438 11.606-55 0.89169-114.18-7.3127-281.02-22.255-452.56-1.667-19.137-14.083-22.165-71.158-17.35-1.535 0.3-6.899-4.7-19.777-18.2l-17.671-18.5 0.59728-5.5c4.1917-38.6 38.735-116.03 101.23-227 64.51-114.55 118.49-190.58 150.49-212 8.4426-5.6494 8.1603-4.487 8.1365-33.5-0.0205-25.018-0.9945-34.204-5.496-51.835-4.115-16.117-1.2964-13.377-36.091-35.076-28.344-17.676-31.181-47.736-7.3475-77.838 11.323-14.301 18.91-16.38 44.137-12.093l3.1128 0.52889 0.56526-17.843c1.05-33.04 8.24-47.35 23.79-47.35 3.8026 0 4.1108-0.19151 3.6199-2.25-10.829-45.417 0.0416-66.699 39.98-78.273 10.876-3.1518 9.9103-0.83782 10.764-25.784 0.86386-25.255-3.6642-18.59 28.318-41.685l26.914-19.435-3.2977-7.1374c-13.54-29.29-15.22-67.626-4.14-94.328 22.9-55.182 108.68-66.681 158.84-21.291l6.2612 5.6661 21.079-0.30072c84.88-1.211 125.59 35.363 125.57 112.82-0.008 30.711-7.4492 52.847-23.477 69.838l-6.3047 6.6833-0.62703 20.989c-0.34487 11.544-0.88933 24.785-1.2099 29.424l-0.58288 8.4345-5.6449 5.9357c-18.62 19.579-52.352 31.028-99.972 33.932l-4.3271 0.2638-3.2188 8.5c-10.754 28.397-33.618 42.702-72.82 45.559l-9.6927 0.70641-13.634-4.7905-13.634-4.7905-11.306 11.274-11.306 11.274 13.953 24.134 13.953 24.134-0.45893 5.5626c-0.91601 11.103-8.4029 21.182-21.351 28.744-31.179 18.21-35.367 98.876-5.8313 112.33 3.836 1.747 14.549 1.8226 261.3 1.8437l257.31 0.04-0.55-14.75c-0.30467-8.1125-0.82909-29.038-1.1654-46.5-0.33628-17.462-0.92942-31.75-1.3181-31.75-0.38867 0-2.8474 0.72942-5.4639 1.6209-2.685 0.91488-5.1221 1.2416-5.5949 0.75-0.47-0.48-9.45-11.89-19.98-25.37l-19.133-24.5 0.58645-7.1909c2.4376-29.889 12.111-37.699 58.014-46.84 10.45-2.0811 19.379-4.1141 19.842-4.5178 2.76-2.41 9.66-58.53 9.66-78.56v-20.213l6.25-4.89c3.4375-2.6895 10.3-8.0088 15.25-11.821l9-6.9306-3.7632 4.9845c-4.1435 5.4882-12.684 18.873-17.59 27.568l-3.1505 5.5837 6.5592 10.345c3.6076 5.6898 7.9029 12.042 9.5452 14.115l2.986 3.7701-3.6402 4.0293c-4.4958 4.9763-8.8153 7.6952-13.649 8.5912-7.0315 1.3034-11.009 19.191-6.4468 28.989 7.596 16.312 29.353 22.457 79.598 22.482l20.45 0.0103 17.238-9.5337 17.238-9.5337 18.38 5.5337c51.508 15.507 78.378-16.016 86.275-101.22 0.3697-3.9875 0.9639-7.2478 1.3206-7.245 1.5256 0.0117 6.3576 4.9807 11.075 11.389 10.72 14.562 29.364 19.869 52.8 15.028 19.279-3.9822 25.883-10.296 40.784-38.993l10.942-21.071 12.024 12.098c31.511 31.704 55.455 42.463 91.84 41.265 70.248-2.3134 108.76-32.011 116.95-90.181l1.2618-8.9613 27.485-12.31c36.079-16.159 41.771-21.93 47.109-47.768 14.586-70.608-51.974-135.56-110.11-107.45l-8.1909 3.961-2.6629-1.9248c-1.4647-1.0587-4.688-4.0369-7.163-6.6182-27.722-28.914-40.029-35.377-65-34.135-35.852 1.7832-67.353 20.548-89.144 53.102-7.2345 10.808-6.8533 10.531-9.1528 6.6384-12.457-21.088-97.553-28.25-132.2-11.127-25.39 12.547-30.867 23.527-43.54 87.287l-4.2537 21.403-9.1034-2.7061c-36.156-10.748-73.054-0.93497-88.51 23.538-9.431 14.933-11.076 24.843-11.086 66.78 0 18.012-0.155 32.75-0.3352 32.75-0.1801 0-4.5676-1.8566-9.75-4.1257-5.1823-2.2691-11.53-4.8846-14.106-5.8121l-4.6841-1.6864 8.5044-6.4202c11.141-8.4105 10.883-8.0169 8.4135-12.858-23.656-46.369 29.682-111.56 93.104-113.8l15.654-0.55259 0.6531-9.1209c4.5778-63.934 44.77-93.368 134.72-98.655l18.355-1.0789 16.251 7.6635 16.251 7.6635 5.5268-4.8571c23.964-21.06 41.078-31.647 62.795-38.846 41.645-13.805 78.749-6.5564 110.74 21.634l7.7824 6.8577 9.2754-3.1076c39.398-13.2 75.246 7.83 99.899 58.605 32.44 66.811 11.255 120.62-53.124 134.94l-7.5709 1.6836-7.4837 27.189-7.4837 27.189-11.445 6.757c-89.736 52.977-123.85 55.408-190.67 13.592l-14.225-8.9016-25.775 22.194c-14.176 12.206-26.45 22.752-27.275 23.435-1.2174 1.0078-6.0211 0.22744-25.5-4.1426-13.2-2.9614-24.479-5.3955-25.064-5.409-0.585-0.0136-2.4834 5.701-4.2187 12.699-10.11 40.772-39.373 70.227-84.218 84.768-11.229 3.6412-10.926 2.6924-5.166 16.17 16.76 39.219 12.043 48.789-39.584 80.304-3.7546 2.292-5.244 3.8213-5.229 5.3691 0.1408 14.53 4.1351 65.973 5.3958 69.494 8.645 24.14 18.196 29.1 51.624 26.813l12.54-0.85819 14.609 21.358c85.443 124.92 224.13 350.95 254.84 415.36 14.482 30.368 15.075 33.081 11.371 52.078l-2.8324 14.527-10.534-0.8024c-13.075-0.996-59.448-0.9151-75.405 0.1314l-11.871 0.7787 0.6513 9.6437c2.4816 36.746 2.9441 68.901 3.1159 216.64 0.1774 152.45 0.6327 182.19 3.5141 229.5 1.6176 26.56 4.1084 55.706 5.5868 65.375l0.5925 3.8748 5.641-0.6394c16.99-1.926 32.508-18.005 45.746-47.398 2.3209-5.1534 4.4124-9.5624 4.6477-9.7977s5.7665 11.5 12.291 26.079c6.525 14.579 12.16 26.507 12.522 26.507 0.3623 0 13.79-9.45 29.839-21s29.598-21 30.109-21c0.5107 0 3.5289 1.1648 6.7071 2.5884s6.7545 2.9735 7.9473 3.4443c1.8237 0.7198 4.9731-1.2036 19.793-12.088 9.6931-7.1194 17.829-12.944 18.079-12.944 0.2505 0 5.57 3.15 11.821 7 13.854 8.5322 12.342 8.5936 18.462-0.75 10.533-16.08 10.606-16.369 11.176-44.098l0.5-24.349 6.0646 6.3486c12.595 13.185 22.056 30.329 33.528 60.757 5.4003 14.323 5.0996 14.045-11.717-10.833-8.1817-12.104-15.101-22.015-15.376-22.025s-7.025 12.792-15 28.449-14.911 28.475-15.413 28.484c-0.502 0.01-6.0609-3.1498-12.353-7.0196l-11.44-7.036-4.147 3.5176c-2.2808 1.9347-9.9732 9.0845-17.094 15.888l-12.948 12.371-9.1911-3.7398-9.1912-3.7398-6.8614 7.0027c-18.142 18.515-34.512 27.639-54.409 30.325l-4.5478 0.6138-11.334-17.061c-6.9608-10.478-11.766-16.8-12.452-16.385-0.615 0.3715-12.517 9.2196-26.45 19.662l-25.332 18.987-9.4283-4.6835-9.4284-4.6835-14.74 8.41-14.74 8.41-12.014-11.912c-14.508-14.384-10.962-15.056-25.512 4.8384-6.7375 9.2125-12.576 17.116-12.975 17.563-0.3988 0.4473-11.208-7.1645-24.02-16.915l-23.294-17.729-2.5923 3.0105c-1.4257 1.6557-6.262 7.2764-10.747 12.49-18.768 21.816-40.675 37.637-61.992 44.769-11.897 3.9802-10.067 4.4595-24.905-6.5208-7.1212-5.2696-13.444-9.7923-14.05-10.05-0.6063-0.2581-18.294 9.1811-39.306 20.976l-38.204 21.445-4.7508-3.1971c-19.032-12.808-57.475-9.0262-80.137 7.8831l-3.5 2.6115-0.5-22.37-0.5-22.37-2.7585-4.1646c-8.5206-12.864-23.971-14.814-79.241-10.004-48.068 4.183-87.135 3.1768-182.5-4.7004-104.04-8.5941-137.37-9.3676-150.68-3.4973-11.64 5.3-21.08 21.1-21.08 35.7v4.1443l7.25 2.1283c72.238 21.206 276.08 38.221 360.75 30.112 26.648-2.5525 48.214-2.9561 56.75-1.0622 7.4095 1.6439 7.2581 1.1612 2.1751 6.9358-2.2412 2.5461-5.467 6.7777-7.1684 9.4034-2.736 4.2224-3.5075 4.7766-6.6751 4.7951-1.9699 0.012-23.157 0.934-47.082 2.05-39.906 1.8614-163.83 3.4785-179.5 2.3424zm294.77-58.447 21.946-10.033 12.642 8.1919c15.414 9.9876 12.672 11.016 78.048-29.275 12.427-7.6587 14.625-8.6952 16-7.5457 0.8768 0.7329 6.3192 5.3812 12.094 10.33 5.775 4.9484 11.072 9.3376 11.772 9.7538 3.1617 1.8815 58.163-40.963 73.051-56.905l7.1433-7.6489 6.2672 3.7659c3.447 2.0713 15.627 9.586 27.067 16.699 11.44 7.1134 20.922 12.768 21.072 12.567 0.1493-0.2016 3.3329-7.3415 7.0747-15.866 3.7418-8.525 7.1065-15.837 7.4772-16.249 0.3706-0.4119 7.7471 4.2411 16.392 10.34l15.718 11.088 11.485-6.6692 11.485-6.6692-0.2519-259.17-0.2519-259.17-12-0.7013c-71.229-4.1629-239.55-11.05-349-14.279-199.06-5.8736-332.61-7.491-619.86-7.5072l-217.95-0.1 0.49508 74.75c0.58337 88.081 1.3392 103.5 11.73 239.25 7.7341 101.05 10.485 147.45 11.634 196.25 0.37219 15.812 0.90329 28.75 1.1802 28.75 2.6834 0 32.934-18.714 46.464-28.743 4.8333-3.583 8.9426-6.3441 9.1318-6.1358 0.18913 0.2084 0.84339 2.7463 1.4539 5.6398 8.6975 41.222 33.362 53.554 85.477 42.738l27.851-5.7799 37.649 14.103 37.649 14.103 14-3.8147 14-3.8147 5 3.5303c10.107 7.1358 23.202 18.194 30.756 25.971l7.7555 7.9848 4.6059-5.1229c17.722-19.712 22.068-37.608 23.363-96.209 1.8126-82.062 6.4363-124.49 17.185-157.69l3.1538-9.7414-9.4628-9.7586c-11.3-11.8-19.87-23.6-19.87-27.5 0-36.871 158.13-242.28 204.38-265.49 13.243-6.6466 18.457-4.199 46.885 22.01 35.134 32.392 127.74 139.33 189.68 219.04 5.1291 6.6 9.7699 12.45 10.313 13 1.742 1.7643-0.0238-21.576-3.8584-51-4.086-31.353-5.1392-61.544-2.599-74.5 1.3265-6.7661 5.7212-21.622 7.0161-23.717 1.0014-1.6202 149.13-10.366 227.26-13.418l31.582-1.2338 28.675 7.3801c15.771 4.0591 29.152 7.675 29.736 8.0354 0.5832 0.3605 2.6449 7.585 4.5816 16.054l3.5212 15.399-0.576 49c-0.5055 43.003-2.0027 94.245-4.1787 143.02l-0.6701 15.02 10.279 19.473c9.8734 18.705 10.27 19.699 10.071 25.22-0.9652 26.749-18.847 43.792-51.645 49.224-16.99 2.8139-228.28 1.8075-240.96-1.1478-38.738-9.0277-47.288-21.531-43.811-64.061 2.9654-36.267 1.9604-87.247-1.72-87.247-8.8309 0-19.074 56.675-22.953 127-3.3689 61.073-6.9936 110.2-8.453 114.56-0.19515 0.5834 1.6192 2.3096 4.0318 3.8359 10.965 6.9372 16.167 15.944 26.046 45.103 2.4225 7.15 4.6052 13.562 4.8505 14.25 0.65611 1.8391 0.069 2.056 23.778-8.7834zm-718.77-178c-81.649-5.594-109.69-37.292-68.677-77.62l10.494-10.317-3.6781-24.763c-4.1624-28.024-4.2426-30.194-2.0475-55.453 3.6541-42.048 2.73-50.052-9.2453-80.085-24.147-60.557-11.75-79.731 51.541-79.722 98.656 0.015 192.56 8.5977 241.23 22.048l7.6151 2.1046 1.0737 6.1719c0.59052 3.3945 2.0691 10.889 3.2857 16.655 4.3359 20.549 0.29531 33.614-15.417 49.85l-9.3541 9.6663-0.66343 23.5c-0.36489 12.925-1.3221 33.625-2.1271 46-2.9353 45.123-3.151 63.704-0.76926 66.267 7.1418 7.6841 24.241 42.498 24.241 49.355 0 19.094-41.946 30.947-125 35.323-27.36 1.4416-87.591 2.0401-102.5 1.0186zm102.86-16.513c25.733-2.3389 68.233-8.1427 99.523-13.591l6.3829-1.1114-0.57989-6.1242c-0.31894-3.3683-1.5006-9.9492-2.6259-14.624-1.1253-4.675-2.0567-9.85-2.0698-11.5l-0.0238-3-2.0433 3.1899c-8.5147 13.293-134.04 12.028-224.84-2.2656-13.033-2.0514-21.17-0.954-38.828 5.2369l-7.25 2.5417v8.9006 8.9006l5.9614 4.3886c23.847 17.555 94.237 25.617 166.4 19.058zm-2.5594-69.201c1.166-8.1125 2.3973-17.45 2.7362-20.75 1.6668-16.232 10.212-32.356 17.248-32.547 0.94336-0.026-0.36945-1.1323-2.9174-2.4594-14.659-7.6356-19.532-22.395-16.225-49.148 4.1733-33.762 4.9947-32.509-20.393-31.096l-20.25 1.1271v27.256 27.256l-5.6878 4.6333c-11.52 9.3-11.89 9.4-39.41 9.4h-24.165l-3.2589-3.4554c-7.4553-7.9049-11.403-47.629-6.8374-68.795l0.59325-2.75h-15.117-15.117v52.097 52.097l4.5556 15.153c2.5056 8.3342 5.0155 16.616 5.5776 18.403l1.022 3.25h9.1724 9.1724v-13.25c0-36.597 26.581-53.108 68-42.237 16.141 4.2364 17.173 6.5095 14.627 32.204-1.1327 11.431-2.3578 24.046-2.7224 28.033l-0.66302 7.25 5.8792 0.075c3.2336 0.041 9.4792 0.6625 13.879 1.3804 4.4 0.7179 10.291 1.3591 13.09 1.4249l5.0903 0.1196 2.12-14.75zm35.2 8.4c6.875-2.9807 15.538-6.4987 19.25-7.8177l6.75-2.3982v-14.259-14.259l-16.75-0.014c-9.2125-0.01-17.693-0.2669-18.847-0.5765-1.863-0.5001-2.2373 0.086-3.3595 5.2637-1.9535 9.0126-2.6865 40.801-0.92376 40.06 0.75891-0.3191 7.0048-3.0189 13.88-5.9996zm-90.38-23.9c1.1096-12.788 1.9568-23.354 1.8827-23.481-0.0742-0.1272-6.1319 0.6489-13.462 1.7247-7.3297 1.0758-17.289 2.2551-22.132 2.6207-5.2152 0.3937-8.9877 1.1402-9.2527 1.8309-1.9109 4.9798-3.9883 26.734-2.6331 27.574 4.0054 2.4834 34.606 11.657 43.026 12.899 0.30402 0.045 1.4607-10.381 2.5703-23.168zm140.38 14.2c1.2927-0.8354 1.2663-0.9715-0.19098-0.9847-0.93004-0.01-1.9691 0.4347-2.309 0.9847-0.78218 1.2656 0.54163 1.2656 2.5 0zm0.99349-38.796 7.0065-34.296v-29.454-29.454h-12.108-12.108l0.70225 2.75c10.385 40.667 8.0533 68.552-6.3368 75.786l-4.3514 2.1875 4.5987 2.2262c10.889 5.2715 14.563 13.649 14.683 33.482 0.0434 7.1877 0.26549 12.618 0.49349 12.068s3.5675-16.433 7.421-35.296zm-29.53-34c0.38269-1.5125 0.9355-15.462 1.2285-31l0.53266-28.25h-20.128-20.128l0.26607 27.25 0.26607 27.25 18 3.6641c9.9 2.0152 18.285 3.7027 18.633 3.75 0.34839 0.047 0.94654-1.1516 1.3292-2.6641zm-110.96-27.5c6.99-35.5 4.02-39.7-27.97-39.7h-19.53v25.5c0 19.691 0.28476 25.518 1.25 25.58 0.6875 0.044 10.025 0.8855 20.75 1.8702s20.175 1.8456 21 1.9131c1.1555 0.094 2.189-3.3784 4.5-15.12zm136.29-51.778c21.518-3.4919 35.479-16.713 37.408-35.426 0.33456-3.2453-2.3594-4.9815-32.764-21.116l-12.069-6.4046-13.431-1.4586c-45.381-4.9283-185.26-7.7716-204.09-4.1485-15.621 3.0056-27.178 9.2965-26.322 14.328 0.25829 1.5181 1.1949 7.2603 2.0813 12.76 1.869 11.597 5.7629 27.26 7.1123 28.609 6.0263 6.0263 215.58 17.155 242.08 12.856zm374.21 265.1c0-100.35-0.0938-106.02-1.7698-106.91-7.9426-4.2508-94.017-12.603-161.75-15.695l-15.02-0.6858-4.6226 12.879c-7.9877 22.254-13.633 42.243-17.475 61.879-1.5605 7.9743-1.801 17.291-2.1103 81.75l-0.34909 72.75h101.55 101.55v-105.96zm-184.78 8.0742c-12.41-4.2867-17.917-17.832-12.12-29.808 8.3657-17.281 54.366-13.099 51.522 4.6848-3.5801 22.389-18.949 32.188-39.403 25.123zm19.534-19.144c4.9908-1.0753 8.5759-7.9654 4.1446-7.9654-5.5433 0-17.895 5.3123-17.895 7.6964 0 2.8555 1.6003 2.8868 13.75 0.269zm26.684 0.2846c1.5764-19.01 2.5832-38.618 3.2103-62.517l0.67611-25.767 8.0896-2.4288c30.617-9.1924 37.931-8.4656 61.341 6.0955 6.0605 3.7697 7.1701 4.868 6.7581 6.6886-0.8523 3.7665-10.509 79.911-10.509 82.865v2.8134h-35.104-35.104l0.64263-7.75zm62.57-13.2c0-0.4828-0.68292-2.5123-1.5176-4.51-1.2105-2.8971-1.3224-4.8948-0.55288-9.8721 0.53059-3.432 1.6625-12.765 2.5153-20.74 0.85284-7.975 1.7463-15.95 1.9854-17.722 0.55149-4.0863-42.29-10.844-45.804-7.2248-1.12 1.1532-3.9562 30.166-4.3694 44.696l-0.46212 16.25h24.103c13.25 0 24.1-0.4 24.1-0.9zm132.14 127.91c36.06-11.1 48.08-56.3 40.96-154-1.102-15.125-2.3168-34.35-2.6996-42.722l-0.696-15.222-5.5795-1.622c-20.149-5.8574-30.043-6.4297-58.377-3.3764l-12.75 1.3739v108.78 108.78h16.395c13.471 0 17.528-0.3503 22.75-1.9641zm-274.13-40.2c0.0241-73.32 5.3998-134.2 15.36-173.95l3.1821-12.7-3.5261-0.5523c-6.2706-0.9823-51.252-5.6028-60.566-6.2214l-9.0402-0.6005-1.0825 3.3871c-27.331 85.515-31.595 114.53-24.303 165.39 5.7086 39.809 24.73 55.875 66.716 56.35l13.25 0.2 0.0103-31.25zm637.39-75.635c10.077-2.0321 21.33-6.2087 28.36-10.526l6.7437-4.1414 0.2736-17.224c0.1505-9.4732-0.1217-17.224-0.6048-17.224s-6.4562-0.444-13.274-0.9866c-70.916-5.6443-192.96-10.502-247.48-9.8494l-28.081 0.336-4.8638 3.0089c-27.838 17.221-4.6623 53.314 36.89 57.452 13.346 1.3288 215.06 0.5612 222.03-0.845zm-118.29-69.704c0.3327-0.1926 0.8712-6.1014 1.1965-13.131 1.697-36.672 16.477-50.963 53.811-52.03 51.713-1.4785 64.818 10.937 59.905 56.75l-0.4826 4.5 9.1561 0.2865 9.1561 0.2865 0.8232-5.7865c1.0868-7.6401 0.9765-61.913-0.2161-106.29l-0.9541-35.5-7.4328 29.441c-8.1107 32.126-10.38 37.9-16.785 42.719-20.445 15.38-82.097 10.58-94.659-7.3703-3.6634-5.2346-4.0978-8.2327-6.127-42.289-0.8685-14.575-1.8052-28.361-2.0816-30.636l-0.5025-4.1354-9.7059-0.4207c-6.4415-0.2791-10.767-0.9823-12.86-2.0908l-3.1545-1.6703-0.604 5.7264c-0.3322 3.1495-1.3047 14.501-2.161 25.226-3.1989 40.063-13.123 51.388-44.926 51.266-37.538-0.1431-48.019-10.19-49.677-47.619-1.3306-30.034-1.8648-34.206-4.3429-33.915-10.643 1.2511-16.678 1.3941-19.361 0.4587-8.5788-2.9906-12.746 91.59-5.5385 125.7 3.2506 15.386 13.944 38.104 17.934 38.104 6.888 0 11.616-10.406 12.628-27.792 1.1306-19.427 1.0306-19.314 23.564-26.579 52.228-16.838 65.884-9.6613 68.253 35.871 0.4866 9.35 1.3748 18.28 1.9738 19.845l1.089 2.8455 10.738-0.7147c5.9062-0.3931 11.011-0.8723 11.344-1.0649zm98.9-20.9c0-18.597-0.1572-20.479-1.75-20.947-14.652-4.3061-67.098-4.0405-74.244 0.376-2.8608 1.7681-3.8659 19.939-1.8393 33.254l1.1796 7.75h38.327 38.327v-20.433zm-169 16.489c7.425 0.2096 15.948 0.3951 18.939 0.4124l5.4389 0.031 1.2958-7c5.9944-32.383-0.6229-37.502-41.424-32.048l-14.25 1.9049v18.965 18.965l8.25-0.8053c4.5375-0.4429 14.325-0.6338 21.75-0.4242zm-129.68-42.128c8.4576-2.3486 13.661-9.9365 13.674-19.939 0.005-4.2411-1.0186-5.9467-17.108-28.5-103.5-145.08-170.32-228.36-192.32-239.69-25.382-13.071-94.312 67.686-196.24 229.91-15.665 24.932-14.612 21.578-7.5842 24.158 46.797 17.178 138.94 28.977 258.75 33.132 60.079 2.0834 134.89 2.5773 140.82 0.9296zm-120.82-39.1c-11-0.4463-35.75-1.7199-55-2.8303-19.25-1.1103-47.825-2.4673-63.5-3.0154-50.794-1.7761-52.231-1.8699-60.169-3.9269-43.277-11.214-35.866-36.853 29.62-102.47 74.204-74.358 84.302-75.127 139.53-10.636 18.621 21.743 69.659 87.238 75.324 96.659 0.87467 1.4548-9.4865 15.513-15.247 20.688-8.0438 7.2254-8.2802 7.2513-50.562 5.5359zm41.88-27.7c-34.17-46.4-98.11-123.2-102.65-123.2-21.629 0-62.538 30.119-90.759 66.819-13.578 17.657-35.968 51.519-34.822 52.665 0.39103 0.391 215.44 11.134 228.14 11.396l5.7894 0.1198-5.6982-7.75zm375.53 22.287c5.1416-10.444 6.0561-17.075 6.0738-44.037l0.016-24-36.472-0.04c-30.009-0.033-36.565 0.2033-36.998 1.3319-0.9222 2.4032-1.8506 47.445-1.118 54.24 0.9416 8.7339 1.178 8.9787 9.6974 10.041 4.0669 0.5072 14.264 2.3013 22.661 3.9869 14.63 2.937 24.745 4.5412 30.346 4.8131 2.2616 0.1098 3.0404-0.7419 5.7945-6.3363zm-142.8-19.3c9.9007-10.3 10.168-16.66 1.8307-43.497l-3.03-9.7531h-27.424-27.424l0.7029 5.25c0.3866 2.8875 0.7029 13.575 0.7029 23.75s-0.3163 20.862-0.7029 23.75l-0.7029 5.25h25.74 25.74l4.5659-4.75zm190.33-107.94c-1.8759-4.9424-7.9721-10.763-14.123-13.483-10.99-4.8612-8.8619-4.7943-153.1-4.8128h-135.2v24c0 13.2 0.1125 24.053 0.25 24.118s68.425 3.1062 151.75 6.7589l151.5 6.6412 0.2806-19.509c0.2287-15.904-0.013-20.282-1.3085-23.695zm161.6-178.2v-12.91l-8.75-0.6041c-41.702-2.8792-74.351-10.636-133.56-31.73-97.189-34.627-134.21-37.451-215.19-16.413-65.286 16.961-75.882 19.352-97.763 22.061-23.47 2.9056-44.898 1.5582-73.01-4.5911-25.146-5.5004-41.593-10.612-104.23-32.39-97.95-34.057-122.91-34.539-204.6-3.9424-81.418 30.497-106.14 30.722-184.88 1.6867-97.986-36.133-117-36.534-224.59-4.7333-58.319 17.237-99.243 25.443-127.05 25.475-2.0139 0-17.659 39.059-16.222 40.496 0.37135 0.3714 1345.1 30.005 1378.6 30.38l11.25 0.126v-12.91zm-31.75-27.703 16.75-2.643v-7.1619c0-37.675-44.665-77.287-136.63-121.17-84.288-40.221-111.12-40.778-208.96-4.3338-89.05 33.15-115.53 31.6-220.01-12.93-110.02-46.88-138.84-47.5-240.89-5.17-92.23 38.26-113.94 38.98-209.5 6.96-89.12-29.86-112.97-30.33-219.5-4.31-19.25 4.7016-46.653 11.18-60.895 14.397-14.243 3.2165-26.202 6.2103-26.578 6.6528-0.37517 0.4425-5.5584 12.28-11.518 26.305-5.9599 14.025-13.758 31.692-17.329 39.26-3.5712 7.5678-6.2982 13.955-6.06 14.193 0.23818 0.2382 7.3963 1.6284 15.907 3.0893 32.68 5.61 57.194 0.8997 128.23-24.64 85.081-30.589 103.08-30.273 193.24 3.3914 88.82 33.163 111.13 33.498 211.5 3.1771 102.3-30.907 129.24-29.914 231.5 8.5294 101.9 38.311 128.21 39.523 229.37 10.567 97.011-27.767 124.5-25.587 213.03 16.891 60.444 29.005 82.971 34.511 118.35 28.929zm-58.156-128.26c-4.8088-14.353-9.9521-23.45-31.206-55.191l-19.956-29.802-3.6199 1.5125c-23.9 10.02-50.5 4.04-124.2-27.97-56.5-24.52-56.7-24.54-137.7-8.24-136.13 27.42-147.53 26.95-230.8-9.46-81.8-35.78-109.17-37-188.15-8.41-76.64 27.74-94.33 27.28-193.04-4.99-81.31-26.58-115.72-32.75-140.81-25.28-32.534 9.6969-108.14 33.922-109.18 34.981-2.7556 2.813-29.249 46.518-40.158 66.247-10.449 18.9-21.16 43.28-21.16 48.16 0 1.3697 1.1544 1.4866 8.75 0.88575 24.979-1.976 45.005-6.2945 101.97-21.99 87.419-24.087 112.05-22.914 193.94 9.2342 84.37 33.123 104.25 32.382 204.34-7.6111 108.77-43.463 142.68-42.509 240.5 6.7659 88.945 44.803 109.06 45.985 211.7 12.443 97.286-31.794 122.16-33.476 183.2-12.392 23.913 8.2602 76.819 31.474 94.098 41.287 5.3347 3.0297 5.5547 1.6226 1.5945-10.198zm-63-96.69c0-6.6794-46.089-62.505-67.754-82.069-72.2-65.24-130.7-73.22-235.67-32.18-97.02 37.92-111.57 37.67-193.03-3.22-85.1-42.73-96.22-43.44-164.5-10.49-76.12 36.74-98.84 36.3-179.37-3.45-121.09-59.77-238.85-24.7-261.09 77.76l-0.71682 3.3013 3.8407-1.6574c111.22-47.99 162.47-49.05 264.34-5.44 75.441 32.297 81.887 32.574 152 6.5227 99.613-37.013 121.31-36.601 201 3.809 77.256 39.176 86.811 40.042 184 16.661 77.509-18.646 100.2-19.843 148.5-7.8332 21.5 5.3458 91.102 28.8 110.5 37.235 3.4252 1.4896 38 2.4496 38 1.0552zm-68.554-112.61c-37.321-68.741-42.94-75.182-67.962-77.888-21.933-2.372-849.95-12.15-855.34-10.1-11.302 4.2943-35.701 24.818-47.157 39.668-5.6566 7.332-5.7113 7.3258 13.142 1.4925 81.706-25.281 119.47-21.989 194.38 16.942 69.481 36.11 82.051 36.31 156.09 2.4859 74.909-34.221 97.862-33.272 178.32 7.3789 80.432 40.638 92.108 40.952 191.16 5.1378 98.199-35.505 143.92-31.39 231.93 20.872 14.001 8.3143 13.507 8.858 5.4462-5.9889zm-115.4-104.42c0-0.86832-2.4482-11.781-5.4404-24.25-16.227-67.622-9.2144-87.086 39.938-110.85l9.5633-4.6234-0.2805-11.529-0.2804-11.529-4.7788-2.3812c-27.377-13.641-181.56-18.96-199.52-6.8822-15.125 10.172-15.125 26.278 0.00088 42.201l7.1226 7.4983 3.0868-2.926c10.087-9.5614 26.847-8.2188 32.214 2.5804 1.7586 3.5389 1.8904 7.4583 2.1532 64.02l0.27991 60.25h57.97c52.148 0 57.97-0.15857 57.97-1.5788zm-697-9.9002c0-0.26342-1.0908-3.7509-2.4241-7.75-5.485-16.452-5.751-32.532-1.0712-64.771 1.3971-9.625 2.9335-23.634 3.4142-31.131 1.3477-21.019 1.247-20.889 22.687-29.353 18.917-7.4682 17.907-6.5088 16.406-15.59-4.139-25.029-11.133-27.588-53.012-19.396-30.69 6.0031-39.069 5.824-76.918-1.6439-62.7-12.38-72.08-8.22-72.08 31.96 0 0.40576 2.125 1.3061 4.7223 2.0008 27.156 7.2632 45.684 23.782 51.3 45.737 1.82 7.09 1.98 11.16 1.98 49.07v41.34h52.5c28.875 0 52.5-0.21553 52.5-0.47895zm737.25-180.17c1.2427-0.34583 1.75-1.5067 1.75-4.0049v-3.5179l-7.75 0.70707c-9.4333 0.86064-9.25 0.75954-9.25 5.1022v3.5206l6.75-0.65999c3.7125-0.36299 7.5375-0.87913 8.5-1.147zm-764.2-8.38c32.744-3.415 52.737-15.859 69.621-43.335 6.9836-11.365 5.9722-11.106 14.141-3.6208 13.964 12.796 25.891 14.822 50.477 8.5764 18.693-4.7485 27.509-11.221 46.283-33.977 13.891-16.837 13.728-16.755 35.186-17.692 69.33-3.0292 90.448-19.753 83.37-66.026-2.3416-15.31-2.7154-19.736-1.773-20.992 0.65679-0.87578 4.8648-6.4493 9.3512-12.386 33.962-44.938 29.814-98.675-10.832-140.34-30.558-31.326-83.604-35.341-93.038-7.0418-0.57169 1.7151-2.4947 0.26064-23.846-18.036-24.19-20.717-30.61-23.513-53.94-23.496-40.634 0.03066-86.052 28.65-97.756 61.599-7.8123 21.993-4.6179 32.984 21.596 74.307 13.407 21.135 14.307 19.973-16.616 21.482-38.699 1.8888-45.11 12.409-38.731 63.556 0.82061 6.5791 1.4956 12.703 1.5 13.609 0.006 1.3125-1.7679 1.8923-8.742 2.8568-32.17 4.4489-40.973 8.2647-46.129 19.997-6.2907 14.312-2.6418 29.479 12.015 49.942 7.2926 10.181 6.8075 11.532-4.7258 13.157-13.193 1.8594-21.94 3.7059-27.47 5.7987-9.9669 3.7721-9.7836 1.895-2.4176 24.756l6.4935 20.153 6.242 0.6626c3.4331 0.36443 13.217 1.7592 21.742 3.0996 29.498 4.6378 33.484 4.9208 48 3.4069zm569.22 1333.7-2.2775-1.2645 2.5275-2.3744 2.5275-2.3744v3.6743c0 2.0209-0.1125 3.6584-0.25 3.6389-0.1375-0.02-1.2749-0.6045-2.5275-1.2999zm-799.97-20.8c-4.9765-8.1793-4.9838-8.2213-1.803-10.306l2.447-1.6034 4.5861 8.1552c4.6088 8.1954 4.7012 9.1166 1.0198 10.168-1.6369 0.4674-2.7716-0.6971-6.25-6.4141zm-32.364-3.7c-1.6878-4.3593-7.8939-21.241-9.9258-27l-1.8523-5.25h2.7863c4.1749 0 17.152 33.001 13.524 34.393-2.707 1.0388-3.4336 0.6952-4.5325-2.143zm-58.886-23.2v-9h3.5 3.5v9 9h-3.5-3.5v-9zm973.9-1419.3c1.5407-1.9407 7.0888-6.1171 7.0888-5.3363 0 0.26623-1.9125 1.9758-4.25 3.7989-2.3375 1.8232-3.615 2.515-2.8388 1.5373z"/>
</svg>
