<?xml version="1.0" encoding="UTF-8" standalone="no"?>
<svg id="svg4436" xmlns:rdf="http://www.w3.org/1999/02/22-rdf-syntax-ns#" xmlns="http://www.w3.org/2000/svg" height="1871" viewBox="0 0 1678 1871" width="1678" version="1.1" xmlns:cc="http://creativecommons.org/ns#" xmlns:dc="http://purl.org/dc/elements/1.1/">
<path id="path4446" d="m393.53 1869.3c-20.282-4.346-31.351-16.222-32.33-34.689l-0.43242-8.1545-10.579-7c-29.537-19.544-42.383-41.595-32.715-56.156 11.586-17.45 79.509-74.726 102.43-86.372 31.684-16.101 102.59 34.742 109.18 78.294 0.81839 5.4037 1.9521 8.5003 4.4793 12.235 22.604 33.404-12.3 74.248-68.955 80.69l-9.9788 1.1347-5.9804 6.3931c-13.137 14.043-31.725 18.638-55.118 13.625zm27.155-12.302c6.4702-2.7834 9.9427-6.5071 15.891-17.041 2.6398-4.675 5.728-10.12 6.8627-12.1l2.0631-3.5996 14.5 4.8839c19.963 6.7241 18.784 6.615 27.383 2.5311 40.095-19.041 44.815-34.818 17.088-57.123-9.569-7.6977-10.254-8.4765-8.6799-9.8702 0.93981-0.8322 6.331-4.9403 11.98-9.1292 18.632-13.815 18.662-19.547 0.178-33.862-19.418-15.039-25.62-15.185-40.171-0.948l-5.721 5.5975-2.3838-5.44c-1.3111-2.992-4.3191-9.8754-6.6845-15.296-12.5-28.648-44.796-24.494-49.426 6.3564-1.6977 11.311-4.8704 27.574-5.5178 28.285-0.39331 0.4316-5.1572-2.4326-10.586-6.3649-11.121-8.0549-11.197-8.0572-15.908-0.4832-2.8401 4.5661-3.9318 11.796-2.4969 16.535 0.46036 1.5206-3.1486 2.2938-22.388 4.796-12.553 1.6327-15.65 5.9716-15.66 21.944-0.0154 22.652 20.522 37.197 40.649 28.788 6.3346-2.6468 6.2815-3.0258 3.2054 22.868l-1.2911 10.868 7.9657 7.6695c13.89 13.373 24.96 16.239 39.149 10.135zm9.0931-54.064c-20.766-3.2605-30.404-20.024-24.421-42.477 9.8515-36.97 67.191-23.887 65.463 14.936-0.94849 21.306-16.081 31.46-41.042 27.541zm12.578-15.059c10.312-2.8633 17.185-13.969 13.323-21.528-9.0725-17.757-27.784-17.825-36.809-0.1342-6.5258 12.792 7.8104 26.014 23.486 21.662zm-373.97 66.485c-7.024-7.8481-6.9867-7.6798-2.3014-10.38 1.4037-0.8092 12.524 10.441 13.708 13.868 1.9765 5.7218-5.1006 3.5578-11.406-3.4877zm134.65-5.6282c-1.7883-5.6513-4.5521-13.15-6.1417-16.663-1.5896-3.5136-2.8903-6.7761-2.8903-7.25 0-2.6802 11.81 2.178 15.914 6.5465l2.2533 2.3985-2.689 12.347c-1.479 6.7906-2.8028 12.47-2.9418 12.622-0.13904 0.1512-1.716-4.3488-3.5042-10zm-70.043-9.3285-16.489-16.554 2.4014-1.9794c3.7682-3.106 36.618 29.718 33.363 33.336-2.2552 2.5067-1.3114 3.2316-19.276-14.804zm1443.5-70.2c-4.1186-0.9609-4.2839-5.1506-1.0452-26.489 2.3359-15.39 3.146-24.7 2.1493-24.7-0.2177 0-4.6052 2.6377-9.75 5.8615-27.716 17.367-24.93 20.417-24.616-26.957l0.2617-39.405 3.7795 11.5c4.0368 12.283 7.128 26.3 8.2084 37.219l0.6647 6.7195 11.812-5.9213c11.277-5.6529 22.342-10.018 25.395-10.018 1.1922 0 1.5027 5.3914 1.9145 33.25 0.2704 18.288 0.8055 34.2 1.1892 35.362 1.0786 3.2659-11.578 5.5341-19.964 3.5775zm-65.127-80.87c-3.6357-7.601-9.4635-19.782-12.951-27.07l-6.3402-13.25h2.7241c2.5715 0 29.881 50.758 28.155 52.33-3.6345 3.3128-4.8734 2.0288-11.589-12.01zm-37.522-7.1023c-1.4565-2.0447-7.2267-8.7975-12.823-15.006l-10.174-11.288 9.3226 0.2885 9.3227 0.2885 4.2128 8.5c6.6802 13.478 6.7858 26.549 0.139 17.218zm-53.238-15.306c-5.4809-15.26-1.2523-16.941 5.5001-2.1868l3.7643 8.2252-2.8252 2.0117-2.8252 2.0117-3.614-10.062zm-967.2-12.5c-59.903-10.726-89.905-51.996-64.57-88.82 3.9135-5.6881 4.0836-4.6098-2.9379-18.617-7.335-14.632-3.6432-15.814-28.639 9.1619l-21.164 21.147-40.231-25.245c-34.247-21.49-40.546-25.102-42.346-24.281-1.163 0.5299-15.092 8.4491-30.954 17.598-15.862 9.1492-28.992 16.635-29.179 16.635-0.18715 0-8.7489-12.192-19.026-27.094l-18.686-27.094-5.3221 9.1016c-2.9271 5.0059-7.4873 12.92-10.134 17.588-2.6464 4.6674-5.0367 8.4763-5.3117 8.4642-0.275-0.012-13.319-19.134-28.987-42.493-33.753-50.322-28.9-48.705-38.91-12.971-1.0785 3.85-2.0157 6.1-2.0826 5s-2.4782-19.855-5.3585-41.678-4.8562-39.442-4.3909-39.155c3.2552 2.0119 64.497 86.523 74.806 103.23 5.5517 8.9968 4.3284 10.304 12.314-13.155 3.79-11.133 7.1854-20.577 7.5452-20.987 0.35984-0.4098 5.8089 5.2992 12.109 12.687 6.3002 7.3875 11.725 13.46 12.055 13.495 1.064 0.1121 13.98-95.108 17.383-128.16 2.5855-25.106 2.2458-359.07-0.36958-363.36-3.1681-5.1954-7.8501-6.6599-24.114-7.5431-39.935-2.1687-59.256-12.497-68.201-36.458-2.1059-5.6414-2.2266-7.6689-2.5701-43.183l-0.36038-37.264-3.6843-1.5523c-2.019-0.84-17.474-6.21-34.337-11.9-43.809-14.81-50.533-19.21-55.959-36.65-8.5032-27.321 6.9696-49.692 50.012-72.308 26.274-13.806 40.286-26 48.111-41.873 7.0925-14.387 6.6928-6.1165 8.3939-173.68 0.84587-83.325 1.665-163.85 1.8203-178.94l0.28-27.44-9.36-5.3c-22.302-12.61-37.087-27.82-37.13-38.19-0.009-2.1 125.16-214.3 128.64-218.1 6.14-6.672 110.15 139.15 133.09 186.59 15.49 32.05-15.63 72.38-55.87 72.38h-2.87v76.417 76.417l4.25 3.5315c2.3375 1.9423 4.5348 3.2171 4.8828 2.8329 0.92-1 58.66-148.74 104.05-266.19 59.64-154.36 135.88-232.32 230.46-235.7 61.48-2.1909 111.94 23.301 204.36 103.24 37.155 32.139 117.42 100.91 150.29 128.77 82.058 69.554 175.2 108.6 273.2 114.53l10.988 0.66435 10.812 29c15.043 40.349 58.369 157.98 71.269 193.5 54.376 149.71 102.61 216.98 186.04 259.44 61.113 31.104 69.907 40.379 69.746 73.561-0.1287 26.416-3.2344 31.832-30.588 53.343l-13.75 10.813v16.678c0 17.553 1.3469 31.585 5.4874 57.166 4.86 30.026 4.4395 36.7-3.2371 51.376-6.4966 12.42-26.996 30.592-46.937 41.608-5.0329 2.7805-4.7533 0.8932-6.2976 42.516-0.5713 15.4-2.1508 56.8-3.51 92-6.4528 167.12-6.8641 188.16-4.0465 207 4.0173 26.867 12.931 51.794 24.849 69.492l3.3151 4.9226 25.276-14.036c13.902-7.72 25.387-13.888 25.522-13.707 0.1355 0.1809 8.918 18.554 19.517 40.829s19.411 40.65 19.582 40.833c0.1713 0.1829 6.5368-1.6877 14.146-4.157 28.194-9.1499 30.045-8.7978 35.872 6.8243 2.3743 6.3647 10.82 14.833 19.28 19.331 4.6232 2.4581 6.1377 3.7682 5.78 5-0.2666 0.918-1.0211 4.5941-1.6768 8.1691-0.6556 3.575-1.4924 6.8386-1.8594 7.2524-0.561 0.6325-10.058-7.9612-33.608-30.411l-4.0451-3.8561-17.374 3.5071c-9.5558 1.929-18.085 3.4955-18.955 3.4811-1.0085-0.017-9.3281-13.19-22.982-36.391l-21.401-36.365-6.599 2.8106c-3.6295 1.5458-15.46 6.6188-26.289 11.273l-19.69 8.4629-11.207-25.24-11.207-25.24-14.103 6.7366c-15.666 7.483-30.944 13.431-52.433 20.414l-14.329 4.6564-10.171-7.7688c-5.5938-4.2729-12.76-9.7671-15.924-12.209-3.1644-2.4424-5.9222-4.2547-6.1283-4.0275-0.2062 0.2273-3.5599 6.4882-7.4528 13.913-10.207 19.468-8.5086 18.476-16.766 9.7839-3.8547-4.058-12.345-14.557-18.868-23.331-6.5225-8.7741-14.967-20.103-18.766-25.175-11-14.8-32.5-33.4-38.5-33.4-1.4458 0-1.0701 3.1271 2.1625 18 5.2259 24.044 5.4699 30.222 1.5008 38.002-2.3934 4.6915-9.312 9.7813-11.242 8.2702-0.6914-0.5413-12.507-9.8865-26.257-20.767-13.75-10.881-25.54-20.207-26.2-20.725-1.1204-0.8795-12.051 6.1152-40.365 25.829l-7.5645 5.2671-9.3158-7.4382c-11.151-8.9038-5.9737-9.4892-32.217 3.6428l-22.144 11.081-11.344-11.312-11.344-11.312-18.953 9.4347-18.953 9.4347-14.008-5.5918-14.008-5.5919-12.16 9.374c-6.7599 5.2112-12.663 9.073-13.292 8.6962-0.62277-0.3728-10.132-6.9604-21.132-14.639s-20.476-13.968-21.057-13.975c-2.3749-0.031-29.561 19.57-29.037 20.935 0.29333 0.7645 9.8214 14.289 21.174 30.055l20.64 28.665-0.43188 5.208c-2.5556 30.817-49.228 52.697-136.79 64.127-18.779 2.4514-348.18 3.135-361.5 0.7502zm279-17.227c22.874-4.2336 27.728-4.1926 36.206 0.3063 12.069 6.4049 30.205 4.0506 93.143-12.092 71.724-18.396 80.946-24.6 72.698-48.908-2.2474-6.6236-9.6324-21.674-10.423-21.242-23.377 12.751-94.411 28.28-154.12 33.693-20.221 1.8331-319.43 1.409-325.73-0.4617-10.833-3.217-18.963-11.444-23.438-23.716l-2.2223-6.095-8.5572 8.9563c-24.548 25.693-15.116 53.586 20.752 61.366 35.792 7.7631 119.95 11.954 231.69 11.538l53-0.1973 17-3.1464zm-8.9106-61.704c21.921-2.0806 78.151-10.114 77.193-11.028-0.15542-0.1484-64.183 1.2487-142.28 3.1048-78.1 1.856-147.62 3.4688-154.5 3.5841-19.392 0.325-8.1919 0.8417 71.5 3.2986 91.45 2.8193 126.73 3.0672 148.09 1.0403zm153.41-15v-3.5h-8.5-8.5v3.5 3.5h8.5 8.5v-3.5zm10.934-3.1307c5.3388-2.3154 6.0659-2.9645 6.0659-5.4148v-2.7841l-6.75 2.5562c-8.1398 3.0824-8.2656 3.188-7.1777 6.0234 1.0603 2.7636 0.55533 2.788 7.8618-0.3807zm-552.86-5.6c10.66-15.272 27.292-28.309 43.218-33.879l8.2088-2.871 4.5 4.7537c2.475 2.6145 8.071 8.5771 12.436 13.25 4.3646 4.6731 7.5945 7.5965 7.1777 6.4965-16.803-44.338-4.4183-75.191 30.637-76.324 12.218-0.3951 12.75-0.5012 12.748-2.544-0.002-2.084-9.5413-117.53-14.47-175.13-11.497-134.35-9.6865-215.75 6.4319-289.14l2.8853-13.137-6.4223-17.281c-6.8468-18.423-7.2489-20.446-4.9486-24.894 8.6087-16.647 49.82-27.01 130.38-32.784 37.419-2.682 271.32-2.6836 281.03-0.002 35.387 9.7756 50.932 53.635 34.641 97.736-8.9966 24.354-8.4907 17.911-8.5104 108.37-0.0193 88.684-0.19217 85.731 6.9735 119.13 7.7657 36.195 7.5139 32.284 7.4684 116-0.0265 48.721-0.47939 81.724-1.2926 94.191l-1.2518 19.191 10.693 17.309c5.8814 9.52 11.351 18.32 12.156 19.556l1.4623 2.2472 14.137-7.4267 14.137-7.4268 21.5 13.514c11.825 7.4326 22.018 13.732 22.651 13.998 2.0388 0.8588 32.38-15.918 32.831-18.153 2.3052-11.426 26.555-387.15 25.526-395.5-1.7391-14.114-4.3575-27.055-12.632-62.435-7.0293-30.054-13.889-62.506-14.571-68.938-0.2789-2.6293-0.9836-3.1038-8.3048-5.5927-44.22-15.07-83.06-65.79-85.22-111.32-0.3-6.46-0.66-11.75-0.79-11.75-0.13106 0-2.6568 1.0663-5.6127 2.3695-10.374 4.5738-29.572 7.1616-37.444 5.0474-4.0151-1.0783-6.0939-30.843-3.8224-54.729 1.3896-14.613 1.5316-19.142 0.6097-19.449-9.0947-3.0316-36.82-22.932-49.792-35.739-41.374-40.849-49.467-83.235-24.303-127.28 3.8846-6.7998 6.9086-12.488 6.72-12.641-0.18863-0.15274-8.668-1.4636-18.843-2.9131-17.483-2.4905-37.957-6.7706-40.786-8.5261-2.1689-1.3461 15.531-43.628 25.095-59.945l3.6244-6.184-4.2167-2.1272c-16.8-8.49-51.88-37.53-60.56-50.15-6.77-9.85-6.61-8.79-7.16-47.66l-0.5-35.422-5.9932-1.3602c-12.555-2.8494-27.413-12.119-32.936-20.548-1.5107-2.3056-1.4132-3.4001 1.5463-17.355 4.4416-20.943 5.1758-18.77-6.6171-19.582-17.7-1.2183-42.542-3.866-60.5-6.448-9.625-1.3839-19.399-2.7639-21.719-3.0666l-4.2195-0.55032 8.0404 18.377c4.4222 10.107 8.6567 19.83 9.4101 21.607 3.3138 7.8144-16.863 25.158-29.37 25.246-2.9744 0.021-3.2956 0.28099-2.8092 2.2737 14.541 59.566-2.1152 100.92-50.914 126.42-6.8799 3.5948-8.3402 1.1138 13.686 23.252 10.508 10.561 18.945 19.32 18.75 19.465-0.19502 0.14524-14.42 3.9628-31.61 8.4835l-31.256 8.2194-6.5934-1.978-6.5934-1.9781 0.60568 2.1825c18.997 68.455 0.52988 115.15-51.046 129.07-6.1318 1.6546-8.7682 2.811-8.5591 3.754 0.16618 0.74958 2.4868 6.9879 5.157 13.863 7.48 19.24 14.05 41.21 14.05 46.97 0 5.8991-39.529 15.248-56.834 13.441l-6.3344-0.66117 2.2077 4.3274c28.089 55.059-48.356 127.44-120.4 113.99l-9.8627-1.84 0.59514 11.135c3.1974 59.821 0.75458 102.3-13.348 232.13-11.737 108.05-13.254 142.72-9.1258 208.5 1.191 18.975 2.4892 42.021 2.8849 51.214l0.71946 16.714 13.756-25.344c22.501-41.457 29.879-50.654 40.559-50.559 9.4935 0.084 40.774 20.791 48.804 32.306l1.9734 2.8302 6.0982-1.5802c30.746-7.9671 56.288 7.8201 58.948 36.434l0.61724 6.6414-12.29 16.922-12.29 16.922 3.562 10c1.9591 5.5 4.9056 13.603 6.5477 18.006l2.9857 8.0059-18.887 20.697-18.887 20.697-8.3497-3.8394-8.3497-3.8393-8.1483 10.874c-9.9316 13.253-10.552 10.583 5.1357 22.105 15.742 11.562 13.489 11.136 18.789 3.5438zm283.93-709.87c-28.32-3.4-43.88-4.93-50.26-4.93-28.728 0-52.558-24.973-49.77-52.158 1.967-19.177 4.6642-22.911 26.531-36.723l14-8.843 0.61166-52.888c0.80397-69.515 2.2303-104.32 5.4411-132.76l1.4528-12.869-3.4673-8.6662c-8.2823-20.701-7.2777-35.971 2.9576-44.958l3.6137-3.1729 36.695 0.5296c51.532 0.74374 62.523 1.2552 75.923 3.533 25.4 4.3174 42.67 13.206 50.907 26.203 2.9908 4.7185 3.0237 4.1703-1.167 19.42-8.7243 31.746-10.017 45.284-8.5825 89.85 0.58438 18.15 1.6137 52.676 2.2874 76.724l1.2248 43.724 4.0508 2.9088c2.228 1.5999 9.4508 5.9203 16.051 9.6009 23.793 13.269 30.77 30.338 20.732 50.724-14.14 28.69-77.31 43.41-149.24 34.75zm80-18.47c37.728-4.2026 58.013-16.438 57.968-34.964-0.0246-10.076-2.1019-12.503-16.834-19.662l-13.04-6.33-1.1 4.5c-5.8768 24.025-24.978 29.99-96.07 29.996l-44.579 0.004-4.6395-3.0731c-9.2241-6.1098-16.639-17.524-16.681-25.677-0.0252-4.867-0.67323-5.093-8.1214-2.8323-19.317 5.8633-27.049 18.94-19.62 33.184 7.5496 14.475 40.199 23.344 86.1 23.39 4.8844 0.005 13.209 0.66979 18.5 1.4777 5.2906 0.8079 10.969 1.6592 12.619 1.8918 5.0473 0.7114 32.275-0.42373 45.5-1.8969zm-15.45-46.37c32.57-6.18 34.72-15.69 29.56-131.09-1.1179-25.025-2.3366-55.674-2.7083-68.108l-0.6758-22.608-29.232-1.3009c-29.31-1.3-91.36-0.81-99.99 0.8l-4 0.74519-1.2003 9.4858c-3.3097 26.155-2.7422 68.757 1.7982 134.99 1.1123 16.225 2.3328 38.472 2.7123 49.438l0.6899 19.938 8 1.7584c29.608 6.508 76.599 9.4505 95.047 5.9518zm-50.82-16.12c-18.73-4.72-27.09-21.03-27.15-52.97-0.06-37.51 22.45-50.49 58.67-33.81l6.75 3.1076 0.0118 6.102c0.007 3.3561 0.67968 13.302 1.4959 22.102 3.699 39.88 1.0175 48.926-16.023 54.055-6.1588 1.8535-18.987 2.6203-23.75 1.4195zm11.072-18.843c17.339-11.775 19.396-21.301 9.0547-41.935l-5.35-10.7-6 0.10426c-3.3 0.0574-8.5875 0.65175-11.75 1.3209l-5.75 1.2166v22.416 22.416l3.25 1.3903c1.7875 0.76464 4.5717 2.7957 6.1871 4.5134 3.6694 3.9019 3.509 3.9134 10.369-0.74523zm-18.41-87.76c-21.01-4.98-24.14-12.01-24.33-54.67-0.11-26.43-0.19-26.4 56.69-24.22l20.25 0.7759v35.709 35.709l-5.3814 2.7228c-11.243 5.6883-32.48 7.4776-47.225 3.9788zm28.61-18.79c0-0.22939 2.8883-8.7281 6.4183-18.886l6.4184-18.469-8.6684-1.6045c-15.139-2.8022-37.202-5.9236-37.78-5.3451-0.50592 0.50592-4.4896 40.007-4.0678 40.335 1.0634 0.82696 37.68 4.6841 37.68 3.9691zm38.5-103.09c7.7-0.79729 16.421-1.459 19.38-1.4704l5.38-0.02-0.52177-4.6292c-0.8811-7.8171-6.4133-17.285-12.172-20.832l-4.9338-3.0387-26.066 0.25653c-36.403 0.35826-91.328 3.6722-93.284 5.6283-7.3572 7.3572 15.606 20.596 40.799 23.522 5.1804 0.60169 10.769 1.2514 12.419 1.4437 8.4399 0.9839 46.561 0.42861 59-0.85943zm-156.29 1023.2c1.3763-1.2755 2.6795-2.8433 2.896-3.484 0.29316-0.8676 38.677-1.6776 150.39-3.1735 94.325-1.2631 151.67-2.3999 154.5-3.0629 10.001-2.3431 19.347-5.48 36.25-12.168l17.75-7.0229v-3.2248c0-7.3645-5.0891-22.894-10.568-32.249l-2.4625-4.2045-21.415 10.881c-11.778 5.9847-23.809 11.567-26.734 12.405-7.3541 2.1068-373.59 5.6135-380.79 3.646-8.8534-2.4177-18.814-8.4816-30.835-18.772l-4.9625-4.2479-1.5759 2.4051c-10.516 16.049-0.0557 39.9 22.349 50.959 22.687 11.198 87.078 18.849 95.21 11.313zm-118.68-11.488c-0.30789-0.3079-1.1148-0.0006-1.7931 0.6828-0.98026 0.9876-0.8654 1.1025 0.5598 0.5598 0.98622-0.3755 1.5412-0.9347 1.2333-1.2426zm-206.5-5.4681c4.1117-2.3513 13.22-8.0888 20.24-12.75l12.765-8.475-5.4741-5.1689c-8.16-7.8-40.61-28.4-44.56-28.4-0.54869 0-1.0064 2.1375-1.0171 4.75s-0.67143 9.25-1.4683 14.75c-5.0088 34.571 1.165 45.717 19.512 35.225zm1144-21.662 1.3156-11.063h4.3557c8.3306 0 13.296 3.2106 24.791 16.031 3.85 4.2936 8.2296 8.7696 9.7325 9.9465l2.7325 2.1399 13.927-7.5588c12.782-6.9375 14.407-7.5604 19.768-7.5786 31.731-0.1076 31.298 1.283 28.349-91.019-5.132-160.65 0.086-254.09 17.321-310.16l1.4443-4.6988-3.4093-2.3012c-17.874-12.065-36.849-62.701-30.875-82.392 0.819-2.6999 1.494-5.1974 1.5-5.55 0.01-0.3526-4.2052-2.4901-9.3581-4.75l-9.3689-4.1089h-20.395c-23.903 0-47.494 0.9635-122.37 4.9975-62.624 3.3741-90.392 4.6414-122.5 5.591-24.432 0.7225-23.96 0.5895-23.985 6.7672-0.1108 27.91-31.266 57.636-63.419 60.51l-7.0961 0.6343-0.6458 33c-0.8322 42.53-3.2733 75.892-10.829 148-8.0526 76.852-13.023 143.45-13.025 174.5-0.0006 11.799 4.3515 57.666 5.5907 58.92 2.187 2.2127 21.878-13.265 26.602-20.91 3.1176-5.0455 17.773 7.8146 24.236 21.267l3.7358 7.776 4.1677-3.1415c28.458-21.45 44.719-26.404 46.366-14.125l0.5653 4.2149 9.1184-0.043c9.0867-0.043 9.1326-0.055 13.239-3.75 2.2665-2.0391 9.8337-8.7845 16.816-14.99l12.695-11.282 5.1839 4.1054c6.6269 5.2482 32.135 26.101 40.934 33.463 5.1313 4.2935 6.7486 5.21 6.7441 3.8221-0.018-5.6579-3.5534-23.128-7.9365-39.222-9.51-34.918-9.3467-38.12 1.9424-38.089 10.163 0.028 37.058 26.043 91.107 88.125 9.7081 11.151 8.6838 11.814 10.93-7.0777zm-116.5-177.1c-55.436-3.9258-82.623-46.818-84.213-132.86-1.1245-60.865 9.1567-94.046 31.416-101.39 13.454-4.4395 136.55-6.9792 154.8-3.1937 41.139 8.5361 55.029 29.068 54.853 81.085-0.3305 98.04-5.4468 122.39-28.128 133.89-16.743 8.4843-106.07 24.082-128.73 22.477zm64.5-20.888c67.248-5.0815 84.187-29.199 78.996-112.48-4.8494-77.792-17.063-87.03-115-86.977-88.647 0.048-94.424 4.9791-94.274 80.477 0.2033 102.49 26.817 126.79 130.27 118.98zm-47.839-27.993c-36.894-5.1222-55.834-33.605-57.842-86.982-1.0683-28.405 5.2369-40.498 24.23-46.472 23.926-7.5256 87.542-0.054 128.36 15.075l7.0925 2.6289-0.033 33.134c-0.053 53.178-2.9269 61.35-25.36 72.103-17.156 8.223-55.229 13.459-76.446 10.513zm15.272-23.232c0.2881-1.7875 1.0109-6.85 1.6062-11.25s1.3103-8.7875 1.5889-9.75c0.4735-1.636-1.2562-1.75-26.561-1.75-14.887 0-27.067 0.2786-27.067 0.6192 0 1.3333 7.0851 12.055 9.9706 15.088 8.3374 8.7644 11.996 10.112 27.734 10.214l12.205 0.079 0.5238-3.25zm51.341-2.8827c7.2755-3.522 12.303-11.806 14.709-24.236l1.3294-6.8686-6.1564 0.7083c-14.979 1.7232-24.732 2.4766-32.387 2.5018-7.7137 0.025-8.2618 0.1685-8.7207 2.2771-0.9562 4.3941-3.5783 24.053-3.2517 24.38 3.4206 3.4207 28.135 4.3076 34.477 1.2373zm-53.589-43.77c2.517-1.5963 4.826-3.3063 5.1313-3.8002 0.511-0.8269-1.5543-28.202-2.8705-38.048l-0.5681-4.25h-26.309-26.309l-1.3799 4.75c-4.2839 14.746-0.8273 40.136 5.653 41.524 16.961 3.6323 40.789 3.5424 46.652-0.1759zm55.685-7.745 14.37-0.6555-0.6397-5.4429c-1.2286-10.453-6.4743-21.925-13.961-30.531l-3.1395-3.6089-14.5 2.45c-7.975 1.3475-15.512 2.6802-16.75 2.9616-2.2245 0.5058-2.25 0.7032-2.25 17.431v16.92l4.75 0.6248c2.6125 0.3436 5.425 0.7923 6.25 0.997s3.75 0.178 6.5-0.059c2.75-0.2374 11.466-0.7266 19.37-1.0872zm-1032.8 304.1c3.7968-2.5943 11.133-8.7198 16.303-13.612 10.685-10.112 10.59-10.081 16.429-5.4391 13.912 11.06 33.406 4.5061 36.033-12.113 0.76793-4.8579 0.59971-5.3165-9.4972-25.894-5.6534-11.522-10.691-22.094-11.196-23.493-0.90784-2.5201-0.77745-2.5962 13.71-8l14.63-5.4 0.2788-12.606 0.2788-12.606-4.2788-3.4885c-13.455-10.97-28.9-15.674-36.029-10.973-2.9098 1.9188-6.4817 5.9602-13.721 15.525-3.7552 4.9614-9.7044 10.655-11.123 10.646-0.22309 0-0.40695-7.3141-0.40858-16.25-0.005-28.145-9.2256-39.8-31.429-39.725-19.151 0.064-26.165 17.276-18.126 44.478 2.958 10.009 1.2275 11.483-13.494 11.494l-7.0507 0.01-2.2945 4.7228c-3.7423 7.7028-3.6003 19.082 0.36632 29.35 0.48614 1.2584-2.2485 2.6304-13.681 6.864-17.136 6.3454-16.144 5.5535-13.724 10.961 6.3859 14.263 17.039 23.315 23.203 19.715 12.284-7.1736 17.753-9.7132 18.197-8.4488 0.767 2.1889 6.1705 19.687 8.9829 29.089 5.9517 19.897 21.58 26.23 37.644 15.255zm-11.315-36.448c-25.685-10.041-38.544-34.4-25.622-48.538 29.39-32.2 62.84-21.4 62.84 20.3 0 24.238-16.116 36.444-37.223 28.192zm18.22-14.9c9.7089-4.8501 10.857-24.904 1.8819-32.86-5.6264-4.9875-15.983-5.8456-22.975-1.9033-2.424 1.3668-6.4323 3.4953-8.9073 4.73s-4.6541 2.333-4.8425 2.4407c-0.68298 0.3904 3.0757 11.87 5.3375 16.301 5.7845 11.334 19.168 16.455 29.505 11.291zm385.5 31.191 142-2.6265 11-3.5641c6.05-1.9602 13.925-4.8091 17.5-6.3308l6.5-2.7667-21 0.5657-21 0.5657-10-3.7824-10-3.7825-152.5 5.5706-152.5 5.5705-14.5-2.3814c-18.009-2.9578-21.717-3.079-22.25-0.7274-2.2969 10.132 20.658 15.726 66.25 16.145 10.175 0.094 82.4-1.0116 160.5-2.4561zm-177.42-31.713c10.256-6.9112 19.744-29.747 22.738-54.726 1.0178-8.4893-7.7332-402.25-8.9671-403.48-0.28629-0.2863-3.182 0.8059-6.4349 2.4271-14.789 7.3708-34.957 6.8118-49.137-1.362l-4.2229-2.4342-2.5634 3.0465c-6.51 7.7-5.99-5.1-5.99 148.8 0 148.47-0.0132 147.97 5.0907 191 10.873 91.656 27.72 131.4 49.487 116.73zm332.12 1.1577c42.338-8.9158 46.856-38.761 33.813-223.38-3.8762-54.868-4.7108-68.158-6.5002-103.5-1.2604-24.895-3.4818-89.679-3.5061-102.25l-0.01-3.8h-34.519-34.519l0.27024 198.75 0.27023 198.75 2.2636 8c6.9187 24.452 19.083 32.302 42.435 27.384zm-167.93-4.003c26.274-0.6152 62.049-1.4027 79.5-1.7498l31.73-0.7 0.25227-215.62 0.25228-215.62-3.1273-0.6254c-1.72-0.344-5.5464-0.6255-8.5032-0.6255-7.5654 0-40.45-3.4242-76.874-8.0048-46.012-5.7864-49.576-5.9881-105.86-5.9918h-51.864l0.58402 3.25c1.8816 10.47 1.7098 32.67-0.48172 62.25-2.3868 32.216-4.3081 378.47-2.1122 380.66 0.87803 0.878 29.149 3.6784 41.237 4.0848 10.513 0.3534 39.677-0.065 95.271-1.3668zm-82.27-137.2c-1.375-0.7322-4.2933-2.3044-6.4852-3.4938-2.1919-1.1895-5.3419-2.1652-7-2.1683-13.723-0.025-21.613-10.268-20.138-26.142 1.7504-18.834 14.252-44.51 21.906-44.992 17.256-1.0881 41.868 13.241 48.737 28.374 9.0403 19.917-19.773 57.605-37.02 48.422zm16.787-23.136 7.2866-3.4564-0.28659-9.7819-0.2866-9.7819-5.7167-2.8586c-8.0282-4.0144-20.473-4.8607-26.472-1.8003-7.9881 4.0752-13.475 20.163-8.2786 24.275 10.741 8.499 20.861 9.5196 33.754 3.4043zm-0.79-80.8c-11.126-7.599-16.945-34.445-19.175-88.46l-1.2024-29.121 2.7263-8.3792c1.4995-4.6086 3.735-10.179 4.968-12.379l2.2416-4 15.471-0.6822c8.509-0.3752 28.746-1.8516 44.971-3.2808 67.584-5.9536 74.229-5.0819 81.935 10.749 10.716 22.015 6.6556 86.421-7.7372 122.73l-2.9681 7.4872-19.365 1.6521c-71.009 6.0581-97.015 6.9995-101.86 3.6873zm106.67-18.78c9.2347-5.6308 14.965-26.864 17.289-64.059 1.659-26.557 1.4089-36.272-1.0831-42.065l-2.1232-4.9354h-32.312c-34.475 0-35.941 0.1819-40.461 5.0199-3.839 4.1096-7.9892 3.9489-16.648-0.6449-7.7184-4.0947-11.211-4.3861-22.833-1.9045-3.85 0.8221-8.0338 1.5026-9.2974 1.5121l-2.2974 0.017 0.2974 45.25c0.44187 67.234-3.2262 63.573 63.797 63.677 40.318 0.062 42.663-0.033 45.671-1.8677zm801.49-128.13 16.334-17.071 0.7473-5.6787c3.5398-26.9-4.8001-73.834-14.787-83.216l-2.2775-2.1396-17.341 4.0506c-238.5 55.81-417.3-17.21-557.64-227.59-54.39-81.54-111.2-205.42-171.15-373.2-60.2-168.49-101.89-243-135.96-243-64.4 0-134.88 127.63-213.41 386.5-52.55 173.21-127.79 287.7-227.08 345.54-60.41 35.19-68.54 43.72-70.99 74.46l-0.55784 7 22.622 20.5 22.622 20.5 8.1239-0.36137c16.777-0.74627 30.505-6.469 36.214-15.096 3.5436-5.3547 4.3106-15.508 4.366-57.793l0.04-33.25h8.8548c70.385 0 123.84-24.333 131.19-59.713 2.1825-10.513 1.3526-13.84-9.9956-40.067-9.8831-22.841-2.8485-27.807 37.701-26.613 17.103 0.50366 23.25 0.38407 23.25-0.45232 0-0.62535-5.625-11.567-12.5-24.314-7.1436-13.245-12.5-24.328-12.5-25.862 0-1.4771 0.28237-5.3871 0.62748-8.689l0.62748-6.0034 9.6225-0.59215c30.45-1.8738 57.872-22.501 64.071-48.194 3.0643-12.7 1.3947-25.815-6.6098-51.919-9.9196-32.35-2.4662-39.499 39.911-38.28 9.7625 0.28086 17.75 0.38871 17.75 0.23967s-6.543-7.6436-14.54-16.655l-14.54-16.384 0.29002-6.3455 0.29002-6.3456 9.7783-3.3144c52.296-17.726 68.467-48.068 51.925-97.425-3.9498-11.785-7.066-21.543-6.9249-21.684 0.14111-0.14112 9.6987-4.7996 21.239-10.352 11.54-5.5526 20.849-10.596 20.685-11.208-0.16346-0.61151-4.776-9.5967-10.25-19.967l-9.94-18.86v-11.11c0-10.174 0.14751-11.053 1.75-10.43 37.065 14.414 105.46 13.249 138.77-2.3632l8.2296-3.8565 2.7245 5.7002 2.7245 5.7002-13.973 28.926-13.973 28.926 23.106 7.5498 23.106 7.5498 0.13596 22.95c0.3889 65.646 21.848 104.8 67.158 122.54 5.154 2.0174 7.9319 3.6113 7.5078 4.3077-0.37028 0.60798-6.2066 8.191-12.97 16.851l-12.3 15.73 0.00044 9.2544 0.00044 9.2544 12.25 0.10897c19.378 0.17239 34.383 5.0277 45.068 14.582l4.8182 4.3087-18.103 30.427c-17.926 30.13-18.097 30.472-17.473 35 3.1584 22.92 12.481 37.82 43.513 69.542 35.588 36.379 40.709 45.178 43.385 74.531 2.7196 29.838 1.157 28.247 23.13 23.555 9.231-1.971 17.08-3.2398 17.443-2.8194 0.36274 0.42032 4.3222 11.623 8.7988 24.895 8.8203 26.15 17.831 49.408 21.696 56.004 2.4679 4.2111 15.278 12.658 62.784 41.4l13.81 8.3553-0.7879 9.0549c-6.3556 73.042 12.302 112.88 51.087 109.08 21.332-2.0903 30.698-12.52 34.596-38.524 2.5625-17.096 4.5063-24.002 7.8997-28.066l2.6968-3.2303 15.944 2.6147c46.991 7.7059 80.654 7.3694 182.44-1.824 123.91-11.191 133.75-8.0507 138.53 44.212 2.3513 25.664 7.1707 37.583 17.374 42.968 8.6239 4.5518 8.9778 4.3603 27.258-14.745zm-915.82-807.16c-22.23-34.22-34.38-58.34-34.38-68.24 0-8.3891 9.366-28.98 15.719-34.558 6.7629-5.9379 26.07 1.6657 39.227 15.448 4.4021 4.6115 4.0388 4.6612 16.478-2.2562 18.609-10.349 22.524-10.416 29.178-0.50573 10.455 15.571 13.575 29.368 8.8461 39.117-7.0574 14.55-47.144 48.659-66.653 56.715l-3.705 1.5298-4.7058-7.2446zm23.513-23.475c7.6459-6.1966 24.868-23.255 32.232-31.925l6.9267-8.1554-4.7779-6.5232c-5.8815-8.0299-4.666-8.0945-14.124 0.75056-14.141 13.224-17.634 13.52-32.654 2.7632-2.75-1.9694-8.3098-5.9656-12.355-8.8803-9.6694-6.9671-12.112-6.0863-14.26 5.1411-4.2757 22.357 25.341 57.908 39.012 46.829zm234.82 771.22c29.856-8.8664 24.909-72.878-6.9301-89.671-5.2943-2.7924 3.2701-2.896-139.79 1.6919-116.99 3.7519-112.61 3.7832-133.11-0.95-19.026-4.3948-30.99-4.0996-57.625 1.422-7.5732 1.57-20.351 4.2258-28.395 5.9018s-18.394 3.3482-23 3.716c-15.935 1.2723-14.418 20.2 4.0723 50.811l5.2503 8.6921 59.651-0.21018c71.629-0.25239 82.2 0.35604 167.15 9.6213 91.512 9.9807 139.78 12.817 152.72 8.9747zm633.83-75.072 33.518-9.5818 4.6424 1.5818c2.5532 0.86999 5.1789 1.5818 5.8347 1.5818s8.2918-8.3698 16.969-18.6l15.776-18.6-18.419-18.419-18.419-18.419-10.978-2.8875c-60.9-16.04-108.5-63.1-150.4-148.58-21.616-44.153-37.382-84.047-74.992-189.77-32.808-92.218-55.979-147.21-62.433-148.16-1.7037-0.2514-11.511-1.6054-21.793-3.0089-136-18.55-260.51-82.41-368.64-189.01-18.85-18.59-20.29-19.8-19.76-16.55 0.31708 1.925 1.0492 7.325 1.6269 12 4.7919 38.776 17.829 94.883 33.915 145.95 1.6378 5.1998 2.8187 9.6134 2.6243 9.8078-0.19442 0.19442-8.521-24.31-18.504-54.454-60.23-181.91-107.23-246.05-180.06-245.72-79.48 0.349-146.64 40.424-198.46 118.41-15.86 23.88-17.28 26.75-51.07 103.5-35.54 80.73-87.37 198.88-101.56 231.5-59 135.7-148.74 248.64-251.66 316.7l-17.25 11.4 0.01367 8.1979 0.01367 8.1979 40.283 17.75c45.25 19.94 42.74 19.27 61.44 16.24 63.88-10.36 122.03-68.6 173.72-173.99 11.61-23.69 41.81-103.17 129.54-341 61-165.38 115.86-239.72 181.54-246.04 42.69-4.108 85.34 61.36 146.95 225.54 75.79 201.99 139.16 342.74 185.62 412.23 81.78 122.32 178.78 191.64 290.88 207.77 22.792 3.2808 36.117 3.6955 123.77 3.8518l82.268 0.14666 33.518-9.5818zm-162-42.14c-27.324-1.4949-94.978-13.149-92.237-15.89 0.1637-0.16367 4.9984 0.21333 10.744 0.83778 25.845 2.8089 92.83-4.1854 166.35-17.37 38.422-6.89 35.093-6.6705 41.885-2.7626 7.4164 4.267 12.004 2.3786-49.243 20.273-58.818 17.185-53.755 16.211-77.5 14.911zm-119.5-24.12c-8.4915-3.3744-17.503-7.7636-11.5-5.6015 9.066 3.2655 23.705 9.3602 22.5 9.3675-0.825 0.005-5.775-1.6897-11-3.766zm-38-18.318c-64.4-36.35-109.4-78.31-155.2-144.85-30.33-43.98-51.47-88.98-89.36-190.16-18.52-49.45-58.99-164.62-58.15-165.47 0.19147-0.19147 3.3984 8.0838 7.1264 18.39 78.576 217.21 200.9 417.39 292.3 478.33 11.487 7.6586 12.75 9.1094 3.2775 3.7658zm-1026.4-161.85c38.476-45.022 74.145-89.711 95.906-120.16l9.46-13.24v-130.36-130.36l-9.75 0.81033c-12.782 1.0624-65.852 1.0385-89-0.04l-18.25-0.8503v203.81c0 169.66 0.22289 203.57 1.33 202.35 0.7315-0.80536 5.368-6.1893 10.303-11.964zm-37.83-395.98c24.264-10.325 79.284-16.998 140.28-17.013l20.57-0.01 9.0143 9.0917 9.0143 9.0917 9.1627-4.6018 9.1627-4.6018-0.0203-8.74-0.0203-8.74-51.017-76c-58.671-87.403-51.286-78.469-56.881-68.814-7.289 12.579-21.895 34.812-46.522 70.814-36.951 54.018-51.107 80.494-55.001 102.87l-0.6728 3.8658 2.9849-2.1254c1.6417-1.169 6.1173-3.4584 9.9459-5.0876zm-98.384 1218.4c-1.6576-3.9002-2.3829-6.8199-1.8305-7.3689 0.50321-0.5002 7.1822-5.6056 14.842-11.346l13.927-10.436 3.6752 5.6863c8.3214 12.875 19.84 16.81 25.51 8.7146 0.8031-1.1466 1.4588-1.8721 1.4571-1.6122-0.0092 1.4333-4.1291 21.438-4.4893 21.798-0.23608 0.236-5.7344-3.3596-12.218-7.9904-6.4841-4.6307-12.263-8.7099-12.842-9.0648-0.57927-0.3549-6.5056 3.5676-13.17 8.7167l-12.116 9.362-2.7454-6.4597z"/>
</svg>
