<?xml version="1.0" encoding="UTF-8" standalone="no"?>
<svg id="svg4396" xmlns:rdf="http://www.w3.org/1999/02/22-rdf-syntax-ns#" xmlns="http://www.w3.org/2000/svg" height="1868" viewBox="0 0 1483 1868" width="1483" version="1.1" xmlns:cc="http://creativecommons.org/ns#" xmlns:dc="http://purl.org/dc/elements/1.1/">
<path id="path4406" d="m499.2 1867c-27.298-2.286-39.975-8.9695-60.819-32.065-26.904-29.811-47.198-45.118-50.843-38.35-8.7219 16.196-65.286 47.434-90.54 50.002-45.25 4.6013-73-33.834-73-101.11 0-7.9468-0.35283-14.449-0.78408-14.449-0.43124 0-8.0404 2.4288-16.909 5.3973l-16.125 5.3973-14.075-9.3973c-16.412-10.957-14.31-10.445-21.943-5.3474-12.08 8.0669-13.185 14.36-7.0761 40.301 8.0091 34.009 0.30068 41.067-31.744 29.065-11.258-4.2166-8.3502-4.9533-29.967 7.593-16.005 9.2895-17.43 9.7368-25.264 7.9308-22.3-5.1411-41.101-29.609-54.998-71.576l-4.9275-14.9 3.6538-0.7c2.0096-0.3808 5.9037-0.7201 8.6537-0.754 14.22-0.1753 32.761-4.8402 38.32-9.6411l3.6797-3.1779 0.5-19.554 0.5-19.554 3-3.1929c14.886-15.843 38.322-9.7103 54.05 14.143 8.7817 13.318 15.055 17.802 26.155 18.693 4.9421 0.3967 6.2965 0.2072 6.3012-0.8816 0.003-0.7628 3.3737-108.02 7.4898-238.35s7.1508-237.26 6.7439-237.63c-0.40688-0.3661-4.3413-1.8465-8.7432-3.2898l-8.0034-2.6242h-38.497c-50.177 0-64-0.7-64-3.1 0-10.8 71.55-188.7 208.9-519.21l26.1-62.82v-49.024-49.024l-16-26.292c-8.8-14.46-16-26.5-16-26.75 0-0.55 49.68-44.78 50.29-44.78 0.23443 0 12.616 12.528 27.514 27.839l27.087 27.839-4.4327 5.9105c-13.407 17.877-13.861 40.909-1.0506 53.325l3.1915 3.0933 15.382-4.5041c18.633-5.4559 16.019-5.4542 30.969-0.0205l12.336 4.4836 20.626-6.6056 20.626-6.6056 28.17 8.4644 28.17 8.4644 18.309-11.887c21.835-14.176 21.726-9.3973 0.86471-37.81l-17.23-23.49 0.571-10c2.0276-35.511 15.915-53.131 49.619-62.959 29.396-8.5713 44.86-22.094 38.121-33.335-11.096-18.509-9.8127-34.195 3.9664-48.491l5.0096-5.1973-1.6879-6.8875c-5.6121-22.9 4.43-47.097 26.409-63.634l3.3183-2.4966-5.1708-5.353c-13.13-13.6-14.36-31.19-3.36-47.76 13.07-19.7 50.61-42.4 70.1-42.4 5.0868 0 5.0822 0.0171 1.4268-5.3198-19.037-27.793-20.344-72.509-3.0577-104.57 35.855-66.494 118.65-64.643 156.04 3.4872 5.043 9.1886 1.5311 10.272 30.572-9.4353 13.644-9.2593 26.664-18.057 28.933-19.55l4.1246-2.7149 10.194 1.0461c89.06 9.141 145.26 123.8 83.66 170.66-14.9 11.35-53.46 25.4-69.69 25.4-2.1349 0-2.1872 0.24968-1.6241 7.75 3.8028 50.654-47.09 94.44-109.68 94.362-16.784-0.021-16.413-0.13071-28.828 8.5139-4.2448 2.9557-7.8834 5.374-8.0858 5.374-0.56277 0 4.9664-25.09 6.2806-28.5 3.3034-8.5708 8.3248-9.5153 17.28-3.25l6.0744 4.25 14.085-0.13064c53.954-0.50044 75.25-16.491 84.165-63.198 5.95-31.18 11.26-41.16 21.9-41.16 23.186 0 47.908-9.1051 63.038-23.217 48.48-45.26-11.98-148.05-85.7-145.57-19.97 0.673-28.47 6.23-49.79 32.554-21.53 26.583-23.48 27.819-24.35 15.486-5.67-79.444-118.57-95.735-143.59-20.718-11.72 35.14-7.2167 61.075 18.007 103.7 5.614 9.4871 6.8273 12.217 5.758 12.954-2.0833 1.4365-17.283 0.16029-21.003-1.7635-14.128-7.3058-56.526 13.357-66.744 32.527-7.0454 13.219-4.6635 22.499 10.512 40.954l7.7326 9.4039-2.6694 2.1285c-1.4682 1.1707-8.4098 5.579-15.426 9.7962-26.278 15.795-33.517 38.688-17.184 54.337 3.5887 3.4382-0.25418 12.349-13.19 30.585-5.317 7.4956 2.2831 21.087 14.714 26.314 9.9744 4.1937 72.478 8.8522 75.696 5.6418 0.8034-0.80154 1.3146-6.2034 1.529-16.157 0.38-17.59-1.48-16.24 17.18-12.44 8.8053 1.7933 15.558 2.51 23.888 2.5354 10.571 0.0323 11.388 0.16351 9.1125 1.4629-3.4727 1.9829-19.804 7.4175-30 9.9831l-8.5 2.1389-0.28952 7.5488-0.28953 7.5488 7.8632 7.3911c8.1079 7.6211 29.788 24.741 48.216 38.074 32.936 23.83 33.971 27.625 20 73.367-5.5 18.008-10 32.836-10 32.951 0 0.11518-6.9808 4.8438-15.513 10.508-17.184 11.408-17.493 11.714-8.9722 8.9034 14.447-4.7662 28.943-4.9039 47.485-0.45123 5.775 1.3868 14.55 3.4932 19.5 4.6809 16.569 3.9756 26.685 3.3444 48-2.995 20.381-6.0613 32.296-7.1403 41.431-3.7516 5.4332 2.0156 5.1486 2.3352 8.9513-10.051 3.9056-12.722 4.1069-10.578-2.4794-26.399-5.01-12.04-12.4-31.38-12.4-32.46 0-1.8973 50.564-39.449 52.385-38.905 59.162 17.7 74.658 72.642 29.048 102.99l-8.43 5.6v6.2973c0 40.129 49.006 143.73 148.54 314.02 12.216 20.9 32.224 55.1 44.461 76 74.474 127.19 121.71 214.13 130.35 239.93 1.2381 3.6969 1.6505 8.6314 1.6505 19.75v14.822h-65.012-65.012l0.2622 236.79c0.249 224.75 0.3524 236.93 2.0354 239.5 2.858 4.3617 7.1412 3.4183 13.929-3.0681l3.7017-3.5375 18.184 8.1867c10.001 4.5027 18.335 8.0361 18.519 7.8521 0.184-0.1839 1.967-10.435 3.9622-22.781s3.8131-22.638 4.0397-22.873c0.2265-0.2346 7.3878 2.8726 15.914 6.9049 8.5261 4.0322 15.653 7.1492 15.837 6.9265 0.1842-0.2226 5.578-8.3556 11.986-18.073 18.274-27.711 41.148-57.189 54.466-70.189l4.9759-4.8574 1.4418 4.8574c0.7929 2.6715 4.064 13.745 7.269 24.607 6.9703 23.624 4.832 23.318 17.437 2.491 5.739-9.4825 11.49-18.941 12.78-21.019l2.3457-3.7782 18.22 14.699c21.926 17.689 20.682 16.733 21.139 16.25 0.2041-0.2159 2.7278-11.868 5.6082-25.892 2.8804-14.025 5.529-25.829 5.8859-26.231 0.5446-0.6138 54.577 34.52 57.586 37.445 0.55 0.5345-0.575 0.3207-2.5-0.475-6.4138-2.6514-44.49-18.968-45.121-19.335-0.5329-0.3105-4.9764 9.2488-21.866 47.04l-3.1029 6.9428-14.884-14.859-14.884-14.859-6.8213 6.065c-3.7518 3.3357-7.9464 7.2815-9.3214 8.7684s-7.7258 7.6005-14.113 13.586l-11.613 10.882-5.2244-20.234c-2.8734-11.129-5.5754-20.602-6.0045-21.052-0.429-0.4495-15.412 17.776-33.295 40.5-17.883 22.725-33.366 42.366-34.407 43.647l-1.8919 2.3299-11.826-9.1468c-6.5043-5.0307-11.972-9.0008-12.15-8.8226-0.1783 0.1783-0.7693 10.369-1.3134 22.647-0.544 12.277-1.1789 22.512-1.4108 22.744-0.2319 0.2319-9.7441-3.6291-21.138-8.5799-11.394-4.9509-20.862-9.0016-21.04-9.0016s-11.385 22.162-24.905 49.25-24.987 49.848-25.482 50.578c-0.7055 1.0406-3.753-0.1007-14.061-5.2659l-13.16-6.5944-6.7325 2.9059c-3.703 1.5982-10.463 4.521-15.023 6.4951l-8.2902 3.5894 4.1195-5.7293c2.2658-3.1511 8.4714-11.9 13.79-19.442 5.3189-7.5418 10.203-13.53 10.854-13.307 0.6507 0.2229 6.1929 4.3013 12.316 9.0631s11.282 8.5 11.464 8.3071c0.1821-0.1929 3.3025-10.1 6.9341-22.016l6.6029-21.665v-261.58-261.58h-489-489l0.25203 243.23 0.25202 243.23 11.893 9.2728c6.5412 5.1001 12.245 9.2729 12.674 9.2729 0.42963 0 7.7664-2.4477 16.304-5.4393l15.523-5.4393 13.803 12.852c7.5915 7.0684 13.968 12.688 14.17 12.488 0.20222-0.1998 1.1618-7.3824 2.1323-15.961 2.1306-18.833 0.71456-17.442 13.43-13.185 5.8007 1.9424 10.745 3.2102 10.988 2.8172 0.24285-0.3929 1.4041-5.871 2.5805-12.174 1.1764-6.3025 2.3599-12.236 2.63-13.185 0.39201-1.3778 4.0591 0.9534 18.181 11.558 9.7296 7.3064 18.214 13.598 18.855 13.982 0.64577 0.387 6.4354-2.5872 13-6.6784 6.5096-4.0569 11.981-7.2516 12.159-7.0994 0.17785 0.1523 3.2027 12.981 6.722 28.509 3.5192 15.528 6.5812 28.415 6.8044 28.638 0.22319 0.2232 10.661-4.1138 23.196-9.6376 12.534-5.5239 22.933-9.9005 23.108-9.7257 0.17478 0.1748-1.2915 8.7735-3.2585 19.108-1.967 10.335-3.1979 19.166-2.7355 19.624 1.4834 1.4706 31.812 14.77 32.591 14.291 0.4125-0.2538 0.75-1.8324 0.75-3.5081 0-7.4762 11.048-34.965 17.258-42.939 1.0034-1.2886 46.539-8.9297 53.038-8.9 1.7216 0.01 0.17683-258.33-1.6325-273-10.472-84.902-2.2804-100.45 55.837-106.01 9.878-0.9439 254.07 9.0116 259.25 10.569 0.99434 0.2991 1.25 39.52 1.25 191.76v191.38l8.75 0.63c30.675 2.2084 47.167 17.543 47.235 43.92 0.0179 6.9696-1.4601 6.9928 15.932-0.25 7.9242-3.3 14.912-6 15.528-6 0.61631 0 7.6308 6.069 15.588 13.487 17.124 15.964 14.536 15.276 19.761 5.2515 2.3614-4.5309 6.5142-12.063 9.2283-16.738l4.9348-8.5 0.0217 4.875c0.0137 3.0886 0.99788 7.0502 2.6858 10.811l2.6641 5.9363-7.296 7.345c-8.2333 8.2887-8.3616 8.9812-3.0106 16.251 10.698 14.535 35.109 14.949 50.668 0.8597l4.8104-4.3559 7.0966 6.7402c30.897 29.345 60.498 7.204 40.975-30.649l-6.2852-12.186 11.837-6.314c13.818-7.3706 13.218-6.1842 6.7229-13.291-8.8006-9.6293-19.18-12.658-27.774-8.1041-4.7715 2.5284-9.2288-5.8631-11.51-21.669l-0.6854-4.75h-13.822-13.822l-3.6863 4.0803c-12.228 13.535-10.542 30.854 2.5382 26.074 2.9784-1.0885 8.0585-2.9421 11.289-4.1192 10.108-3.6828 16.711 0.2107 23.602 13.917 10.707 21.295 8.4968 28.863-10.504 35.972-26.095 9.7634-44.091-4.3672-36.047-28.305 1.4564-4.334 2.5191-7.9674 2.3615-8.0741-15.052-10.194-20.53-10.097-27.374 0.483-5.3353 8.2476-5.7821 8.5036-3.8758 2.2212 0.79274-2.6125 1.4462-5.0948 1.4522-5.5162s1.5897-1.5191 3.5194-2.4393c2.3613-1.126 6.0877-5.1264 11.396-12.234 15.685-21.002 34.288-38.541 38.107-35.929 10.306 7.0505 70.874 52.594 70.924 53.33 0.036 0.529-3.11 6.5327-6.9904 13.342l-7.0552 12.38 3.143 7.5498c16.351 39.277-22.883 62.359-63.533 37.378-1.7185-1.0561-4.2346-0.3056-17.875 5.3318l-15.875 6.5609-8.1248-6.9168c-4.63-3.6-19.31-16.2-32.79-27.8-27.872-24.001-25.278-22.851-38-16.84-13.525 6.3898-24.86 21.946-30.069 41.267-1.1863 4.4-2.279 8.1355-2.4282 8.3011-0.1492 0.1657-5.7976-0.1787-12.552-0.7652-49.208-4.2727-106.24-3.1767-206.95 3.9772-15.125 1.0744-38.3 2.6179-51.5 3.43-21.71 1.3358-32.492 1.7828-71 2.9441-6.6 0.199-16.184 0.012-21.298-0.4167zm171.3-22c99.55-1.0823 181.11-1.975 181.25-1.9839 0.55727-0.036 0.20498-61.016-0.3525-61.016-0.33137 0-4.4939 1.3013-9.25 2.8918-14.434 4.8269-36.053 8.525-64.648 11.059-33.921 3.0056-55.924 3.5282-149 3.5387l-96 0.011-9.5-2.3851c-13.294-3.3376-32.978-10.174-49.8-17.295-7.865-3.3294-14.518-5.836-14.783-5.5702-0.2658 0.2658-2.0514 4.3296-3.968 9.0307-13.294 32.606 1.4496 63.316 30.551 63.637 2.475 0.027 85.95-0.8358 185.5-1.9181zm-350-14.374c26.053-7.0347 64.5-44.732 64.5-63.242 0-5.3126 0.81138-5.3118-9.77-0.01-24.839 12.445-55.85 20.258-82.865 20.877-13.043 0.2989-17.462-0.9793-39.15-11.325l-14.285-6.8145 0.65712 3.6944c7.8572 44.175 41.152 67.556 80.913 56.821zm698.09-26.741c9.4061-2.8408 11.969-12.475 5.4966-20.663-5.0536-6.3933-3.5468-6.4751-18.572 1.0089-14.778 7.3612-14.217 5.7758-5.157 14.56 7.9712 7.7293 8.7676 7.9518 18.232 5.0935zm-937.94-6.8478c4.0928-1.8105 6.8419-5.2193 14.852-18.416 0.89227-1.47 1.8506-1.2151 8.8952 2.3657 8.9692 4.559 27.274 1.6777 34.36-5.4087 0.72879-0.7288-8.1769-26.198-12.403-35.473l-3.465-7.6034 2.6225-2.0912c1.4424-1.1501 5.288-3.6255 8.5458-5.501 3.2578-1.8754 5.9281-3.7053 5.934-4.0665 0.038-2.3047-24.125-9.7853-31.739-9.8259-1.7875-0.01-3.2508-0.3549-3.2518-0.7674-0.0895-36.458-13.128-47.538-36.097-30.677l-4.912 3.5v11.322 11.322l14.25 8.3267c22.838 13.345 26.722 18.231 26.74 33.64 0.0182 15.406-3.1924 18.835-16.786 17.926-21.69-1.449-25.189-5.767-23.244-28.682 0.61967-7.3002 0.9776-13.422 0.79541-13.604-0.31243-0.3124-26.921 15.479-31.575 18.738-3.4684 2.4293 21.591 50.933 29.142 56.406 2.7322 1.9802 11.051 1.246 17.325-1.5291zm574.83-12.102c25.834-4.2528 31.131-4.4569 52.008-2.0041 13.883 1.6311 19.127 1.8842 23 1.1101 6.5797-1.3152 29.682-4.1974 68.441-8.5385 17.284-1.9358 31.603-3.6977 31.82-3.9154 1.3626-1.3626-41.718-8.7807-63.745-10.976-35.572-3.5459-49.889-3.8379-132.54-2.7026-43.978 0.6041-98.549 1.0966-121.27 1.0946-24.418 0-41.08 0.3666-40.749 0.902 3.5776 5.7887 73.499 20.682 124.56 26.532 26.158 2.9965 32.075 2.8446 58.475-1.5014zm-332.49-11.2c19.518-9.6279 27.355-23.666 23.051-41.287l-2.2936-9.3895-10.862 5.4474c-14.361 7.2022-15.787 6.9116-31.637-6.4484-8.8452-7.4557-8.1115-7.5497-8.4644 1.0854l-0.29381 7.1897-3.5 0.9114c-1.925 0.5013-7.7086 0.7307-12.852 0.5097l-9.3524-0.4018 0.65791 5.0507c3.5022 26.886 34.496 47.717 55.547 37.333zm-62.075-9.6904 2.4247-1.8638-4.7652-5.5777c-7.8994-9.2464-12.664-5.2044-5.1039 4.33 4.5342 5.7184 4.2225 5.5881 7.4444 3.1115zm-172.92-12.2c0-5.9-5.314-17.9-7.954-17.9-2.7506 0-2.8097 0.1093-2.0266 3.75 0.44364 2.0625 1.3277 6.3375 1.9646 9.5 1.0918 5.4216 8.0162 9.4336 8.0162 4.6446zm666-3.6989c0-0.4424 6.3-52.425 14-115.52l14-114.71v-45.805-45.805l-7.2462 1.8402c-16.062 4.0789-44.624 4.1578-122.25 0.3376-16.5-0.812-40.691-1.784-53.757-2.1599l-23.757-0.6836-3.9707 4.1741c-5.6808 5.9717-6.7282 10.886-7.4898 35.137-0.35408 11.275-1.0578 26.125-1.5637 33-0.50597 6.875-1.2266 29.365-1.6013 49.978l-0.68137 37.478 2.4102-1.739c10.361-7.4756 14.734-9.1102 24.054-8.9906 14.814 0.19 19.402 5.0483 18.634 19.73-1.4377 27.486-21.95 35.579-42.758 16.871l-5.02-4.5-0.0357 14.343c-0.0196 7.8885-0.45241 18.843-0.96174 24.343-5.9698 64.465-6.0424 74.725-0.61845 87.5 1.9848 4.675 3.8929 10.188 4.2401 12.25l0.63137 3.75h96.872c53.29 0 96.88-0.4 96.88-0.8zm-118.32-4.2876c-19.336-2.0421-47.474-8.2098-48.395-10.608-0.92202-2.4028 7.7973-100.72 9.0428-101.96 0.316-0.316 24.109-1.6139 52.873-2.8843s56.976-2.5857 62.693-2.923l10.394-0.6132-0.67726 18.791c-1.0184 28.256-5.5021 88.395-7.1603 96.041-0.42968 1.9811-1.1132 2.2523-5.719 2.2695-2.877 0.011-11.081 0.6812-18.231 1.49-13.824 1.5637-41.858 1.7675-54.82 0.3986zm66.767-17.021c1.4371-1.4388 6.7334-49.284 7.9263-71.604l0.49263-9.2172-3.683-0.7828c-4.9521-1.0524-73.188-0.9994-90.444 0.07l-13.761 0.8531 0.26125 40.147 0.26126 40.147 23 0.5755c29.172 0.7298 75.144 0.6158 75.947-0.1884zm15.55-158.1c-78.371-9.7026-95.768-10.92-119.6-8.3675l-6.3988 0.6853v-55.58-55.58l13.75 0.022c88.53 0.1395 157.16 10.538 147.37 22.33-2.2997 2.771-4.1938 15.047-5.1917 33.649-1.8128 33.792-4.8288 49.54-11.516 60.134-3.0988 4.9088-1.9708 4.743-18.415 2.7071zm15.176-25.091c-2.5754-10.342-1.8176-46.931 1.4602-70.5l0.59106-4.25h-64.114-64.114l-0.009 7.75c-0.01 8.6905-1.1618 23.372-3.6124 46.03-0.90896 8.404-1.4786 15.45-1.2658 15.658 0.50706 0.4952 49.223 4.9227 88.387 8.0329 17.05 1.3541 32.8 2.6265 35 2.8277s5.1773 0.4414 6.6161 0.5339l2.6161 0.1681-1.5564-6.25zm64.197 201c1.8812-13.333 9.3968-104.78 12.267-149.25 3.8363-59.453 3.0086-205.27-1.1743-206.88-8.1316-3.1203-91.272-11.914-138.46-14.645-85.877-4.9698-104.73-3.4542-151.5 12.18l-7 2.3399 0.0276 63c0.0308 70.061-0.16618 67.253 7.5479 107.64 7.5636 39.597 8.313 52.511 5.4042 93.132-1.5706 21.933-5.9865 72.509-7.0822 81.114l-0.62181 4.8832 5.6536-0.4689c11.064-0.9175 16.753-8.8778 19.51-27.297 0.49386-3.3 1.1792-34.8 1.5229-70 1.3316-136.35 5.2612-213.05 11.257-219.73 5.4921-6.1138 31.991-9.769 70.781-9.7634 20.512 0 38.894 0.8394 89.5 4.0728 17.875 1.1421 41.937 2.3788 53.472 2.7481l20.972 0.6715 3.7662 26.385 3.7662 26.385-12.988 105.75-12.988 105.75v33.115 33.115h12.886 12.886l0.59965-4.25zm-207.25-139.6c3.3492-0.7319 3.3224-0.7556-5.5244-4.8974-11.401-5.3378-11.257-5.3959-7.1026 2.8531l3.5327 7.0151 2.8644-2.1177c1.5754-1.1648 4.3788-2.4487 6.2298-2.8531zm677.87-403.7c0-0.807-14.874-28.49-23.69-44.09l-7.4357-13.158-10.687 5.4077c-39.806 20.142-84.811 10.969-129.66-26.426l-5.9683-4.9769-8.7636 8.3397c-29.18 27.769-68.234 41.388-119.16 41.554-34.014 0.1108-55.831-9.5521-88.951-39.396l-7.5624-6.8144-5.815 4.7436c-71.241 58.115-214.86 61.963-258.02 6.9127-7.0164-8.949-5.1481-8.8919-15.295-0.4673-43.893 36.444-83.608 46.205-135.35 33.265-49.432-12.362-91.049-33.023-95.914-47.616-0.1805-0.5415-13.413 6.0343-29.405 14.613-47.172 25.304-53.999 27.207-97.332 27.136-60.447-0.1-102.62-9.922-126.82-29.537-3.4744-2.8162-6.5015-4.936-6.7269-4.7106-2.4752 2.4752-31.05 64.488-33.886 73.539l-0.70498 2.25h603.57c331.96 0 603.57-0.3 603.57-0.6zm-750-43.301c28.339-6.5347 51.652-21.16 73.347-46.015 4.2595-4.8799 4.8611-5.2472 6.4263-3.9234 51.401 43.476 54.36 45.278 82.727 50.404 54.536 9.854 120.46-6.9561 168.44-42.95 5.2392-3.9306 10.093-7.5042 10.786-7.9415 0.81116-0.5118 5.4474 2.21 13.018 7.6426 74.648 53.566 164.27 46.814 209.89-15.812l2.077-2.8512 5.6349 3.2239c6.4722 3.703 18.951 13.262 32.66 25.018 16.332 14.006 31.416 19.897 57 22.263l12.5 1.156 18.5-8.3115c10.175-4.5713 18.813-8.5865 19.196-8.9227 0.4-0.3-58.4-112-130.6-248.1l-131.28-247.5-13.413 0.2233c-7.3774 0.12282-31.863 0.68519-54.413 1.2497-50.708 1.2695-170.32 1.2981-241 0.0577-29.15-0.51154-117.19-1.6937-195.64-2.6271l-142.64-1.697-3.5145 2.1721c-26.83 16.57-83.2 130.59-164.2 332.12-20.114 50.042-51.462 132.05-54.855 143.5-2.4743 8.3516 44.265 27.952 79.869 33.493 70.141 10.916 120.16 0.048 162.27-35.258l9.2902-7.79 5.7272 4.407c55.853 42.978 117.58 63.065 162.19 52.779zm-3.8582-97.29c-12.41-6.1426-17.096-24.45-15.19-59.341 1.4675-26.867 1.7699-24.385-3.2019-26.287-47.296-18.094-93.174-58.033-92.99-80.953 0.3712-46.261 176.28-222.13 232.41-232.36 13.438-2.4498 39.436 17.396 121.68 92.889 100.79 92.55 134.15 129.77 134.15 149.72v8.5413l-4.25 1.6969c-43.962 17.553-67.648 41.394-82.743 83.287-2.8736 7.975-5.6121 15.175-6.0855 16-0.49126 0.8561-0.87379-16.896-0.89114-41.356-0.04-61.21-3.7-70.27-57.11-141.64-51.61-68.95-84.42-98.91-99.77-91.08-22.44 11.45-124.79 117.07-134.57 138.88l-1.9213 4.283 10.409 81.457 10.409 81.457 8.5119-0.018c4.6816-0.01 63.404-1.5548 130.5-3.4334 67.091-1.8786 122.14-3.2624 122.32-3.0752 1.4564 1.4564-11.218 19.378-14.102 19.941-2.0117 0.3921-224.92 3.6846-244.71 3.6143-6.6501-0.024-9.4485-0.4997-12.858-2.1874zm-14.51-106.55c-3.2801-11.445-5.7642-36.33-4.4618-44.696 0.98824-6.348 2.4951-6.0602-16.316-3.117-8.9956 1.4075-22.431 3.0892-29.856 3.7372-7.425 0.64802-13.68 1.3167-13.901 1.4861-0.81721 0.62773 11.301 15.514 16.263 19.978 14.441 12.992 50.332 29.804 48.271 22.611zm358.87-38.7c15.542-8.9417 15.797-8.5482-5.5357-8.5282-20.102 0.0189-27.679 1.1034-37.214 5.3261l-5.75 2.5464v13.136 13.136l19.25-9.9319c10.588-5.4625 23.75-12.521 29.25-15.685zm-426-19.475c4.4-0.52196 14.75-1.2714 23-1.6653l15-0.7163 14-16.449c85.375-100.31 139.9-153.69 156.95-153.66 21.487 0.0435 84.208 60.761 170.05 164.62 7.9908 9.6679 8.0024 9.6768 10.064 7.7408 1.9321-1.814 3.7145-1.9383 27.807-1.9383 25.708 0 25.74-0.003 24.314-2.0394-21.11-30.14-202.22-205.41-224.2-216.97-20.56-10.82-73.53 28.91-151.38 113.53-51.25 55.69-90.68 112.37-75.85 109.01 1.2375-0.28016 5.85-0.93646 10.25-1.4584zm359.22 132.72c2.5112-5.6375 4.7262-10.438 4.9224-10.667 0.19613-0.2291 0.3566 4.3834 0.3566 10.25v10.667h-4.9224-4.9224l4.5658-10.25zm-239.22-28.5c-4.4-0.1653-9.0125-0.53334-10.25-0.8178l-2.25-0.5172v-50.283-50.283l3.5-12.4c4.7074-16.671 4.4095-23.962-1.2434-30.432l-2.25-2.57h13.656c10.793 0 17.658 0.67815 32.743 3.2347 18.111 3.0692 20.418 3.2355 45.087 3.25l26 0.0153 8-2.9222 8-2.9222 28.75-0.39644 28.75-0.39645v42.518c0 47.978-0.30394 50.871-8.0482 76.619-4.1186 13.693-8.6747 22.933-12.565 25.482-4.3923 2.8779-107.35 4.7133-157.89 2.8144zm137.67-15.135c18.897-0.79801 15.985 3.0949 20.313-27.154 2.0059-14.021 4.3932-28.871 5.3053-33 1.2592-5.7006 1.7329-13.967 1.9685-34.351l0.31024-26.843-3.7817 0.59539c-4.6498 0.73206-63.902 6.9961-85.782 9.0686-24.072 2.2802-44.315 1.9472-67.75-1.1146l-4.75-0.62059v56.129c0 30.871 0.1125 56.193 0.25 56.272 2.5015 1.4294 105.62 2.2138 133.92 1.0187zm-99.17-16.87c-6.325-0.1552-12.512-0.51759-13.75-0.8053l-2.25-0.5231v-39.012c0-36.224 0.12506-39.062 1.75-39.704 2.282-0.90239 120.87-0.95816 121.77-0.0573 0.3792 0.37837-0.48684 12.528-1.9245 27-2.856 28.748-4.5733 48.054-4.5867 51.562l-0.01 2.26-44.75-0.21c-24.61-0.12-49.93-0.34-56.25-0.5zm22.75-18.412 10.25-1.1524v-9.2259-9.2259l-9.555-0.70138c-5.2552-0.38576-11.558-1.3041-14.005-2.0407-4.2651-1.2836-4.4713-1.2498-4.9581 0.81437-0.27935 1.1845-1.5732 7.0512-2.8753 13.037l-2.3674 10.883 6.6304-0.61817c3.6468-0.33999 11.243-1.1367 16.88-1.7706zm68.61-6.13c2.1459-10.811 2.2527-10.286-2.4791-12.179-8.8481-3.5403-38.841-7.3697-38.911-4.9679-0.0143 0.4935-0.8388 6.4098-1.8323 13.147l-1.8064 12.25h21.695 21.695l1.6376-8.25zm1.64-27.5c0-0.41063-1.162-4.2356-2.5821-8.5l-2.58-7.75h-19.016-19.016l2.0153 3.25c4.1667 6.7195 13.713 11.095 27.681 12.689 9.6606 1.102 13.5 1.1916 13.5 0.31478zm-56-4.25c0-2.1829-0.47664-3.0054-1.75-3.0199-0.9625-0.0109-7.825-0.67699-15.25-1.4801-19.644-2.1248-21-2.0602-21 1 0 1.6792 0.57452 2.5302 1.75 2.592 0.9625 0.0506 8.725 0.88811 17.25 1.8612 8.525 0.97305 16.288 1.8317 17.25 1.908 1.3086 0.10382 1.75-0.61779 1.75-2.8612zm92-284.52c120.18-0.87221 221.76-1.8256 225.75-2.1187l7.25-0.53287v-36.334-36.334l-5.25-1.7121c-2.8875-0.94166-7.8837-3.0028-11.103-4.5804-3.22-1.58-6.03-2.87-6.25-2.87s-0.4 2.44-0.4 5.41c0 11.39-8.52 42.59-11.63 42.59-0.72349 0-7.7412-1.5339-15.595-3.4087-48.239-11.515-53.019-11.498-60.939 0.22515-1.7404 2.576-3.2961 4.8507-3.4572 5.0551-0.16103 0.20433-2.3438-0.83049-4.8506-2.2996-24.824-14.548-51.666-15.587-79.032-3.0593-26.031 11.916-23.469 11.897-48.332 0.36509-37.425-17.358-46.646-16.934-77.454 3.5661l-8.5903 5.7161-7.8118-6.4485c-38.701-31.947-49.28-33.194-95.07-11.205l-13.258 6.3666-14.242-6.0438c-21.593-9.1631-37.154-14.706-45.446-16.188-3.8382-0.68596-7.4724 1.9547-22.77 16.545l-9.9737 9.5126-13.526-8.2871c-18.16-11.12-19.98-11.55-31.53-7.42-24.025 8.6057-28.669 9.4192-34.27 6.0038-7.8-4.74-15.59-23.07-20.84-48.99-3.299-16.28-1.938-14.707-10.9-12.594l-7.49 1.76v15.77c0 23.213-2.1897 48.726-5.6165 65.44-1.6969 8.2763-1.8446 8.0983 10.449 12.594 18.465 6.7535 54.715 11.819 99.668 13.927 28.256 1.3251 93.792 1.2397 322.5-0.42024zm-86.89-58.42c35.1-18.44 58.86-24.62 71.46-18.56 9.4255 4.5335 9.0552 4.6793 9.6978-3.8175 0.57982-7.6666 3.362-15.13 6.8001-18.241 2.7924-2.5271 2.5469-2.8957-3.8149-5.7289-24.607-10.959-82.711-17.565-103.75-11.797-15.716 4.309-37.331 16.241-43.083 23.782-3.1518 4.1322-3.4801 3.7847 4.9356 5.224 18.377 3.1429 35.782 14.501 45.295 29.559 1.5688 2.4833 2.9003 4.5158 2.9587 4.5168 0.0584 0.00099 4.3334-2.2197 9.5-4.9349zm340.54-41.6c18.591-11.33 12.661-39.06-11.363-53.139-13.638-7.9924-36.855-5.3019-44.865 5.1991-17.678 23.177 30.067 63.883 56.228 47.94zm-221.25-7.8211c8.2122-6.7292 11.473-19.042 11.892-44.9l0.21-12.99-4.5-1.38c-20.5-6.2986-51.7-9.9563-110-12.896-44.98-2.2679-77.501-6.1357-96.984-11.535-8.6449-2.3956-7.6182-3.1947-13.571 10.563-8.5852 19.84-15.811 44.496-14.241 48.589 0.31464 0.81995 7.8603 5.9193 16.768 11.332 20.895 12.696 20.165 12.756 60.493-4.9281 20.267-8.8868 24.73-9.7853 45.034-9.0643 48.527 1.7231 77.138 11.92 85.678 30.535l2.2276 4.8557 6.2892-2.2828c3.4591-1.2556 8.2754-3.9104 10.703-5.8997zm-450.17-18.197c3.3105-0.85783 9.1664-2.967 13.013-4.6871l6.9942-3.1274-0.65061-6.5629c-3.3048-33.337-44.183-34.509-53.011-1.5198l-1.594 5.9568 3.4485 3.0538c9.0058 7.9751 19.134 10.168 31.8 6.8865zm394.42-71.879c2.8328-0.86879 6.2011-2.4302 7.4849-3.4698l2.3344-1.8902-2.485-2.1196c-15.671-13.367-66.184-22.591-91.324-16.676-7.5876 1.7852-7.5942 1.7944-8.475 11.841l-0.75264 8.5841 8.0336 0.63924c7.0756 0.56301 41.105 3.7759 52.034 4.9128 8.1062 0.84326 28.032-0.25131 33.151-1.821zm769.05 1332.9c-0.6365-2.9736-1.972-15.719-3.2335-30.86l-0.6549-7.86-12.862 19.301c-10.249 15.38-13.004 18.907-13.56 17.36-7.5644-21.053-22.343-51.484-33.127-68.211-1.7304-2.6842-1.6904-2.6752 2.4121 0.5425 11.521 9.0361 26.667 26.042 32.19 36.142l2.8542 5.2193 3.7769-5.3169c12.815-18.04 27.019-36.817 27.85-36.817 2.4898 0-0.6473 58.867-3.68 69.053l-1.3239 4.4469-0.6421-3zm-77.358-36.293-18.161-14.649 1.9671-2.7626 1.9671-2.7626 17.694 14.132c9.7315 7.7727 18.112 14.506 18.623 14.963 1.1289 1.0092-1.2755 5.9043-2.8488 5.7999-0.5945-0.04-9.2533-6.6639-19.242-14.721zm-35.3 6.3v-3.5h8.5 8.5v3.5 3.5h-8.5-8.5v-3.5zm-354.5-38.954c-3.3-0.6964-10.5-2.4929-16-3.9922-11.177-3.0469-15.664-3.0475-55.5-0.01-10.175 0.7764-20.319 1.4211-22.542 1.4327l-4.0419 0.021-6.1792-31.75c-3.3986-17.462-6.4512-33.352-6.7837-35.31-0.93631-5.5138 2.0805-25.481 7.0921-46.94 7.5674-32.403 7.442-30.665 7.4486-103.25v-64.7h-14-14v-2.3372c0-1.2855-1.1659-8.598-2.5909-16.25-4.0052-21.508-3.1726-33.394 2.8446-40.605l2.2463-2.692 43.5 4.4254c23.925 2.4339 50.925 5.203 60 6.1533 26.822 2.809 68.506 2.3977 103.5-1.0211 15.4-1.5046 34.479-3.0195 42.398-3.3666l14.398-0.631-0.6149 2.9121c-0.3381 1.6016-1.5635 10.112-2.7229 18.912-3.0962 23.499-6.0371 28.431-21.181 35.517l-6.4176 3.0032-1.1959 30.24c-0.6577 16.632-2.0803 45.09-3.1614 63.24-5.8244 97.787-5.5657 100.28 11.498 111 3.3 2.0718 7.6137 5.0368 9.5859 6.589l3.5859 2.8221-6.6095 33.796-6.6096 33.796-55.976 0.1562c-41.853 0.1168-57.49-0.1633-61.976-1.11zm110.24-13.796c-0.2614-0.6875-1.0647-4.5574-1.7849-8.5997-1.6275-9.1337 0.1761-8.682-24.598-6.1611-49.664 5.0535-61.477 4.2256-144.17-10.104-16.126-2.7942-29.512-4.8878-29.747-4.6525-0.57309 0.5731 2.6985 24.093 3.4645 24.906 0.33085 0.3514 20.852 1.185 45.602 1.8525s61.65 1.7771 82 2.4658c52.559 1.7787 69.831 1.8517 69.239 0.2928zm-33.794-34.347c10.461-1.6268 21.314-5.0651 26.299-8.3318l3.257-2.1343-64 0.2817-64 0.2817-17.802-3.2198c-9.7911-1.7709-24.793-4.8438-33.338-6.8286-17.114-3.9752-18.272-3.9829-12.379-0.083 12.424 8.2222 25.104 10.753 78.267 15.62 18.561 1.6992 37.686 3.9623 42.5 5.0291 9.9449 2.204 24.464 1.9874 41.196-0.6147zm-17.229-24.334c10.569-1.6492 22.044-3.4922 25.5-4.0955l6.2845-1.0969 0.1298-6.1883c0.071-3.4036 1.0839-9.5544 2.25-13.668 1.7305-6.105 2.1224-10.241 2.1324-22.5 0.01-8.2611 0.4459-29.42 0.9761-47.02 1.8311-60.788 3.0822-118.76 2.5739-119.27-0.6845-0.6845-32.228 1.387-57.562 3.7801-54.033 5.1041-86.2 4.4137-111.65-2.3964l-5.1476-1.3776-5.6024 5.6615-5.6024 5.6615v93.04 93.04l14.75 3.2722c82.102 18.214 92.117 19.22 130.97 13.158zm-44.7-21.2c-54.944-4.9694-69.895-6.4848-70.562-7.1519-0.55141-0.5514 11.91-75.512 12.656-76.13 0.22297-0.185 5.5804 0.3289 11.905 1.142 16.359 2.103 67.446 2.0748 83-0.046 6.325-0.8623 11.601-1.4675 11.724-1.3448 0.1235 0.1227 0.8984 16.622 1.7221 36.665 0.8236 20.043 1.7294 39.705 2.0127 43.692l0.5152 7.25-5.2373-0.1162c-2.8804-0.064-24.362-1.846-47.737-3.9602zm26-14.485c4.675-0.7777 9.85-1.7929 11.5-2.256l3-0.842v-24.694-24.694l-10 0.7592c-18.262 1.3864-68.135 0.8306-76.583-0.8534l-7.5831-1.5117 0.43054 17.577c0.33184 13.548 0.0679 19.28-1.1512 25.009-1.9266 9.0533-3.7061 7.8097 14.526 10.151 30.844 3.9613 48.065 4.3156 65.861 1.3552zm22.917-82.835c-0.9648-0.9166-34.765-2.7367-65.917-3.5496-61.308-1.5999-64.148-4.0572-65.655-56.805-0.63413-22.196-0.58037-23.25 1.1862-23.25 1.0177 0 9.8234 1.5715 19.568 3.4923l17.718 3.4924 37.342-2.4386c58.324-3.8087 78.781-4.9398 79.335-4.3862 0.2813 0.2813-3.0562 14.648-7.4167 31.926s-8.936 36.027-10.168 41.664c-2.1131 9.6716-3.6039 12.123-5.9922 9.8542zm4.1-45.6c0-14.85-0.1684-27-0.3743-27-0.2058 0-2.3433 0.7076-4.75 1.5724-26.063 9.3652-79.409 9.8693-109.9 1.0385-10.181-2.949-9.2158-4.1922-6.9174 8.9058 3.4943 19.914 3.7111 32.409 0.65697 37.873l-2.5767 4.6102h61.93 61.93v-27zm58-78.117v-15.117l-2.25 0.6332c-24.835 6.989-80.06 8.3704-148.75 3.7209-37.833-2.5608-66.981-4.1059-77.619-4.1143l-8.1192-0.01-1.1211 8.75c-0.61659 4.8125-1.4146 11.562-1.7733 15l-0.6522 6.25h120.14 120.14v-15.117zm-911.26 293.25c-8.553-9.4671-7.6452-19.196 5.7038-61.131 8.6568-27.194 9.2712-31.295 10.713-71.5 3.6785-102.59 1.7682-131-8.8084-131-0.72242 0-5.3605-48.605-4.8816-51.158 0.34403-1.8338 1.618-4.4652 2.8309-5.8475l2.2054-2.5133 15.5 3.5029c22.777 5.1474 32.507 4.8023 83-2.9445 34.385-5.2755 41.81-5.9525 64.5-5.8813 33.643 0.1057 56.537 3.9607 67.354 11.342l2.1982 1.5-2.4695 8.5c-7.3465 25.286-12.788 59.07-15.544 96.5-0.56685 7.7-1.0325 39.98-1.0347 71.733l-0.004 57.733 5.25 2.6514c2.8875 1.4582 7.229 4.0082 9.6478 5.6666l4.3978 3.0152-0.63717 13.286c-0.93095 19.411-3.7352 36.596-8.7572 53.665l-1.986 6.75h-112.84-112.84l-3.4957-3.8693zm225.52-30c0.31604-9.2517 1.0823-16.558 2.0556-19.599 1.546-4.8307 1.5436-4.8466-0.63013-4.2454-19.962 5.5208-63.925 9.0923-125.68 10.21l-36.5 0.6607-9.435-3.1813c-5.1892-1.7497-15.614-6.0261-23.167-9.5032l-13.732-6.3221-1.1623 6.115c-0.63928 3.3632-1.4131 13.877-1.7195 23.365l-0.55722 17.25h105.01 105.01l0.50388-14.75zm-107.26-31.2c0-2.7147-0.30912-3.0015-3.25-3.016-1.7875-0.01-14.275-0.6766-27.75-1.484-35.587-2.1322-37-2.094-37 1 0 1.6815 0.57294 2.5282 1.75 2.586 0.9625 0.047 14.8 0.8857 30.75 1.8631s30.462 1.8386 32.25 1.914c2.9749 0.1253 3.25-0.1171 3.25-2.8631zm24 0v-3h-9-9v3 3h9 9v-3zm44 0v-3h-11.5-11.5v3 3h11.5 11.5v-3zm-19.008-15.006c25.989-1.5991 31.545-4.1448 38.815-17.784 7.4938-14.06 7.5176-14.342 7.9376-93.96l0.37582-71.25h-92.981-92.981l-0.80448 6.75c-1.4594 12.245-1.0362 132.74 0.49603 141.25 4.1103 22.823 14.593 30.107 46.149 32.07 8.525 0.5305 21.125 1.5815 28 2.3357 14.961 1.6413 43.659 1.9011 64.992 0.5884zm-51.99-11.1c-10.281-0.8161-44.791-5.4648-48.25-6.4995-1.1303-0.3381-1.75-1.5241-1.75-3.3491 0-1.5541-0.73167-6.3613-1.6259-10.683-8.5288-41.214-0.77348-47.356 63.165-50.031 42.083-1.7603 59.248 16.524 59.443 63.321l0.0173 4.1474-6.2666 1.0913c-14.888 2.5926-45.405 3.5365-64.733 2.0022zm18.25-15.503c20.212-0.34 36.75-0.8703 36.75-1.1786s-2.719-8.2433-6.0423-17.634c-3.3232-9.3901-6.2341-17.636-6.4686-18.323-0.33106-0.9706-8.9329-1.25-38.489-1.25-29.598 0-38.14 0.278-38.41 1.25-0.78586 2.8276-3.6225 29.604-3.6068 34.046l0.017 4.7958 9.75-0.5442c5.3625-0.2993 26.288-0.8224 46.5-1.1623zm-75.25-105.7v-30.8l60.25 0.5289c52.228 0.4586 74.75 1.0638 74.75 2.0089 0 0.136-2.4901 6.9462-5.5335 15.134-6.1361 16.507-11.174 33.041-12.078 39.639l-0.59155 4.3163h-58.398-58.398l-0.00019-30.813zm106.75 9.5632c3.0802-6.8266 4.6655-12.844 5.6642-21.5l0.54804-4.75h-50.981c-28.039 0-50.987 0.3375-50.995 0.75s0.98404 7.1625 2.2043 15l2.2186 14.25 10.546 0.085c5.8001 0.047 19.321 0.6553 30.046 1.3528s25.846 1.3344 33.602 1.4154l14.102 0.1472 3.0456-6.75zm56.584-89c0.34674-7.5625 1.2977-16.675 2.1133-20.25 0.81555-3.575 1.4986-6.8784 1.518-7.341 0.0193-0.4625-21.227-0.6407-47.215-0.3959-54.622 0.5145-64.56 1.6416-113.58 12.882-7.9386 1.8202-9.8806 1.9578-13 0.9207-2.017-0.6705-10.354-1.4723-18.527-1.7818l-14.86-0.5626 0.55151 2.8894c0.30333 1.5892 1.3542 8.4019 2.3352 15.139l1.7836 12.25h99.127 99.127l0.63045-13.75zm318.06-1027.5c3.6689-2.1517 7.1976-4.7016 24.086-17.405 7.83-5.8897 8.2146-5.9662 6.2213-1.2366-2.9772 7.0638-15.383 16.14-25.719 18.816-8.2314 2.1314-8.5033 2.1211-4.5891-0.17442z"/>
</svg>
