<?xml version="1.0" encoding="iso-8859-1"?>
<!-- Generator: Adobe Illustrator 16.0.4, SVG Export Plug-In . SVG Version: 6.00 Build 0)  -->
<!DOCTYPE svg PUBLIC "-//W3C//DTD SVG 1.1//EN" "http://www.w3.org/Graphics/SVG/1.1/DTD/svg11.dtd">
<svg version="1.1" id="Layer_1" xmlns="http://www.w3.org/2000/svg" xmlns:xlink="http://www.w3.org/1999/xlink" x="0px" y="0px"
	 width="792px" height="612px" viewBox="0 0 792 612" style="enable-background:new 0 0 792 612;" xml:space="preserve">
<path style="fill-rule:evenodd;clip-rule:evenodd;" d="M221.664,292.573c-5.957,7.428-13.402,9.495-23.035,9.118
	c-13.028-0.509-26.146,1.265-39.719,2.09c0,14.969-0.1,29.714,0.045,44.457c0.063,6.571-1.295,8.48-7.745,8.911
	c-14.718,0.985-29.439,1.94-44.167,2.777c-2,0.114-4.042-0.522-6.066-0.812c-0.035-0.819-0.069-1.64-0.104-2.458
	c11.523-0.756,23.047-1.511,34.571-2.266c-0.048-0.675-0.095-1.351-0.143-2.025c-11.255,0.583-22.51,1.163-35.264,1.822
	c0-11.378-0.003-22.753,0.003-34.128c0.001-1.376,0.137-2.756,0.075-4.128c-0.335-7.465-1.842-9.104-9.318-8.657
	c-11.889,0.711-23.755,1.807-36.135,2.781c0,7.422,0,14.953,0,22.484c-0.727,0.088-1.456,0.176-2.184,0.264
	c-0.754-4.101-1.507-8.2-2.572-13.996c0,8.624,0,15.549,0,24.195c1.384-2.918,2.03-4.278,2.808-5.919
	c0.764,0.568,1.466,0.817,1.544,1.195c0.396,1.908,0.871,3.85,0.88,5.781c0.067,15.179-0.002,30.357,0.045,45.536
	c0.045,14.606-0.008,29.216,0.363,43.814c0.159,6.246,1.338,12.461,1.947,18.7c0.34,3.49,2.082,4.531,5.534,4.397
	c7.547-0.292,15.115-0.33,22.667-0.146c9.938,0.243,19.866,1.093,29.8,1.133c9.517,0.04,19.036-0.837,28.556-0.895
	c6.235-0.038,12.471,0.896,18.712,0.984c11.926,0.169,23.854,0.046,35.783,0.036c1.186-0.001,2.419,0.146,3.55-0.118
	c9.442-2.201,9.419-2.225,9.927,7.225c0.093,1.721,0.4,3.431,0.697,5.87c23.055,0.76,45.78,1.708,68.516,2.203
	c26.393,0.574,52.795,0.762,79.194,1.09c6.082,0.075,12.478-2.14,18.698,3.205c-3.147,0-5.515,0.001-7.881,0
	c-25.18-0.007-50.362,0.109-75.541-0.069c-13.71-0.099-27.418-0.639-41.123-1.087c-13.947-0.454-27.9-0.89-41.822-1.771
	c-1.6-0.101-4.059-2.846-4.352-4.651c-1.439-8.852-1.208-8.456-9.949-8.062c-6.235,0.281-12.525-0.95-18.801-1.197
	c-4.904-0.194-9.826,0.134-14.741,0.15c-12.733,0.042-25.467-0.104-38.197,0.101c-9.802,0.157-19.596,1.002-29.395,1.044
	c-9.272,0.039-18.546-0.576-27.82-0.88c-0.949-0.031-1.903,0.105-3.561,0.208c2.438,3.495,3.308,7.876,8.879,4.497
	c1.248-0.756,3.947,0.883,6.01,1.427c-3.358,9.631-6.624,12.173-14.019,9.951c-2.278-0.685-4.436-3.396-5.613-5.706
	c-1.417-2.781-1.73-6.125-2.524-9.239c-2.955,0.396-4.984,0.381-6.812,0.978c-3.3,1.075-6.029,3.236-4.139,6.999
	c2.042,4.067-1.717,6.043-3.166,6.039c-3.647-0.013-7.288-1.591-10.67-3.329c7.991-1.543,12.759-7.262,13.343-16.082
	c0.283-4.275-0.234-9.379,1.895-12.598c4.777-7.226,3.872-14.391,2.57-21.977c-0.228-1.326,0.388-2.798,0.614-4.203
	c-0.577-0.048-1.155-0.095-1.731-0.143c0,6.85,0,13.699,0,20.55c-0.627,0.048-1.253,0.096-1.881,0.145
	c-0.648-2.312-1.812-4.612-1.859-6.937c-0.232-11.938-0.331-23.887-0.182-35.827c0.172-13.782,0.989-27.562,0.883-41.338
	c-0.079-10.292-1.487-20.569-1.704-30.866c-0.122-5.785,0.103-11.321-5.033-15.292c-0.775-0.6-1.549-1.238-2.415-1.678
	c-5.506-2.793-5.643-6.146-0.413-9.847c8.159-5.777,16.409-11.435,24.409-17.425c9.128-6.837,18.021-13.988,27.022-20.993
	c18.127-14.107,36.332-28.117,54.343-42.372c4.721-3.736,8.823-8.248,13.274-12.333c0.818-0.75,1.948-1.16,2.934-1.726
	c0.409,0.363,0.818,0.726,1.228,1.089c-2.446,2.914-4.5,6.314-7.402,8.664c-18.925,15.325-37.975,30.499-57.104,45.569
	c-16.605,13.081-33.39,25.933-50.028,38.97c-1.432,1.123-2.367,2.879-4.727,5.839c9.317,0,16.866,0.101,24.41-0.024
	c10.929-0.181,21.867-0.296,32.777-0.88c7.566-0.405,15.076-1.769,22.64-2.317c17.821-1.292,35.667-2.243,53.488-3.546
	c10.521-0.77,21.022-1.869,31.508-3.039c1.468-0.164,2.933-1.414,4.167-2.439c9.204-7.637,17.659-16.477,27.763-22.611
	c6.275-3.811,14.957-4.232,22.673-4.941c8.505-0.782,17.723,1.813,25.604-0.523c19.121-5.673,38.973-2.212,58.138-6.602
	c10.184-2.332,20.956-2.116,31.47-2.96c1.579-0.127,3.199,0.238,4.83,1.4c-0.624,0.29-1.247,0.58-2.438,1.134
	c4.363,0,8.182,0,11.995,0c-0.819-0.475-1.753-1.021-4.177-2.432c10.038-2.049,18.54-3.988,27.126-5.427
	c3.133-0.525,6.465,0.142,9.706,0.265c-1.611,3.141-2.687,6.749-4.935,9.337c-6.575,7.567-13.637,14.711-20.452,22.072
	c-0.871,0.941-1.417,2.182-2.872,4.48c29.582-1.888,57.983-3.7,86.491-5.521c-0.571,2.615-1.048,4.796-1.541,7.049
	c-18.244,1.028-36.826,1.93-55.381,3.236c-4.015,0.283-7.932,2.005-11.878,3.113c-0.746,0.209-1.567,1.1-2.112,0.924
	c-8.252-2.653-6.395,3.223-6.501,7.55c-0.542,22.131-1.352,44.181,0.954,66.371c1.937,18.638,1.12,37.56,1.552,56.354
	c0.211,9.212,0.226,18.441,0.847,27.627c0.287,4.227,1.819,8.37,3.173,14.219c9.377,0,18.975-0.235,28.556,0.046
	c23.545,0.694,47.081,1.661,70.624,2.421c3.511,0.112,7.043-0.505,10.559-0.437c11.396,0.22,22.802,1.075,34.181,0.789
	c12.106-0.305,24.184-1.712,36.288-2.399c1.32-0.075,2.729,1.42,4.096,2.187c-0.924,1.077-1.81,3.045-2.78,3.088
	c-7.364,0.331-8.534,3.96-6.518,10.312c0.47,1.479-1.251,3.651-1.965,5.506c-1.023-1.513-2.839-2.987-2.909-4.542
	c-0.155-3.4,0.575-6.84,1.064-11.385c-13.133,0-26.919-0.096-40.702,0.031c-10.67,0.099-21.347,0.872-32.003,0.622
	c-11.701-0.274-23.376-1.539-35.075-2.072c-10.185-0.462-20.389-0.51-30.584-0.731c-6.106-0.132-12.215-0.201-18.32-0.381
	c-8.533-0.252-8.532-0.284-10.385,9.87c1.967-2.975,3.377-5.107,4.787-7.239c0.402,0.192,0.805,0.385,1.207,0.576
	c-0.287,1.646-0.572,3.291-0.801,4.598c2.337,0.134,5.021-0.277,7.225,0.568c2.376,0.911,4.107,3.642,6.487,4.364
	c1.845,0.559,4.177-1.95,6.102,1.186c1.248,2.033,3.609,3.384,6.027,5.534c-6.272,0.315-11.444,1.429-16.213,0.492
	c-2.812-0.554-4.988-4.354-7.839-7.065c-0.366,2.21-0.794,4.798-1.383,8.362c-1.287-2.223-2.105-3.635-2.949-5.089
	c-0.496,0.965-1.023,1.989-1.603,3.113c-2.688-1.976-5.354-3.934-7.452-5.476c0-3.53,0.745-7.013-0.267-9.875
	c-0.657-1.859-3.75-3.646-5.976-3.98c-3.382-0.509-4.29-1.942-4.293-5.012c-0.008-9.373-0.224-18.746-0.262-28.118
	c-0.051-12.85-0.013-25.698-0.013-39.586c-19.337,0-37.468,0-56.479,0c3.277-4.945,7.8-4.191,11.665-4.208
	c11.25-0.045,22.506,0.626,33.75,0.434c8.871-0.151,10.433-2.772,9.955-14.319c-0.477,2.249-0.875,4.318-1.36,6.368
	c-0.828,3.502-2.654,5.176-6.673,5.092c-12.784-0.268-25.578-0.1-39.242-0.1c-3.694-32.615,0.15-65.106-1.73-97.37
	c-2.384-0.667-4.614-1.29-6.844-1.913c0.071-0.575,0.142-1.151,0.212-1.727c13.129-0.981,26.258-1.962,39.388-2.943
	c0.09,0.507,0.182,1.015,0.272,1.521c-9.041,4.9-19.822,2.288-29.32,5.216c0.055,0.502,0.108,1.004,0.161,1.506
	c10.38-0.79,20.765-1.543,31.138-2.423c1.076-0.092,3.024-1.014,2.99-1.423c-0.551-6.785,5.838-8.656,10.024-13.688
	c-33.378,1.5-65.578,2.949-97.779,4.396c-0.051-0.678-0.101-1.355-0.152-2.034c2.986-0.51,5.96-1.375,8.96-1.476
	c25.807-0.869,51.622-1.548,77.429-2.425c4.297-0.146,8.646-0.632,12.84-1.562c7.705-1.708,10.992-8.53,16.491-14.793
	c-4.906,0-8.696-0.313-12.418,0.066c-7.537,0.767-15.021,2.042-22.556,2.843c-4.083,0.433-8.246,0.104-12.334,0.507
	c-5.423,0.536-10.789,1.754-16.216,2.135c-8.786,0.615-17.631,0.462-26.402,1.212c-16.573,1.415-33.095,3.435-49.671,4.803
	c-7.325,0.604-14.731,0.158-22.097,0.353c-1.874,0.049-4.296,0.108-5.503,1.213c-8.413,7.704-16.571,15.684-24.812,23.576
	L221.664,292.573z M377.548,383.779c0.377-4.547,0.249-8.554,1.107-12.338c2.678-11.786,1.111-13.481-10.596-10.605
	c-0.347,0.086-0.635,0.4-0.966,0.617c-1.726,6.635,2.654,13.692-0.628,20.211c-0.717,0.035-1.433,0.071-2.149,0.105
	c-0.469-6.724-0.938-13.449-1.413-20.271c-2.588,0.271-5.061,0.529-8.207,0.857c0,2.453-0.177,4.782,0.045,7.072
	c0.282,2.897,2.076,6.252,1.13,8.551c-2.691,6.543,1.504,5.75,5.223,5.786C366.519,383.817,371.943,383.779,377.548,383.779z
	 M379.163,342.329c-1.945-3.506-9.356-2.924-10.241-1.365c-2.469,4.347-2.499,10.08-3.564,15.65c3.336,0,5.09,0.193,6.788-0.036
	c5.417-0.734,10.504-3.602,16.33-2.146c0.903,0.227,3.4-2.03,3.531-3.306c0.448-4.378,0.172-8.829,0.172-14.116
	C387.436,338.948,383.687,340.479,379.163,342.329z M354.709,334.088c3.982,0,7.674,0.146,11.353-0.025
	c13.431-0.629,13.246-0.653,12.104-14.143c-0.365-4.318-2.879-4.458-5.918-4.609c-3.38-0.17-4.982,1.275-4.94,4.82
	c0.04,3.381-0.36,6.769-0.567,10.153c-0.507-0.005-1.013-0.011-1.521-0.016c-0.39-3.628-0.361-7.379-1.375-10.823
	c-0.414-1.403-3.198-3.104-4.712-2.936c-1.924,0.212-5.102,2.078-5.202,3.419C353.588,324.542,354.353,329.235,354.709,334.088z
	 M119.173,329.378c-3.33,1.541-7.738,2.55-7.805,3.796c-0.263,4.803,0.046,10.026,1.883,14.354c0.704,1.661,6.076,1.817,9.316,1.8
	c3.852-0.021,7.698-0.969,11.915-1.567c0-5.885,0-11.65,0-17.667c-1.421,0.223-2.376,0.513-3.324,0.497
	c-8.696-0.146-9.338,0.614-8.414,9.164c0.29,2.686,0.045,5.428,0.045,8.145c-0.563,0.035-1.127,0.071-1.691,0.105
	C120.516,342.371,119.934,336.739,119.173,329.378z M389.817,311.207c-2.112,4.871-9.835,0.956-8.864,7.917
	c0.561,4.023,0.687,8.107,1.017,12.293c3.702,0,6.743,0,9.728,0c2.292-18.78,0.808-31.026-4.343-37.679
	c-6.104,3.775-6.053,9.632-5.386,15.818C384.539,310.096,386.899,310.592,389.817,311.207z M150.387,328.524
	c-4.663,0.504-8.212,0.886-12.938,1.396c0.847,5.212,1.22,10.304,2.698,15.053c0.494,1.585,3.997,3.39,5.783,3.086
	c1.716-0.292,3.996-3.048,4.255-4.961C150.807,338.511,150.387,333.783,150.387,328.524z M392.193,382.721
	c0-6.846,0.271-13.41-0.199-19.922c-0.111-1.553-2.61-3.955-4.171-4.088c-1.513-0.129-4.545,2.066-4.639,3.4
	c-0.48,6.784-0.222,13.618-0.222,20.609C386.581,382.721,389.091,382.721,392.193,382.721z M402.581,460.125
	c0.496-0.01,0.994-0.021,1.49-0.03c-0.646-37.165-1.292-74.329-1.938-111.493c-0.667,0.013-1.334,0.026-2,0.041
	C400.95,385.803,401.765,422.965,402.581,460.125z M378.498,312.288c-0.326-5.892-0.559-10.122-0.859-15.552
	c-3.713,1.105-8.49,1.147-9.627,3.203c-1.53,2.766-1.45,7.847,0.226,10.478C369.411,312.26,374.406,311.67,378.498,312.288z
	 M139.8,352.96c0.058,0.636,0.115,1.271,0.173,1.906c4.01-0.194,8.047-0.182,12.008-0.726c1.03-0.142,2.48-1.951,2.604-3.114
	c0.449-4.239,0.523-8.53,0.546-12.802c0.062-10.954,0.021-21.91,0.021-33.074c-2.576-0.143-4.451-0.247-7.504-0.417
	c5.595,2.575,7.546,5.75,5.301,10.777c-0.517,1.158-0.182,2.726-0.141,4.101c0.264,8.903,0.842,17.812,0.611,26.7
	c-0.049,1.887-2.674,4.469-4.71,5.35C146.05,352.813,142.797,352.592,139.8,352.96z M134.045,313.71
	c-11.606,1.125-12.075,1.601-11.149,9.992c0.547,4.971,4.281,3.227,6.764,3.053C135.118,326.371,135.558,324.757,134.045,313.71z
	 M363.647,341.182c-8.848-1.286-8.964-1.187-8.984,6.819c-0.002,1.182-0.425,2.556,0.037,3.504c0.875,1.795,2.251,3.347,3.418,4.998
	c1.843-1.65,4.701-3.001,5.292-5.019C364.313,348.411,363.647,344.877,363.647,341.182z M151.684,323.525
	c-1.975-4.364-2.551-8.145-4.708-9.63c-1.802-1.24-7.206-0.711-7.92,0.653c-1.466,2.801-0.857,6.687-1.147,10.755
	C142.633,324.693,146.132,324.242,151.684,323.525z M353.448,312.387c4.536-0.514,9.479-0.515,9.568-1.175
	c0.537-3.962,0.226-8.125-0.509-12.089c-0.122-0.656-5.365-1.213-5.472-0.893C355.666,302.34,354.8,306.619,353.448,312.387z
	 M110.831,326.3c0.633,0.381,1.267,0.764,1.9,1.146c2.098-1.202,5.585-2.068,5.975-3.682c0.628-2.605-0.505-5.811-1.543-8.514
	c-0.236-0.617-4.501-0.533-4.567-0.243C111.758,318.716,111.349,322.52,110.831,326.3z M400.109,312.86
	c0.551-7.134,1.073-13.886,1.689-21.86c-2.409,2.172-3.855,3.478-4.692,4.231C403.244,300.399,396.171,307.6,400.109,312.86z
	 M159.879,299.907c-0.112-0.439-0.226-0.878-0.34-1.317c-6.965,0.517-13.931,1.033-20.896,1.549
	c0.035,0.468,0.069,0.936,0.104,1.403C145.79,300.997,152.834,300.452,159.879,299.907z"/>
<path style="fill-rule:evenodd;clip-rule:evenodd;" d="M221.553,292.672c0.834,1.701,2.326,3.378,2.385,5.106
	c0.265,7.608,0.114,15.23,0.114,22.847c-0.605,0.071-1.209,0.144-1.815,0.215c-0.351-3.506-0.703-7.012-1.127-11.254
	c-0.871,3.951-1.585,7.196-2.299,10.44c-0.56-0.072-1.12-0.143-1.682-0.215c-0.349-1.575-0.698-3.151-1.388-6.269
	c0,5.268,0,8.978,0,12.687c0.116,0.009,0.23,0.017,0.347,0.023c0.312-1.631,0.624-3.263,0.937-4.896
	c0.688-0.13,1.376-0.26,2.065-0.39c0.593,2.538,1.184,5.078,1.819,7.8c0.506-0.393,1.17-0.908,2.562-1.988
	c1.203,36.947,2.385,73.331,3.569,109.715c-0.601,0.049-1.201,0.097-1.802,0.146c-0.61-2.274-1.221-4.548-2.205-8.215
	c0,10.661,0,19.885,0,30.429c56.646,0.908,113.282,1.815,169.916,2.725c0.058,0.21,0.115,0.42,0.173,0.63
	c-5.573,0.999-11.156,2.908-16.719,2.849c-30.626-0.324-61.247-1.204-91.873-1.741c-17.71-0.311-35.43-0.159-53.135-0.609
	c-4.404-0.112-9.111-1.056-13.02-2.966c-2.172-1.061-4.112-4.862-4.214-7.505c-0.452-11.597-0.195-23.223-0.195-36.29
	c-29.499,0-58.676,0-87.854,0c0.005-0.795,0.011-1.591,0.015-2.386c15.323,0,30.644-0.016,45.966,0.005
	c12.463,0.016,24.93,0.205,37.386-0.054c1.573-0.032,4.457-2.353,4.432-3.565c-0.223-10.938-0.959-21.865-1.583-33.509
	c-8.78,0-17.27,0-25.757,0c-0.025-0.524-0.05-1.049-0.075-1.574c6.237-0.377,12.478-1.078,18.713-1.037
	c5.773,0.041,7.75-2.862,7.685-7.998c-0.246-19.023-0.55-38.045-0.768-57.067c-0.024-2.138,0.365-4.28,0.562-6.42
	c0.53-0.015,1.061-0.029,1.591-0.043c0.531,1.714,1.062,3.429,1.114,3.597c1.767-3.756,4.014-8.533,6.266-13.315
	C221.664,292.573,221.553,292.672,221.553,292.672z"/>
<path style="fill-rule:evenodd;clip-rule:evenodd;" d="M311.772,295.13c-1.345,0.416-2.69,1.188-4.037,1.191
	c-8.18,0.019-16.365,0.007-24.536-0.298c-4.003-0.15-4.658,2.143-4.656,5.187c0.013,16.798-0.305,33.606,0.199,50.389
	c0.68,22.566,2.112,45.11,2.999,67.672c0.336,8.548,0.055,17.122,0.055,25.685c-0.615,0.209-1.228,0.419-1.842,0.629
	c-0.573-1.876-1.59-3.737-1.65-5.629c-0.724-22.778-1.354-45.558-1.904-68.34c-0.29-12.043-0.446-24.091-0.528-36.137
	c-0.073-11.023,0.187-22.05-0.031-33.069c-0.059-3.037-1.302-6.051-2.001-9.076c-0.691,0.057-1.382,0.114-2.073,0.17
	c-0.451,4.749-1.207,9.492-1.294,14.248c-0.25,13.589-0.318,27.184-0.29,40.775c0.045,22.717,0.002,45.438,0.449,68.147
	c0.182,9.282,1.38,18.562,2.539,27.79c0.17,1.36,2.681,3.453,4.122,3.464c10.18,0.076,20.362-0.305,30.543-0.53
	c0.567-0.013,1.221-0.113,1.693,0.116c9.198,4.48,18.669,2.765,28.212,1.582c4.222-0.524,8.581,0.127,12.877,0.11
	c5.771-0.024,11.542-0.15,17.312-0.287c7.1-0.168,14.205-0.301,21.298-0.628c3.873-0.179,4.476,1.388,3.137,4.426
	c-39.861,0-79.512,0-119.194,0c-0.216,1.428-0.492,3.252-0.753,4.979c-0.791,0.089-1.415,0.297-1.513,0.149
	c-6.263-9.285-14.942-5.275-23.069-4.212c-6.797,0.889-13.584,1.866-20.394,2.655c-0.61,0.071-1.347-0.954-3.509-2.596
	c5.304-1.103,9.137-2.048,13.022-2.674c6.372-1.026,12.839-1.571,19.12-2.971c1.359-0.303,2.998-3.372,2.993-5.163
	c-0.051-20.526-0.417-41.052-0.655-61.579c-0.166-14.413-0.281-28.826-0.383-43.24c-0.046-6.598-0.008-13.195,0.557-20.198
	c0.59,2.133,1.625,4.249,1.702,6.399c0.794,21.744,1.561,43.491,2.061,65.243c0.248,10.791-0.662,21.635,0.046,32.381
	c0.562,8.52,2.791,16.93,4.28,25.388c0.668-0.014,1.336-0.028,2.005-0.043c0-3.71,0.108-7.425-0.019-11.13
	c-0.606-17.683-1.47-35.358-1.873-53.045c-0.479-21.083-0.654-42.174-0.813-63.262c-0.065-8.686,0.188-17.378,0.433-26.063
	c0.092-3.25,0.984-5.039,5.31-5.035c11.516,0.012,23.03-0.969,34.551-1.423c1.862-0.073,3.752,0.532,5.389,0.788
	c0,2.811,0,4.993,0,7.175L311.772,295.13z"/>
<path style="fill-rule:evenodd;clip-rule:evenodd;" d="M594.143,278.256c-0.627,14.739-1.581,29.474-1.801,44.219
	c-0.275,18.626,0.033,37.26,0.147,55.891c0.009,1.319,0.694,2.635,0.703,3.954c0.006,0.944-0.597,1.891-0.927,2.835
	c-0.584-0.037-1.169-0.072-1.753-0.109c0-3.981-0.089-7.964,0.024-11.942c0.111-3.998-0.388-7.359-6.646-7.072
	c7.279-1.94,5.84-7.049,5.825-11.518c-0.065-19.557-0.107-39.114-0.291-58.67c-0.044-4.608-0.605-9.212-1.034-15.32
	c-3.974-0.339-8.692-0.741-13.945-1.188c6.287-12.303,18.029-5.754,26.519-8.914c-0.081-0.589-0.162-1.177-0.245-1.766
	c-8.337,0.972-16.674,1.944-25.012,2.916c-1.53,5.477-6.541,2.064-9.54,4.026c0.857,0.305,1.829,0.651,2.801,0.997
	c0.012,0.495,0.022,0.99,0.033,1.487c-5.854,0.579-12.292,2.988-17.434,1.343c-9.63-3.083-18.73-0.218-28.019-0.178
	c-7.219,0.033-14.435,1.788-21.646,1.751c-3.183-0.017-6.352-2.578-9.688-5.193c4.398-0.658,8.784-1.417,13.197-1.955
	c16.924-2.061,33.842-4.167,50.789-6.022c9.954-1.09,19.955-1.766,29.938-2.568c4.689-0.378,9.961,0.608,13.932-1.245
	c4.232-1.974,7.928-6.104,10.646-10.114c6.947-10.249,13.411-20.841,19.688-31.52c3.489-5.932,6.017-12.422,9.334-18.465
	c6.056-11.036,12.327-21.956,18.633-32.851c1.23-2.125,3.026-3.925,4.561-5.875c0.488,0.241,0.976,0.482,1.463,0.724
	c-0.782,1.97-1.333,4.076-2.386,5.888c-6.872,11.817-14.089,23.437-20.74,35.375c-9.406,16.888-18.385,34.014-27.628,50.992
	c-2.505,4.601-6.247,8.76-7.69,13.635c-1.327,4.485-0.498,9.671-0.139,14.512c0.046,0.617,2.968,1.308,4.605,1.468
	c9.412,0.925,18.84,1.701,28.261,2.527c-0.008,0.51-0.017,1.02-0.025,1.529c-8.635,0-17.276-0.174-25.903,0.09
	c-3.235,0.1-6.439,1.22-10.395,2.025c-0.298-5.564-0.658-12.28-1.015-18.916c-4.432,0-8.869,0-14.538,0
	c3.307,1.492,5.359,2.417,7.411,3.344L594.143,278.256z"/>
<path style="fill-rule:evenodd;clip-rule:evenodd;" d="M500.785,348.478c-11.622,0.46-23.243,0.929-34.867,1.373
	c-2.366,0.09-4.759,0.303-7.1,0.069c-3.554-0.354-5.949-2.34-5.885-6.102c0.275-16.479,0.774-32.954,1.004-49.433
	c0.082-5.894,4.823-5.863,8.28-6.318c14.026-1.851,28.125-3.152,42.194-4.684c7.401-0.807,7.838-0.434,7.778,6.845
	c-0.034,4.21-0.007,8.422-0.007,12.633c-0.521,0.024-1.041,0.049-1.561,0.073c-0.389-4.35-0.777-8.698-1.206-13.513
	c-1.635,0.838-3.011,1.89-4.552,2.275c-8.432,2.106-9.175,2.975-8.756,11.448c0.134,2.712,0.387,5.419,0.634,8.788
	c3.951-0.436,7.501-0.828,11.049-1.22c0.173,0.574,0.345,1.148,0.517,1.721c-2.071,0.678-4.097,1.612-6.222,1.979
	c-5.002,0.86-6.987,3.452-5.981,8.558c0.645,3.274,0.664,6.669,1.12,9.987c0.73,5.334,3.854,7.84,8.852,6.337
	c1.589-0.477,3.416-3.274,3.503-5.088c0.381-7.982,0.164-15.992,0.164-23.991c0.557-0.043,1.11-0.085,1.667-0.128
	c0.173,1.967,0.376,3.931,0.515,5.899c0.592,8.442,1.073,16.892,1.781,25.323c0.359,4.288-1.422,6.196-5.634,6.36
	c-2.484,0.097-4.953,0.584-7.43,0.896L500.785,348.478z M458.627,331.541c0.651,2.627,0.655,8.345,2.534,9.048
	c4.062,1.521,9.086,0.469,13.25,0.469c0-9.108,0-16.575,0-24.036c-10.971,0.182-10.973,0.182-11.674,10.477
	c-0.039,0.588,0.171,1.436-0.139,1.714C461.867,329.87,460.893,330.257,458.627,331.541z M479.438,317.078
	c0,6.192-0.41,12.271,0.256,18.229c0.192,1.725,3.268,3.84,5.398,4.441c2.304,0.65,5.049-0.259,7.311-0.46
	c0-6.677,0.289-13.471-0.111-20.225c-0.231-3.913-3.2-4.823-6.748-3.791C483.687,315.812,481.834,316.369,479.438,317.078z
	 M458.136,322.336c0.413-0.027,0.827-0.055,1.241-0.081c0.936-6.204,1.871-12.408,2.809-18.612c0.539,0.078,1.079,0.154,1.618,0.232
	c-0.199,2.738-0.399,5.475-0.646,8.865c4.361-0.198,8.285-0.375,12.06-0.547c0-5.821,0-11.058,0-15.663
	c-5.11-1.561-9.727-2.97-13.785-4.209c1.032,2.173,2.035,4.283,3.436,7.233c-2.607-0.239-3.843-0.352-5.497-0.502
	C458.948,307.012,458.542,314.674,458.136,322.336z M479.45,312.068c3.451,0,6.924,0.231,10.335-0.13
	c1.137-0.121,3.001-1.751,3.013-2.71c0.062-5.343-0.342-10.692-0.687-18.228c-5.291,2.819-10.699,3.922-12.221,6.967
	C478.037,301.68,479.45,307.024,479.45,312.068z M491.622,344.562c-0.049-0.633-0.098-1.267-0.146-1.9
	c-5.32,0.439-10.644,0.878-15.965,1.316c0.042,0.534,0.084,1.067,0.126,1.603C480.965,345.241,486.294,344.901,491.622,344.562z"/>
<path style="fill-rule:evenodd;clip-rule:evenodd;" d="M725.703,212.419c-11.105-29.198-22.211-58.397-33.542-88.191
	c-8.419,12.915-16.518,25.338-24.617,37.76c-0.682-0.435-1.364-0.87-2.047-1.305c7.628-12.8,15.253-25.601,23.945-40.189
	c-5.845,0-9.967-0.319-14.021,0.068c-7.561,0.724-15.086,1.825-22.618,2.826c-17.91,2.377-35.814,4.79-53.724,7.185
	c-24.848,3.323-49.688,6.728-74.554,9.906c-6.04,0.772-12.189,0.649-18.266,1.2c-25.183,2.282-50.365,4.57-75.527,7.058
	c-9.647,0.954-19.237,2.496-28.866,3.667c-2.008,0.245-4.07,0.036-6.108,0.036c-0.045-0.591-0.09-1.182-0.134-1.773
	c6.26-1.011,12.487-2.308,18.784-2.975c14.019-1.483,28.093-2.473,42.107-3.997c15.81-1.719,31.567-3.895,47.369-5.692
	c7.817-0.889,15.703-1.186,23.521-2.083c19.139-2.194,38.248-4.636,57.383-6.875c18.342-2.145,36.73-3.932,55.04-6.327
	c9.334-1.221,18.49-3.771,27.816-5.081c6.986-0.982,14.131-0.778,21.175-1.42c4.529-0.413,5.909,1.996,7.163,5.767
	c6.387,19.211,12.882,38.391,19.667,57.463c2.894,8.13,6.667,15.943,9.875,23.966c1.055,2.636,1.59,5.48,2.362,8.229
	C727.159,211.902,726.432,212.161,725.703,212.419z"/>
<path style="fill-rule:evenodd;clip-rule:evenodd;" d="M340.146,302.673c-4.672,0-9.65,0-14.627,0
	c-0.069-0.526-0.139-1.053-0.208-1.58c2.449-0.478,4.889-1.288,7.351-1.361c4.811-0.144,8.873-0.682,7.873-7.135
	c-0.097-0.631,0.471-1.365,0.731-2.05c0.658-0.102,1.318-0.204,1.977-0.306c0.564,2.849,1.635,5.703,1.609,8.546
	c-0.132,14.686-0.841,29.372-0.772,44.054c0.064,13.611,0.711,27.225,1.409,40.821c0.212,4.139-0.918,5.815-5.179,5.605
	c-5.06-0.249-10.138-0.059-15.209-0.059c-0.021-0.651-0.042-1.302-0.062-1.953c5.129-0.348,10.259-0.695,15.17-1.028
	c0.412-0.668,0.764-0.982,0.789-1.319c1.46-20.229,1.398-18.005-17.51-16.832c0,8.087-0.087,16.272,0.019,24.456
	c0.22,17.073,0.606,34.145,0.715,51.218c0.01,1.548-1.489,3.105-2.287,4.658c-0.952-1.418-2.66-2.803-2.723-4.259
	c-0.237-5.517,0.109-11.055,0.138-16.586c0.017-3.148-0.27-6.299-0.233-9.447c0.186-15.589,0.502-31.177,0.619-46.766
	c0.038-5.106-0.514-10.216-0.516-15.324c-0.001-1.305,1.063-2.609,1.638-3.915c0.831,1.279,1.956,2.459,2.427,3.859
	c0.784,2.332,0.657,6.596,1.776,6.903c4.336,1.188,9.009,1.318,13.562,1.375c0.824,0.011,2.405-2.177,2.407-3.353
	c0.036-19.12-0.126-38.24-0.26-57.36C340.77,303.382,340.556,303.228,340.146,302.673z"/>
<path style="fill-rule:evenodd;clip-rule:evenodd;" d="M202.33,475.125c-8.73,1.01-4.485,5.998-4.139,9.792
	c6.013,0.003,12.026-0.178,18.027,0.033c32.202,1.132,64.398,2.516,96.604,3.487c13.836,0.417,27.696-0.003,41.544,0.076
	c3.675,0.021,5.998-1.051,6.644-5.058c0.252-1.571,1.592-2.968,3.8-3.961c0.378,4.902,0.756,9.805,1.105,14.333
	c-2.893-0.611-5.94-1.256-8.773-1.854c-0.223,2.509-0.344,3.886-0.466,5.264c-1.03-0.254-2.641-0.18-2.999-0.814
	c-3.218-5.685-8.645-3.459-13.206-3.667c-7.741-0.353-15.509-0.042-23.263-0.211c-18.026-0.395-36.054-0.764-54.071-1.435
	c-9.932-0.37-19.834-1.602-29.766-1.878c-3.431-0.095-7.421-1.234-10.491,2.359c-0.871,1.019-3.72,0.786-5.546,0.467
	c-4.781-0.836-9.497-2.037-14.471-2.513c3.927,1.354,7.856,2.71,12.463,4.3c-7.848,2.996-18.614-0.035-22.567-5.75
	c-3.356-4.854,0.566-14.998,6.055-15.462c0.887-0.075,1.847,0.715,2.774,1.106C201.834,474.201,202.082,474.664,202.33,475.125z"/>
<path style="fill-rule:evenodd;clip-rule:evenodd;" d="M655.399,347.687c-2.292-0.337-4.479-0.66-7.831-1.152
	c0,8.169,0,16.213,0,24.258c-0.717-0.015-1.435-0.03-2.152-0.045c-3.028-7.67,0.347-15.784-0.474-23.555
	c-6.274-1.369-8.069-0.244-8.085,5.409c-0.018,5.715,0.43,11.432,0.41,17.146c-0.005,1.404-1.035,2.806-1.595,4.207
	c-0.835-1.312-2.397-2.627-2.392-3.936c0.071-15.179,0.408-30.356,0.606-45.534c0.054-4.122-0.396-8.265-0.111-12.364
	c0.264-3.83-1.941-8.476,3.01-11.173c0.251-0.137-0.337-1.813-0.6-3.088c3.675,0,6.896,0,10.117,0
	c0.136,0.318,0.271,0.635,0.406,0.953c-1.632,0.962-3.265,1.925-5.6,3.302c4.78,0,8.884,0.266,12.937-0.069
	c4.76-0.393,5.762,2.139,5.662,6.064c-0.349,13.6-0.818,27.2-0.9,40.801c-0.035,5.68,0.796,11.362,1.217,17.046
	c0.1,1.357,0.562,2.897,0.088,4.031c-0.497,1.188-1.924,1.985-2.944,2.955c-0.59-1.235-1.661-2.459-1.689-3.706
	C655.317,361.996,655.399,354.751,655.399,347.687z M637.277,321.994c3.19,0,5.833,0,8.76,0c0-5.11,0-9.935,0-14.758
	c0.638,0.005,1.275,0.008,1.913,0.012c0,2.83-0.038,5.661,0.009,8.49c0.108,6.66,1.19,7.421,8.268,5.384
	c0-1.982-0.007-4.122,0.001-6.262c0.038-9.438,0.039-9.427-9.293-9.84c-1.763-0.078-3.683,0.13-5.247-0.499
	c-3.456-1.388-4.344,0.286-4.391,3.169C637.224,312.207,637.277,316.725,637.277,321.994z M645.096,335.616
	c0-2.473,0.666-4.817-0.175-6.32c-0.959-1.715-3.26-2.68-4.978-3.971c-0.894,1.274-2.396,2.473-2.568,3.836
	c-0.461,3.686-0.67,7.474-0.298,11.151c0.123,1.219,2.258,3.093,3.579,3.188C647.965,344.025,643.983,338.141,645.096,335.616z
	 M655.92,342.161c0-2.425-0.251-4.983,0.047-7.476c0.922-7.71,0.309-8.327-8.17-6.516c0.252,5.065,0.511,10.232,0.794,15.877
	C651.909,343.193,653.716,342.729,655.92,342.161z"/>
<path style="fill-rule:evenodd;clip-rule:evenodd;" d="M730.661,220.01c2.43,5.75,5.026,11.437,7.253,17.264
	c6.224,16.277,12.297,32.611,18.423,48.925c1.425,3.796,4.001,7.441-2.651,9.69c-1.753,0.593-2.241,5.851-2.74,9.056
	c-1.667,10.709-3.074,21.459-4.277,30.014c0-11.519,0-25.273,0-39.068c-3.167,0.728-3.607,4.168-3.734,7.653
	c-0.348,9.452-0.541,18.91-0.89,28.363c-0.092,2.478-0.526,4.944-0.873,8.038c-2.741-6.873,1.54-14.521-3.091-20.372
	c0.649-1.37,2.42-3.424,2.436-5.491c0.033-4.457-0.873-8.918-1.312-13.386c-0.131-1.34-0.533-3.101,0.114-4.002
	c4.489-6.238,1.179-12.013-0.782-17.856c-1.37-4.081-3.056-8.058-4.341-12.162c-0.324-1.034,0.341-2.379,0.865-5.358
	c6.88,10.026,5.873,22.785,15.371,29.152c0.666-0.323,1.333-0.644,1.998-0.966c-7.716-22.886-15.432-45.772-23.147-68.658
	C729.742,220.566,730.202,220.288,730.661,220.01z"/>
<path style="fill-rule:evenodd;clip-rule:evenodd;" d="M292.836,130.413c0.499-1.284,0.996-2.568,1.493-3.854
	c1.759,1.102,3.983,1.86,5.128,3.414c0.893,1.21,0.506,3.407,0.583,5.17c0.362,8.409,0.689,16.822,1.045,25.652
	c31.02-4.353,61.222-8.894,91.773-9.447c0.095,0.477,0.189,0.952,0.284,1.428c-0.776,0.395-1.525,1.062-2.332,1.143
	c-8.823,0.875-17.682,1.446-26.481,2.514c-16.351,1.982-32.62,4.848-49.019,6.118c-7.889,0.611-13.552,1.9-17.677,9.546
	c-2.209,4.096-7.65,6.448-11.89,9.789c1.498-11.189,2.842-21.234,4.188-31.278c0.582,0.047,1.164,0.094,1.746,0.141
	c0.626,5.924,1.253,11.849,1.88,17.773c0.791-0.025,1.582-0.052,2.372-0.079c0.507-9.41,1.037-18.82,1.499-28.233
	c0.076-1.57,0.347-3.42-0.334-4.673c-1.066-1.964-2.864-3.531-4.353-5.266L292.836,130.413z"/>
<path style="fill-rule:evenodd;clip-rule:evenodd;" d="M602.375,466.3c0-4.237,0-7.644,0-11.052
	c3.951,11.422,14.6,9.015,22.81,12.671c-4.238,0.768-8.478,1.535-12.717,2.304c-0.116,0.783-0.233,1.566-0.351,2.351
	c1.958,0.714,3.914,1.429,6.948,2.536c5.905,6.683-4.109,9.734-5.958,16.206c-5.338-1.41-10.696-2.826-16.054-4.24
	c0.168-0.892,0.337-1.784,0.506-2.675c4.108,0.594,8.216,1.189,12.323,1.783c-4.684-5.25-0.121-17.279-12.427-16.061
	c-5.245-21.227,0.062-42.254-0.942-63.216c0.516-0.105,1.03-0.213,1.547-0.318c0.393,1.959,1.122,3.917,1.123,5.876
	c0.004,11.419-0.329,22.84-0.207,34.257c0.064,6.051,0.738,12.104,1.373,18.13C600.422,465.538,602.022,466.062,602.375,466.3z"/>
<path style="fill-rule:evenodd;clip-rule:evenodd;" d="M535.271,290.492c-4.581-10.24-14.533-0.049-20.669-4.722
	c0.024-0.822,0.049-1.644,0.073-2.465c7.024-0.208,14.073-0.772,21.055-0.32c1.376,0.089,2.979,3.976,3.598,6.342
	c0.619,2.366,0.136,5.02,0.136,7.317c15.573-0.677,30.482-1.327,45.393-1.975c0.06,0.731,0.119,1.464,0.18,2.196
	c-7.042,3.758-14.932,1.421-22.403,1.98c-7.637,0.57-15.297,0.827-23.669,1.257c-1.302,11.99-2.683,24.505-0.495,37.11
	c0.861,4.971-3.27,10.216-8.428,10.428c-3.393,0.139-6.783,0.403-10.175,0.394c-0.742-0.002-1.964-0.833-2.09-1.46
	c-0.128-0.635,0.723-2.035,1.324-2.149c2.298-0.437,4.763-0.995,6.993-0.583c5.318,0.98,6.674-0.55,6.592-6.146
	c-0.211-14.593,0.481-29.201,0.936-43.8C533.654,292.797,534.646,291.729,535.271,290.492z"/>
<path style="fill-rule:evenodd;clip-rule:evenodd;" d="M659.335,375.564c-4.086,7.118-10.673,8.219-16.329,6.146
	c-7.346-2.694-14.597-3.043-22.093-3.505c-1.323-0.081-3.593-2.974-3.521-4.479c0.375-7.929-4.219-9.282-11.55-8.559
	c0,5.166,0,10.644,0,16.122c-3.602-6.525-4.901-75.875-1.492-84.613c0.467,4.328,1.558,8.706,1.221,12.971
	c-0.31,3.92,1.02,4.281,4.226,4.18c2.347-0.073,4.722,0.719,6.933,2.281c-3.711,1.107-9.397,1.169-10.667,3.567
	c-1.901,3.592-1.61,9.071-0.477,13.27c0.7,2.599,4.687,4.312,6.868,6.144c-1.334,0.421-3.994,1.26-7.027,2.218
	c0,6.735,0,13.591,0,21.396c4.512-0.839,8.68-1.613,13.975-2.598c0.778,2.643,2.125,6.204,2.834,9.888
	c0.87,4.509,3.229,6.212,7.763,5.921c9.116-0.585,18.251-0.895,27.381-1.242C658.015,374.647,658.674,375.248,659.335,375.564z"/>
<path style="fill-rule:evenodd;clip-rule:evenodd;" d="M262.081,281.974c1.317-5.895,20.604-8.423,29.19-4.552
	c-7.988,5.255-16.675-0.823-23.905,4.259c16.335-1.063,32.665-2.239,49.013-3.067c2.45-0.123,6.142,0.684,7.144,2.34
	c0.966,1.597-0.806,4.85-2.272,7.579c-2.947-7.544-9.45-5.391-13.917-5.437c-12.746-0.132-25.501,1.127-38.262,1.611
	c-6.974,0.263-8.581,1.781-8.466,8.807c0.097,6.03,0.02,12.062,0.02,18.093c-0.793,0.017-1.585,0.033-2.378,0.051
	c-0.616-13.273-1.231-26.546-1.847-39.819c0.821-0.154,1.643-0.309,2.464-0.463C259.805,274.475,260.745,277.574,262.081,281.974z"
	/>
<path style="fill-rule:evenodd;clip-rule:evenodd;" d="M311.656,295.242c0.797,0.355,2.263,0.662,2.291,1.07
	c0.375,5.378,0.59,10.768,0.742,16.159c0.044,1.555-0.352,3.119-0.354,4.679c-0.031,22.833-0.303,45.671,0.053,68.498
	c0.257,16.483,1.376,32.952,2.069,49.432c0.116,2.773,0.016,5.557,0.016,8.336c-1.02,0.099-2.04,0.198-3.059,0.297
	c-0.552-3.6-1.532-7.193-1.584-10.8c-0.244-16.942-0.196-33.888-0.357-50.832c-0.021-2.275-0.983-4.556-0.916-6.816
	c0.202-6.788,0.931-13.564,1.029-20.352c0.194-13.35,0.098-26.701,0.126-40.052c0.014-6.577,0.039-13.154,0.057-19.73
	C311.772,295.13,311.656,295.242,311.656,295.242z"/>
<path style="fill-rule:evenodd;clip-rule:evenodd;" d="M693.114,374.533c6.208,0,12.112-0.161,18.003,0.058
	c3.75,0.141,4.879-2.053,4.857-4.985c-0.114-14.362-0.431-28.724-0.621-43.086c-0.076-5.786-0.013-11.574-0.013-18.287
	c-6.569,0-12.45,0-19.294,0c0,6.725,0,13.482,0,20.241c-0.534,0.012-1.067,0.023-1.602,0.036c0-7.35,0-14.699,0-22.904
	c7.427-0.353,15.105-0.715,23.346-1.106c0,9.377-0.174,17.806,0.042,26.225c0.311,12.168,0.687,24.344,1.436,36.491
	c0.734,11.887-5.198,14.052-14.123,14.126c-1.956,0.017-3.928-0.373-5.871-0.252C695.172,381.347,693.096,379.603,693.114,374.533z"
	/>
<path style="fill-rule:evenodd;clip-rule:evenodd;" d="M407.926,368.124c54.631-0.831,109.26-1.662,163.89-2.493
	c0.014,0.939,0.028,1.879,0.043,2.816c-54.621,0.778-109.243,1.558-163.864,2.336C407.971,369.896,407.949,369.01,407.926,368.124z"
	/>
<path style="fill-rule:evenodd;clip-rule:evenodd;" d="M278.271,156.36c-0.572,8.896,3.837,17.475,2.217,26.343
	c-0.911,0.127-1.824,0.255-2.736,0.384c-0.893-4.534-1.787-9.066-2.882-14.625c-26.364,3.657-53.47,4.85-80.462,7.903
	c-0.119-0.972-0.24-1.942-0.36-2.913c1.516-0.371,3.013-0.956,4.548-1.079c16.877-1.353,33.774-2.483,50.637-3.999
	c7.813-0.703,15.536-2.435,23.35-3.112C278.918,164.712,275.903,159.18,278.271,156.36z"/>
<path style="fill-rule:evenodd;clip-rule:evenodd;" d="M665.569,217.22c0.727-11.474,2.396-22.98-0.704-35.393
	c6.726,0.336,13.613,0.606,20.482,1.125c0.789,0.059,2.117,1.501,2.11,2.293c-0.099,10.811-0.383,21.62-0.668,32.429
	c-0.006,0.236-0.558,0.458-1.701,1.338c-0.353-1.739-0.839-3.02-0.835-4.298c0.025-7.905,0.365-15.815,0.109-23.708
	c-0.059-1.81-2.042-3.558-3.14-5.334c-0.951,1.689-2.548,3.307-2.741,5.079c-0.791,7.201-0.234,8.081,6.025,11.155
	c-8.268,2.344-7.179,8.58-6.622,14.6c-0.633-0.093-1.266-0.186-1.9-0.278c0-1.946,0.155-3.905-0.036-5.832
	c-0.295-2.973,1.826-7.421-3.779-7.573c-5.128-0.138-3.711,3.993-4.035,6.883c-0.288,2.574-0.498,5.157-0.743,7.736
	C666.784,217.369,666.177,217.294,665.569,217.22z M671.581,184.662c-0.721,0.239-1.443,0.478-2.166,0.717
	c0,4.027-0.121,8.062,0.099,12.077c0.047,0.843,1.272,2.172,2.096,2.289c1.174,0.168,3.542-0.531,3.559-0.936
	c0.153-3.692,0.161-7.438-0.372-11.081C674.627,186.573,672.703,185.676,671.581,184.662z"/>
<path style="fill-rule:evenodd;clip-rule:evenodd;" d="M594.216,278.384c1.045-0.68,2.09-1.359,3.135-2.039
	c0.613,1.537,1.738,3.068,1.752,4.61c0.062,6.482-0.319,12.966-0.336,19.452c-0.031,12.597-0.11,25.199,0.175,37.792
	c0.236,10.403,1.17,20.791,1.381,31.194c0.081,4.013-0.978,8.049-1.518,12.073c-0.551,0.006-1.102,0.012-1.651,0.018
	c-0.202-4.282-0.552-8.563-0.579-12.847c-0.097-15.911,0.057-31.825-0.164-47.734c-0.182-13.148-0.734-26.292-1.202-39.435
	c-0.039-1.079-0.692-2.136-1.062-3.208C594.143,278.256,594.216,278.385,594.216,278.384z"/>
<path style="fill-rule:evenodd;clip-rule:evenodd;" d="M703.386,370.891c-0.378-6.757-0.757-13.515-1.155-20.628
	c-2.063,0.27-3.709,0.484-5.673,0.74c0-1.615,0-2.917,0-4.666c2.006,0.226,3.823,0.43,6.831,0.769
	c0.663-13.021,1.312-25.752,1.961-38.482c0.644,0.014,1.287,0.029,1.931,0.044c0,4.567,0,9.137,0,13.83
	c2.291,0.583,4.146,1.056,6,1.527c0.017,0.567,0.031,1.134,0.047,1.701c-1.808,0.347-3.615,0.694-6.19,1.188
	c0,6.358,0,12.931,0,19.115c2.278,1.229,4.428,2.331,6.461,3.618c0.131,0.083-0.819,2.366-0.975,2.332
	c-1.711-0.387-3.363-1.03-6.131-1.979c0,7.078,0,13.982,0,20.885C705.457,370.888,704.422,370.89,703.386,370.891z"/>
<path style="fill-rule:evenodd;clip-rule:evenodd;" d="M612.453,389.664c37.73-2.022,75.466-0.688,113.206,1.752
	c-37.757,0-75.515,0-113.271,0C612.408,390.832,612.431,390.247,612.453,389.664z"/>
<path style="fill-rule:evenodd;clip-rule:evenodd;" d="M673.586,303.841c0.537,22.825,1.122,45.65,1.484,68.478
	c0.021,1.281-1.773,2.593-3.892,3.397c0-23.878,0-47.757,0-71.635C671.981,304.001,672.784,303.921,673.586,303.841z"/>
<path style="fill-rule:evenodd;clip-rule:evenodd;" d="M146.139,376.93c-29.201,0-58.403,0-87.604,0
	c0.009-0.748,0.019-1.496,0.026-2.244c29.208-0.808,58.409-0.615,87.6,0.393C146.154,375.695,146.147,376.312,146.139,376.93z"/>
<path style="fill-rule:evenodd;clip-rule:evenodd;" d="M673.119,463.812c20.695-0.648,41.392-1.295,62.088-1.942
	c0.454,0.405,0.909,0.811,1.363,1.216c-5.889,2.659-11.187,5.563-5.926,12.562c-2.793,1.311-4.994,2.342-7.974,3.74
	c-1.122-3.381-2.214-6.665-3.305-9.948c0.413-0.202,0.827-0.402,1.239-0.604c0.789,0.718,1.577,1.435,2.761,2.511
	c0.547-1.736,1.024-3.257,1.774-5.641c-17.729,0-34.856,0-51.984,0C673.144,465.074,673.132,464.442,673.119,463.812z"/>
<path style="fill-rule:evenodd;clip-rule:evenodd;" d="M60.01,436.56c30.857-0.66,61.715-1.319,92.572-1.979
	c0.022,0.902,0.043,1.806,0.065,2.709c-30.849,0.621-61.697,1.243-92.546,1.864C60.07,438.289,60.04,437.425,60.01,436.56z"/>
<path style="fill-rule:evenodd;clip-rule:evenodd;" d="M450.757,350.657c-5.938,0.953-11.861,2.037-17.828,2.746
	c-1.178,0.139-3.487-1.003-3.636-1.843c-0.844-4.801-3.799-3.647-7.098-3.393c-5.412,0.417-10.88,0.112-16.324,0.112
	c-0.174-0.603-0.347-1.205-0.521-1.808c2.731-0.749,5.428-1.722,8.208-2.163c1.681-0.267,3.489,0.437,5.244,0.461
	c10.446,0.149,10.877-0.302,11.429-10.969c0.064-1.256,0.36-2.499,0.55-3.747c0.571,0.003,1.142,0.008,1.713,0.011
	c0,3.489,0.464,7.057-0.102,10.451c-1.013,6.076,2.145,7.741,7.223,7.84c2.558,0.05,5.122-0.193,7.677-0.096
	c1.287,0.049,2.557,0.562,3.833,0.865C451.003,349.636,450.88,350.147,450.757,350.657z"/>
<path style="fill-rule:evenodd;clip-rule:evenodd;" d="M323.389,305.173c0,3.251-0.022,6.502,0.004,9.754
	c0.052,6.267,1.231,7.217,7.555,6.737c2.999-0.228,6.03-0.04,9.044-0.04c0.019,0.827,0.037,1.652,0.056,2.479
	c-3.33,0.187-6.675,0.671-9.985,0.49c-5.042-0.274-6.903,1.268-6.591,6.769c0.351,6.2-0.785,12.485-2.394,18.643
	c-0.713-15.047-2.875-30.052-1-44.98C321.182,305.074,322.286,305.124,323.389,305.173z"/>
<path style="fill-rule:evenodd;clip-rule:evenodd;" d="M677.32,373.186c0-23.041,0-46.081,0-69.123
	c0.742-0.056,1.484-0.111,2.228-0.166c0.356,2.718,1.099,5.45,1.005,8.152c-0.418,12.055-1.429,24.099-1.504,36.152
	c-0.04,6.397,1.607,12.79,2.033,19.216c0.133,2.027-1.227,4.154-1.903,6.235C678.559,373.497,677.939,373.341,677.32,373.186z"/>
<path style="fill-rule:evenodd;clip-rule:evenodd;" d="M500.644,348.568c3.727-0.051,7.463-0.25,11.176-0.055
	c1.021,0.055,1.979,1.285,2.965,1.978c-0.997,0.633-1.96,1.75-2.997,1.823c-17.908,1.262-35.825,2.4-53.742,3.528
	c-0.519,0.032-1.062-0.344-3.529-1.207c3.217-1.177,4.862-2.203,6.574-2.332c8.454-0.635,16.938-0.862,25.384-1.578
	c4.796-0.407,9.537-1.475,14.307-2.246C500.785,348.478,500.644,348.568,500.644,348.568z"/>
<path style="fill-rule:evenodd;clip-rule:evenodd;" d="M711.883,198.438c-10.289-20.391-20.765-40.716-24.561-63.454
	c0.537-0.195,1.075-0.39,1.612-0.584C696.584,155.746,704.233,177.092,711.883,198.438z"/>
<path style="fill-rule:evenodd;clip-rule:evenodd;" d="M752.396,468.025c5.049,1.396,5.658,5.135,1.01,10.783
	c-2.22-1.014-4.443-2.027-7.165-3.267c-0.38-4.517-0.056-9.595-1.404-14.181c-1.392-4.734-2.169-8.916,0.426-13.825
	C747.743,454.658,749.997,461.134,752.396,468.025z"/>
<path style="fill-rule:evenodd;clip-rule:evenodd;" d="M740.398,397.206c0,16.86,0,33.72,0,50.58
	c-0.769,0.031-1.538,0.064-2.307,0.097c-0.469-2.165-0.937-4.329-1.416-6.539c-2.699-0.184-5.406-0.367-8.115-0.552
	c-0.03-0.582-0.062-1.165-0.093-1.749c2.7-0.396,5.402-0.791,8.626-1.263c0.816-13.334,1.654-27.011,2.492-40.687
	C739.856,397.131,740.127,397.168,740.398,397.206z"/>
<path style="fill-rule:evenodd;clip-rule:evenodd;" d="M590.75,454.875c0-22.663,0-45.325,0-67.988c0.635,0,1.27-0.001,1.904-0.002
	c0,22.612,0,45.226,0,67.837C592.02,454.772,591.385,454.824,590.75,454.875z"/>
<path style="fill-rule:evenodd;clip-rule:evenodd;" d="M396.192,432.679c-23.709,0-47.419,0-71.019,0
	C327.597,429.659,390.44,428.218,396.192,432.679z"/>
<path style="fill-rule:evenodd;clip-rule:evenodd;" d="M57.889,394.902c18.765,0,37.529,0,56.293,0
	c0.002,0.734,0.005,1.469,0.008,2.203c-18.847-2.784-37.612,4.59-56.468,0.579C57.779,396.757,57.833,395.829,57.889,394.902z"/>
<path style="fill-rule:evenodd;clip-rule:evenodd;" d="M733.041,313.986c0,16.221,0.015,32.441-0.032,48.661
	c-0.004,1.132-0.295,2.341-0.76,3.377c-0.678,1.511-1.634,2.897-2.473,4.336c-0.551-1.533-1.624-3.085-1.573-4.6
	c0.515-15.483,1.205-30.962,1.879-46.439c0.051-1.173,0.308-2.345,0.567-3.495c0.157-0.687,0.506-1.329,0.769-1.991
	C731.959,313.885,732.499,313.937,733.041,313.986z"/>
<path style="fill-rule:evenodd;clip-rule:evenodd;" d="M162.061,313.331c14.222,0,28.446,0,43.055,0
	c-2.347,3.009-36.537,4.107-43.047,1.839C162.067,314.558,162.063,313.944,162.061,313.331z"/>
<path style="fill-rule:evenodd;clip-rule:evenodd;" d="M292.741,130.272c-0.248,4.806-0.497,9.609-0.745,14.414
	c-0.861,0.052-1.724,0.104-2.587,0.157c-0.282-4.797-0.563-9.596-0.88-15.008c-2.964,0.159-5.759,0.31-9.154,0.493
	c0,5.571,0,10.901,0,16.23c-0.516,0.02-1.033,0.04-1.55,0.059c0-6.518,0-13.035,0-19.753c8.177-2.418,12.086-1.575,15.009,3.546
	C292.836,130.413,292.741,130.272,292.741,130.272z"/>
<path style="fill-rule:evenodd;clip-rule:evenodd;" d="M56.172,415.833c2.497-0.458,3.88-0.902,5.273-0.938
	c14.285-0.372,28.571-0.711,42.858-0.922c0.822-0.012,1.661,1.164,2.492,1.786c-1.081,0.532-2.135,1.463-3.246,1.537
	c-8.376,0.552-16.763,1.212-25.15,1.283c-6.68,0.059-13.369-0.657-20.05-1.069C58.042,417.491,57.76,417.077,56.172,415.833z"/>
<path style="fill-rule:evenodd;clip-rule:evenodd;" d="M604.212,400.926c0,17.082,0,34.163,0,51.245
	c-0.573,0.001-1.145,0.002-1.718,0.005c0-17.082,0-34.165,0-51.246C603.067,400.928,603.639,400.927,604.212,400.926z"/>
<path style="fill-rule:evenodd;clip-rule:evenodd;" d="M657.281,417.962c-16.091,0-32.182,0-48.271,0
	c-0.009-0.687-0.02-1.371-0.029-2.058c16.084-1.492,32.229,0.56,48.324-0.186C657.297,416.467,657.29,417.214,657.281,417.962z"/>
<path style="fill-rule:evenodd;clip-rule:evenodd;" d="M457.121,418.048c-15.707,0-31.415,0-47.122,0
	c-0.006-0.611-0.011-1.221-0.017-1.831c15.678,0,31.354,0,47.031,0C457.05,416.827,457.086,417.437,457.121,418.048z"/>
<path style="fill-rule:evenodd;clip-rule:evenodd;" d="M206.76,334.21c-15.408,3.557-30.936,3.879-46.463,1.79
	c-0.002-0.597-0.006-1.192-0.009-1.79C175.779,334.21,191.27,334.21,206.76,334.21z"/>
<path style="fill-rule:evenodd;clip-rule:evenodd;" d="M367.582,411.264c-8.414,2.123-35.208,0.878-37.19-1.837
	c12.507,0,24.896,0,37.284,0C367.645,410.039,367.613,410.651,367.582,411.264z"/>
<path style="fill-rule:evenodd;clip-rule:evenodd;" d="M620.13,323.32c0,10.193,0,19.02,0,27.845
	c-0.556,0.012-1.11,0.022-1.665,0.034c0-7.295,0-14.59,0-22.529c-6.15,1.713-9.299,0.29-8.802-6.808
	C613.378,322.379,616.893,322.869,620.13,323.32z"/>
<path style="fill-rule:evenodd;clip-rule:evenodd;" d="M585.062,321.6c-15.1,0-30.2,0-45.3,0c-0.005-0.638-0.011-1.275-0.015-1.912
	c15.082,0,30.164,0,45.245,0C585.016,320.324,585.039,320.962,585.062,321.6z"/>
<path style="fill-rule:evenodd;clip-rule:evenodd;" d="M677.039,442.777c-18.202,0-36.406,0-54.61,0
	c-0.003-0.644-0.004-1.287-0.006-1.931c18.194-2.635,36.415,1.611,54.614,0.134C677.037,441.579,677.038,442.179,677.039,442.777z"
	/>
<path style="fill-rule:evenodd;clip-rule:evenodd;" d="M541.066,343.1c14.905,0,29.81,0,44.715,0
	c0.001,0.684,0.001,1.369,0.001,2.054c-14.904-0.707-29.809,1.912-44.715-0.07C541.067,344.423,541.066,343.762,541.066,343.1z"/>
<path style="fill-rule:evenodd;clip-rule:evenodd;" d="M509.944,442.891c-16.725,0-33.448,0-50.173,0
	c0.006-0.545,0.012-1.09,0.017-1.635c16.693,0,33.387,0,50.081,0C509.894,441.801,509.919,442.346,509.944,442.891z"/>
<path style="fill-rule:evenodd;clip-rule:evenodd;" d="M461.046,415.642c15.733,0,31.468,0,47.202,0
	c0.004,0.458,0.008,0.916,0.013,1.373c-15.774,0-31.551,0-47.325,0C460.973,416.558,461.009,416.1,461.046,415.642z"/>
<path style="fill-rule:evenodd;clip-rule:evenodd;" d="M723.229,227.269c4.069,11.316,8.138,22.633,12.682,35.267
	C730.156,259.159,721.079,233.5,723.229,227.269z"/>
<path style="fill-rule:evenodd;clip-rule:evenodd;" d="M492.487,392.802c-14.207,0-28.413,0-42.62,0
	c0.005-0.564,0.008-1.128,0.013-1.692c14.206,0,28.412,0,42.619,0C492.494,391.674,492.49,392.237,492.487,392.802z"/>
<path style="fill-rule:evenodd;clip-rule:evenodd;" d="M694.188,370.826c-3.252-6.084-3.157-19.46,0.249-35.109
	C696.648,343.337,696.471,368.521,694.188,370.826z"/>
<path style="fill-rule:evenodd;clip-rule:evenodd;" d="M118.901,393.94c16.871,0,33.74,0,49.8,0
	c-2.798,2.779-33.335,4.28-50.01,1.687C118.762,395.064,118.832,394.502,118.901,393.94z"/>
<path style="fill-rule:evenodd;clip-rule:evenodd;" d="M442.582,392.27c-11.116,0.545-22.231,1.092-33.348,1.637
	c-0.044-0.795-0.088-1.589-0.133-2.382c11.008-2.836,22.333-0.677,33.487-1.218C442.586,390.961,442.584,391.614,442.582,392.27z"/>
<path style="fill-rule:evenodd;clip-rule:evenodd;" d="M256.666,415.862c-9.678-2.161-19.43,2.366-29.104-0.075
	c0.004-0.785,0.007-1.569,0.011-2.353c9.696,0,19.393,0,29.088,0C256.662,414.243,256.664,415.053,256.666,415.862z"/>
<path style="fill-rule:evenodd;clip-rule:evenodd;" d="M176.998,354.577c11.337-0.831,22.674-1.661,34.01-2.491
	c0.058,1.021,0.115,2.042,0.173,3.063c-11.387,0-22.774,0-34.16,0C177.013,354.958,177.006,354.768,176.998,354.577z"/>
<path style="fill-rule:evenodd;clip-rule:evenodd;" d="M502.692,391.309c11.922-3.689,24.257-1.965,36.442-2.546
	c0.022,0.85,0.046,1.697,0.069,2.546C527.033,391.309,514.862,391.309,502.692,391.309z"/>
<path style="fill-rule:evenodd;clip-rule:evenodd;" d="M227.565,372.12c9.529,0,19.06,0,28.589,0
	c0.044,0.429,0.087,0.859,0.131,1.289c-9.461,0-18.922,0-28.383,0C227.79,372.979,227.678,372.549,227.565,372.12z"/>
<path style="fill-rule:evenodd;clip-rule:evenodd;" d="M58.642,335.744c11.722,0,23.444,0,35.167,0
	c0.022,0.439,0.044,0.88,0.066,1.319c-11.713,0-23.426,0-35.139,0C58.704,336.624,58.673,336.184,58.642,335.744z"/>
<path style="fill-rule:evenodd;clip-rule:evenodd;" d="M614.113,265.071c11.905,0.875,23.81,1.751,37.105,2.729
	C643.606,270.425,620.575,269.245,614.113,265.071z"/>
<path style="fill-rule:evenodd;clip-rule:evenodd;" d="M622.682,245.433c1.889-0.508,3.805-1.539,5.66-1.439
	c11.382,0.606,22.751,1.469,34.1,3.428c-12.972,0-25.944,0-38.916,0C623.244,246.759,622.963,246.096,622.682,245.433z"/>
<path style="fill-rule:evenodd;clip-rule:evenodd;" d="M226.592,351.81c9.253,0,18.508,0,28.51,0
	C251.072,355.649,232.976,355.844,226.592,351.81z"/>
<path style="fill-rule:evenodd;clip-rule:evenodd;" d="M564.335,476.344c1.728,1.574,2.844,2.589,3.967,3.611
	c7.876-6.992,7.13,4.983,11.952,4.633C567.169,485.479,563.574,483.704,564.335,476.344z"/>
<path style="fill-rule:evenodd;clip-rule:evenodd;" d="M80.09,480.016c-1.71-5.004,0.852-8.726,4.104-9.416
	c6.613-1.404,4.735,5.415,6.193,9.617c-1.792-0.811-3.585-1.619-6.064-2.739C83.607,477.907,82.129,478.793,80.09,480.016z"/>
<path style="fill-rule:evenodd;clip-rule:evenodd;" d="M691.855,292.216c0.532-1.619,1.107-3.366,1.683-5.114
	c0.527,0.073,1.055,0.146,1.583,0.219c-0.154,2.173-0.309,4.346-0.438,6.178c-12.852,0-25.193,0-37.534,0
	c0.015-0.428,0.03-0.856,0.045-1.284C668.608,292.216,680.023,292.216,691.855,292.216z"/>
<path style="fill-rule:evenodd;clip-rule:evenodd;" d="M57.033,316.938c9.765-0.5,19.531-1,29.296-1.5
	c0.044,0.873,0.089,1.748,0.135,2.621c-9.767,0.463-19.534,0.924-29.3,1.387C57.12,318.609,57.076,317.773,57.033,316.938z"/>
<path style="fill-rule:evenodd;clip-rule:evenodd;" d="M732.347,294.791c-11.766,0-23.531,0-35.298,0
	c0.01-0.411,0.019-0.821,0.028-1.231c11.774,0,23.548,0,35.323,0C732.382,293.97,732.365,294.38,732.347,294.791z"/>
<path style="fill-rule:evenodd;clip-rule:evenodd;" d="M254.634,316.032c-8.909-0.899-17.817-1.799-26.726-2.699
	c0.032-0.154,0.063-0.309,0.095-0.463c8.996,0,17.991,0,26.987,0C254.871,313.925,254.752,314.979,254.634,316.032z"/>
<path style="fill-rule:evenodd;clip-rule:evenodd;" d="M230.777,291.197c8.036,0,16.071,0,24.107,0
	c0.016,0.716,0.031,1.434,0.047,2.152C246.896,295.604,238.764,294.24,230.777,291.197z"/>
<path style="fill-rule:evenodd;clip-rule:evenodd;" d="M636.756,221.61c7.107,0.864,14.214,1.728,21.322,2.591
	c-0.068,0.558-0.137,1.117-0.204,1.676C649.875,227.768,641.59,226.689,636.756,221.61z"/>
<path style="fill-rule:evenodd;clip-rule:evenodd;" d="M425.356,326.491c-5.948,0.467-11.894,0.993-17.851,1.315
	c-0.652,0.036-2.03-1.29-1.926-1.66c0.266-0.94,1.191-2.422,1.838-2.414c5.972,0.075,11.941,0.421,17.91,0.688
	C425.338,325.111,425.347,325.801,425.356,326.491z"/>
<path style="fill-rule:evenodd;clip-rule:evenodd;" d="M371.531,410.537c7.721,0,15.441,0,23.162,0
	c-0.02,0.513-0.04,1.026-0.058,1.54c-7.75,0-15.498,0-23.247,0C371.435,411.563,371.484,411.05,371.531,410.537z"/>
<path style="fill-rule:evenodd;clip-rule:evenodd;" d="M410.399,441.791c9.78,0,19.562,0,29.344,0
	c-0.005,0.504-0.01,1.007-0.016,1.512c-9.781,0-19.565,0-29.349,0C410.387,442.798,410.393,442.295,410.399,441.791z"/>
<path style="fill-rule:evenodd;clip-rule:evenodd;" d="M745.576,416.79c0,9.166,0,18.333,0,27.498
	c-0.567,0.003-1.133,0.007-1.7,0.011c0-9.168,0-18.336,0-27.503C744.443,416.793,745.009,416.792,745.576,416.79z"/>
<path style="fill-rule:evenodd;clip-rule:evenodd;" d="M181.614,183.919c-6.081,6.028-12.16,12.056-18.24,18.083
	c-0.493-0.455-0.986-0.91-1.479-1.365c5.839-6.247,11.679-12.493,17.519-18.74C180.147,182.572,180.88,183.246,181.614,183.919z"/>
<path style="fill-rule:evenodd;clip-rule:evenodd;" d="M58.237,355.163c8.785-0.441,17.57-0.885,26.355-1.326
	c0.038,0.638,0.075,1.274,0.112,1.912c-8.826,0.625-17.651,1.25-26.477,1.875C58.23,356.805,58.233,355.983,58.237,355.163z"/>
<path style="fill-rule:evenodd;clip-rule:evenodd;" d="M565.241,388.702c6.789-0.438,13.577-0.875,20.366-1.312
	c0.048,0.592,0.096,1.186,0.144,1.778c-6.744,0.707-13.487,1.413-20.231,2.121C565.427,390.427,565.334,389.564,565.241,388.702z"/>
<path style="fill-rule:evenodd;clip-rule:evenodd;" d="M194.617,434.916c5.894-0.386,11.788-0.773,18.897-1.239
	C209.961,437.844,200.313,438.392,194.617,434.916z"/>
<path style="fill-rule:evenodd;clip-rule:evenodd;" d="M659.05,465.687c-9.164,0.751-17.329,1.421-25.566,2.097
	C637.275,464.289,652.952,462.641,659.05,465.687z"/>
<path style="fill-rule:evenodd;clip-rule:evenodd;" d="M233.498,331.807c7.555,0.498,15.109,0.998,22.663,1.497
	c-0.024,0.774-0.049,1.549-0.074,2.323c-7.528-0.438-15.055-0.877-22.583-1.314C233.502,333.478,233.5,332.642,233.498,331.807z"/>
<path style="fill-rule:evenodd;clip-rule:evenodd;" d="M699.017,300.344c3.687,0,7.524-0.613,10.996,0.248
	c1.853,0.46,5.542-3.351,5.51,1.715c-0.002,0.356-4.291,0.933-6.593,0.965c-3.225,0.048-6.456-0.32-9.685-0.51
	C699.169,301.956,699.092,301.149,699.017,300.344z"/>
<path style="fill-rule:evenodd;clip-rule:evenodd;" d="M231.218,433.569c7.871,0,15.744,0,23.616,0
	c0.033,0.295,0.065,0.592,0.098,0.889c-7.933,0.412-15.864,0.825-23.797,1.236C231.162,434.986,231.19,434.277,231.218,433.569z"/>
<path style="fill-rule:evenodd;clip-rule:evenodd;" d="M683.273,221.908c-5.124,0-10.248,0-15.374,0
	c-0.019-0.668-0.037-1.337-0.056-2.005c5.142-0.248,10.282-0.496,15.424-0.745C683.269,220.075,683.271,220.992,683.273,221.908z"/>
<path style="fill-rule:evenodd;clip-rule:evenodd;" d="M168.999,376.461c-6.532,0-13.062,0-19.595,0
	c0.024-0.328,0.048-0.657,0.072-0.986c6.678,0,13.354,0,20.033,0C169.339,375.804,169.169,376.133,168.999,376.461z"/>
<path style="fill-rule:evenodd;clip-rule:evenodd;" d="M388.701,496.122c-3.182,0-6.365,0-9.547,0
	c0.627-2.261,1.255-4.521,1.957-7.048c3.077,2.141,5.354,3.726,7.631,5.31C388.729,494.963,388.715,495.542,388.701,496.122z"/>
<path style="fill-rule:evenodd;clip-rule:evenodd;" d="M430.72,325.97c0-5.867,0-11.735,0-17.603
	c0.528-0.011,1.056-0.021,1.585-0.029C433.978,314.179,432.399,320.074,430.72,325.97z"/>
<path style="fill-rule:evenodd;clip-rule:evenodd;" d="M125.028,472.027c-6.755,4.019-10.045,3.212-13.25-2.864
	C116.722,470.232,120.875,471.13,125.028,472.027z"/>
<path style="fill-rule:evenodd;clip-rule:evenodd;" d="M193.442,175.184c-3.361,2.367-6.723,4.733-10.428,7.341
	C183.321,176.593,187.86,172.723,193.442,175.184z"/>
<path style="fill-rule:evenodd;clip-rule:evenodd;" d="M386.043,476.043c-2.114-2.388-4.328-3.936-4.087-4.8
	c0.687-2.465,2.371-4.652,3.664-6.949c0.692,0.29,1.386,0.58,2.078,0.87C387.235,468.206,386.773,471.249,386.043,476.043z"/>
<path style="fill-rule:evenodd;clip-rule:evenodd;" d="M619.094,319.951c0-5.386,0-10.77,0-16.153
	c0.551-0.003,1.101-0.008,1.65-0.011c0,5.383,0,10.769,0,16.153C620.194,319.942,619.645,319.946,619.094,319.951z"/>
<path style="fill-rule:evenodd;clip-rule:evenodd;" d="M100.633,478.421c-2.141-1.141-4.442-2.074-6.337-3.534
	c-0.667-0.515-0.648-2.415-0.314-3.487c0.13-0.413,2.451-0.795,2.996-0.312c1.893,1.676,3.443,3.737,5.124,5.651
	C101.613,477.3,101.124,477.861,100.633,478.421z"/>
<path style="fill-rule:evenodd;clip-rule:evenodd;" d="M406.225,303.369c3.316,0,6.633,0,9.949,0
	c0.087,0.532,0.174,1.064,0.262,1.597c-3.322,0.504-6.645,1.008-9.965,1.511C406.388,305.441,406.306,304.406,406.225,303.369z"/>
<path style="fill-rule:evenodd;clip-rule:evenodd;" d="M542.351,389.59c6.533,0,13.065,0,19.599,0
	c0.013,0.369,0.026,0.737,0.039,1.107c-6.532,0-13.064,0-19.597,0C542.379,390.327,542.365,389.959,542.351,389.59z"/>
<path style="fill-rule:evenodd;clip-rule:evenodd;" d="M714.279,414.53c5.168-0.315,10.335-0.631,15.502-0.946
	c0.049,0.622,0.098,1.246,0.146,1.87c-5.172,0-10.344,0-15.514,0C714.368,415.146,714.324,414.838,714.279,414.53z"/>
<path style="fill-rule:evenodd;clip-rule:evenodd;" d="M172.822,435.162c5.586,0,11.173,0,16.76,0
	c0.003,0.44,0.007,0.881,0.01,1.322c-5.624,0-11.248,0-16.872,0C172.755,436.043,172.789,435.603,172.822,435.162z"/>
<path style="fill-rule:evenodd;clip-rule:evenodd;" d="M694.289,415.211c5.513-0.432,11.025-0.863,16.538-1.295
	c0.031,0.719,0.062,1.435,0.093,2.152c-5.535,0-11.07,0-16.605,0C694.307,415.782,694.299,415.497,694.289,415.211z"/>
<path style="fill-rule:evenodd;clip-rule:evenodd;" d="M337.971,345.842c-3.802,0.477-7.604,0.954-11.407,1.432
	c-0.087-0.899-0.174-1.799-0.261-2.7c3.821-0.341,7.642-0.682,11.462-1.022C337.834,344.314,337.903,345.077,337.971,345.842z"/>
<path style="fill-rule:evenodd;clip-rule:evenodd;" d="M700.991,440.236c3.717-0.302,10.801-0.874,17.885-1.448
	c0.028,0.482,0.058,0.966,0.087,1.448C711.899,440.236,704.836,440.236,700.991,440.236z"/>
<path style="fill-rule:evenodd;clip-rule:evenodd;" d="M478.83,489.05c1.343-3.107,2.687-6.216,4.03-9.323
	c0.805,0.325,1.609,0.648,2.414,0.973c-1.208,3.153-2.416,6.306-3.623,9.46C480.711,489.789,479.771,489.42,478.83,489.05z"/>
<path style="fill-rule:evenodd;clip-rule:evenodd;" d="M251.16,393.956c-3.192,0.233-6.386,0.467-9.578,0.701
	c-0.045-0.719-0.09-1.438-0.136-2.155c3.182,0,6.364,0,9.546,0C251.049,392.986,251.104,393.471,251.16,393.956z"/>
</svg>
