<?xml version="1.0" encoding="UTF-8" standalone="no"?>
<!-- Created with Inkscape (http://www.inkscape.org/) -->

<svg
   xmlns:dc="http://purl.org/dc/elements/1.1/"
   xmlns:cc="http://creativecommons.org/ns#"
   xmlns:rdf="http://www.w3.org/1999/02/22-rdf-syntax-ns#"
   xmlns:svg="http://www.w3.org/2000/svg"
   xmlns="http://www.w3.org/2000/svg"
   xmlns:sodipodi="http://sodipodi.sourceforge.net/DTD/sodipodi-0.dtd"
   xmlns:inkscape="http://www.inkscape.org/namespaces/inkscape"
   width="11in"
   height="8.5in"
   viewBox="0 0 990 765"
   id="svg2"
   version="1.1"
   inkscape:version="0.91 r"
   sodipodi:docname="MyFrontPorch.svg">
  <defs
     id="defs4" />
  <sodipodi:namedview
     id="base"
     pagecolor="#ffffff"
     bordercolor="#666666"
     borderopacity="1.0"
     inkscape:pageopacity="0.0"
     inkscape:pageshadow="2"
     inkscape:zoom="0.64444444"
     inkscape:cx="495"
     inkscape:cy="444.56897"
     inkscape:document-units="px"
     inkscape:current-layer="layer1"
     showgrid="false"
     units="in"
     inkscape:window-width="1366"
     inkscape:window-height="717"
     inkscape:window-x="0"
     inkscape:window-y="25"
     inkscape:window-maximized="1" />
  <metadata
     id="metadata7">
    <rdf:RDF>
      <cc:Work
         rdf:about="">
        <dc:format>image/svg+xml</dc:format>
        <dc:type
           rdf:resource="http://purl.org/dc/dcmitype/StillImage" />
        <dc:title></dc:title>
      </cc:Work>
    </rdf:RDF>
  </metadata>
  <g
     inkscape:label="Layer 1"
     inkscape:groupmode="layer"
     id="layer1"
     transform="translate(0,-287.3622)">
    <path
       inkscape:connector-curvature="0"
       id="path4218"
       d="m 756.29385,982.74192 c -0.83814,-2.20446 -1.8507,-2.80256 -4.73834,-2.79882 -2.01982,0.002 -11.4944,-0.96588 -21.05462,-2.15221 -9.56021,-1.18633 -27.4751,-2.99721 -39.81086,-4.02419 -12.33576,-1.02697 -24.19491,-2.30803 -26.35367,-2.8468 -4.455,-1.11185 -17.75603,-3.06523 -49.34305,-7.24649 -12.02736,-1.5921 -23.83827,-3.41836 -26.24646,-4.05836 -2.4082,-0.64 -8.36655,-1.79821 -13.2408,-2.57382 -8.4341,-1.34206 -8.93806,-1.30201 -10.43076,0.82913 -1.29764,1.85264 -1.86378,1.99425 -3.27862,0.82003 -1.41678,-1.17583 -2.82008,-0.79969 -8.1801,2.19252 -8.74172,4.88004 -13.75926,8.7567 -13.75926,10.6307 0,0.93356 -1.45519,1.69434 -3.64465,1.90544 -3.05789,0.29484 -3.70282,0.85857 -4.00589,3.50158 -0.4931,4.30005 -3.3314,5.15236 -5.96417,1.79097 -1.98027,-2.52831 -2.20859,-2.57466 -3.62479,-0.73577 -2.03084,2.637 -4.06772,2.48271 -4.06772,-0.30811 0,-2.69459 -2.72662,-3.8947 -11.21433,-4.93594 -3.39233,-0.41615 -14.99916,-1.95174 -25.79295,-3.41241 -10.79379,-1.46066 -25.42849,-3.25266 -32.52155,-3.98221 -7.09307,-0.72956 -15.67203,-2.00929 -19.06436,-2.84385 -5.71514,-1.40601 -20.93422,-3.9355 -47.10018,-7.82831 -5.85949,-0.87174 -12.41987,-2.06149 -14.57863,-2.6439 -2.15875,-0.5824 -9.98075,-1.37652 -17.3822,-1.76471 -7.40146,-0.38819 -17.38737,-1.24676 -22.19092,-1.90793 -7.7057,-1.06066 -8.98075,-0.97859 -10.83241,0.69713 -1.97455,1.78695 -2.16461,1.7815 -3.21315,-0.0922 -0.91257,-1.63066 -1.42079,-1.73721 -2.80531,-0.58816 -1.16222,0.96456 -1.92146,1.03011 -2.42852,0.20967 -0.40573,-0.65648 -1.01957,-16.44249 -1.3641,-35.08003 -0.52162,-28.21752 -0.90597,-34.09085 -2.29748,-35.10835 -1.47453,-1.0782 -1.45773,-1.63446 0.14283,-4.7296 3.17743,-6.14448 5.01918,-5.50582 -25.1005,-8.70402 -25.48628,-2.70622 -48.55532,-3.85578 -50.20515,-2.50179 -1.01734,0.83492 -2.00128,0.64421 -3.4526,-0.66922 -2.68364,-2.42866 -4.33765,-2.31746 -6.03844,0.40595 -1.76022,2.81856 -3.87187,2.8808 -4.74183,0.13976 -0.87457,-2.75551 -6.51451,-3.78496 -40.41594,-7.37704 -14.80292,-1.56847 -31.64827,-3.70125 -37.43413,-4.7395 -10.24711,-1.83882 -10.56205,-1.83159 -12.15283,0.27843 -1.60015,2.12248 -1.66782,2.11527 -3.3546,-0.35706 -0.94682,-1.38777 -2.60789,-2.52322 -3.69126,-2.52322 -1.77198,0 -2.05125,1.95625 -2.78148,19.4845 -0.54853,13.16677 -0.42371,20.20954 0.38498,21.7206 1.6365,3.05781 14.44061,5.8342 52.86144,11.46227 16.96167,2.48463 35.12888,5.23445 40.37158,6.1107 5.2427,0.87627 18.11114,2.17632 28.59653,2.889 10.4854,0.71269 22.59688,1.77152 26.91439,2.35296 4.31752,0.58143 13.90577,1.75819 21.30722,2.61502 13.69326,1.5852 20.04199,3.43706 19.23359,5.61024 -0.24728,0.66471 -0.89115,1.1569 -1.43084,1.09377 -0.53969,-0.0631 -4.51377,-0.68243 -8.83128,-1.3762 -12.83261,-2.06205 -45.85567,-5.64218 -64.48239,-6.99073 -9.56021,-0.69215 -20.6624,-1.95756 -24.67152,-2.81202 -4.00912,-0.85445 -20.53622,-3.33729 -36.72689,-5.5174 -16.19067,-2.18013 -32.22555,-4.69003 -35.63309,-5.57758 -7.03187,-1.83153 -15.84491,-2.38376 -18.75644,-1.17524 -1.1218,0.46564 -1.96251,0.3226 -1.96251,-0.3339 0,-1.46409 -9.75156,-3.5772 -16.508029,-3.5772 -3.154386,0 -5.951126,0.69487 -7.144866,1.77518 -1.80383,1.63245 -2.066896,1.57837 -3.27151,-0.67247 -0.948404,-1.77211 -2.055972,-2.30504 -4.012944,-1.93095 -6.04615,1.1558 -6.218307,0.369 -6.903339,-31.54985 l -0.632208,-29.45748 -2.631492,0.66047 c -4.532861,1.13767 -2.945197,-1.28321 7.119022,-10.85518 5.362782,-5.10048 11.537951,-11.29218 13.722599,-13.75933 2.184646,-2.46715 7.685937,-8.18082 12.225077,-12.69703 l 8.253,-8.21131 -1.37103,-29.967 c -1.63071,-35.64298 -1.09856,-76.8032 1.04378,-80.73305 2.61577,-4.79828 3.23747,-0.91272 2.30702,14.41867 -0.91702,15.11024 -0.36858,61.6899 1.01994,86.62466 0.40339,7.24395 0.4531,16.8322 0.11045,21.30722 -0.34264,4.47503 -0.40932,10.81307 -0.14818,14.08453 0.45161,5.65769 0.61836,5.93148 3.41484,5.60717 l 2.94005,-0.34096 0.31729,-12.63715 c 0.26408,-10.51813 0.029,-12.74776 -1.40179,-13.29682 -1.80433,-0.69238 -2.41901,-3.784 -0.75234,-3.784 2.35686,0 3.31673,-14.95562 2.62708,-40.9323 -1.1371,-42.83124 -0.96594,-71.5243 0.42943,-71.99045 1.37863,-0.46055 3.41144,64.52131 2.83672,90.68005 -0.38199,17.38702 -0.46989,17.21189 8.84009,17.61199 2.77555,0.11928 12.86844,0.94541 22.42866,1.83585 23.74395,2.21152 56.28781,4.07413 57.09319,3.26766 0.88193,-0.88313 0.46057,-113.0773 -0.43529,-115.8999 -0.64474,-2.03141 -1.92957,-2.23336 -16.19409,-2.54526 -8.52158,-0.18634 -16.39541,-0.16072 -17.49741,0.057 -1.87918,0.37118 -1.94459,1.69451 -1.05326,21.30723 1.00628,22.14163 0.94056,51.52414 -0.17042,76.20152 -0.5867,13.03185 -0.90489,14.87267 -2.51608,14.55629 -2.05056,-0.40266 -2.13728,-2.61267 -0.91449,-23.30688 1.45614,-24.64342 1.74051,-43.35871 0.73269,-48.22161 -0.57521,-2.77555 -1.39299,-13.07448 -1.81727,-22.88654 l -0.77142,-17.84009 -37.10497,0.65653 c -43.506862,0.7698 -98.775257,-0.4051 -100.506745,-2.13658 -2.690303,-2.69031 1.735118,-3.39369 15.180157,-2.41276 20.053843,1.4631 160.707738,0.42857 162.330288,-1.19397 3.95877,-3.95877 0.6991,-4.09924 -86.97016,-3.7476 -46.999162,0.18852 -86.399155,0.621 -87.555537,0.96108 -1.156382,0.34008 -2.515288,-0.0496 -3.019791,-0.86586 -0.957227,-1.54883 0.678154,-4.363 2.53544,-4.363 2.443356,0 15.748525,-10.76884 27.281902,-22.08123 6.797602,-6.66736 22.946235,-20.9169 35.885856,-31.66566 12.93961,-10.74876 27.81605,-23.1331 33.05875,-27.52076 5.2427,-4.38766 12.30773,-9.95443 15.70006,-12.37062 6.66469,-4.7469 25.51746,-20.79919 36.41428,-31.0051 3.71848,-3.48272 10.7861,-9.54439 15.7058,-13.47039 4.91971,-3.92599 9.61632,-8.39384 10.43692,-9.92855 1.19891,-2.24225 1.36359,-10.8065 0.83833,-43.59681 -0.35951,-22.44353 -0.92259,-41.24154 -1.25128,-41.77337 -0.32869,-0.53183 -1.3248,-0.96696 -2.21358,-0.96696 -2.28574,0 -2.01275,-3.2858 0.34654,-4.17107 1.07938,-0.40501 2.55935,-1.52462 3.28881,-2.48803 1.06214,-1.40277 1.60936,-1.47245 2.74751,-0.34985 2.31511,2.28346 11.75698,1.76955 14.12165,-0.76863 1.55099,-1.66479 3.19402,-2.08276 7.05265,-1.79414 2.76682,0.20696 5.9212,-0.0997 7.00973,-0.68152 1.45011,-0.77505 2.15665,-0.59524 2.6432,0.6727 0.36523,0.95178 1.3515,1.73051 2.1917,1.73051 0.84019,0 3.43559,0.96163 5.76754,2.13694 2.33194,1.17532 7.26777,2.47443 10.9685,2.88691 6.43334,0.71706 24.78587,5.76336 33.08227,9.09646 2.15875,0.86729 5.94359,1.9786 8.41074,2.46959 2.76941,0.55114 4.48573,1.51712 4.48573,2.52466 0,2.328 -4.13833,1.66209 -18.87185,-3.03668 -16.12845,-5.14365 -25.01465,-7.27383 -42.65779,-10.22584 l -3.21513,-0.53795 0.81997,30.14487 c 0.451,16.57967 0.9807,30.32115 1.17712,30.53661 0.19643,0.21546 7.33812,-5.59843 15.87045,-12.91976 8.53232,-7.32133 17.39756,-14.81496 19.70054,-16.65252 2.46801,-1.96923 4.18726,-4.31719 4.18729,-5.7185 4e-5,-3.15751 5.70028,-4.57938 21.86797,-5.45476 6.78467,-0.36734 15.61595,-1.15544 19.62507,-1.75133 4.00913,-0.59589 15.36363,-1.56582 25.23224,-2.15541 9.86861,-0.58959 28.54047,-2.41084 41.49302,-4.04721 12.95255,-1.63638 30.61511,-3.36746 39.25015,-3.84685 14.77474,-0.82025 25.51356,-2.161 35.88585,-4.48037 5.40904,-1.20953 28.14226,-3.66325 62.23952,-6.71786 13.87773,-1.24323 30.531,-2.76658 37.00728,-3.38521 6.47627,-0.61862 17.32614,-1.40483 24.1108,-1.74713 6.78467,-0.34229 16.75141,-1.09563 22.1483,-1.67408 5.3969,-0.57846 14.4805,-1.54973 20.18579,-2.15839 5.70529,-0.60866 11.60443,-1.39927 13.10921,-1.7569 1.50476,-0.35764 9.8314,-1.34998 18.50364,-2.20519 8.67223,-0.85521 25.58636,-2.58783 37.58695,-3.85026 12.0006,-1.26243 28.40155,-2.29964 36.44657,-2.30492 8.04502,-0.005 20.1784,-0.49894 26.96306,-1.09703 30.64997,-2.70189 39.24824,-3.39376 55.9541,-4.50245 9.80394,-0.65065 20.14435,-1.70269 22.97867,-2.33787 2.83431,-0.63519 10.20456,-1.85717 16.37833,-2.71552 6.17376,-0.85836 14.50521,-2.05224 18.51434,-2.65308 4.00912,-0.60084 13.25477,-1.69979 20.54589,-2.4421 10.82529,-1.10214 13.4971,-1.73481 14.56803,-3.44963 1.45387,-2.32801 4.13622,-2.83803 4.13622,-0.78646 0,0.72242 0.82662,2.22689 1.83692,3.34326 1.26482,1.39761 1.49322,2.47291 0.73335,3.4526 -1.79155,2.30985 -1.40492,12.96749 0.90011,24.81119 1.18308,6.07893 2.3734,11.41237 2.64517,11.85208 0.78681,1.27308 4.70711,26.48591 8.47011,54.47418 1.90732,14.18612 4.19994,30.6473 5.0947,36.58039 0.89478,5.93308 1.62687,13.03538 1.62687,15.78288 0,5.35442 1.97111,19.39573 5.63692,40.15493 2.60818,14.76989 3.34673,19.3587 7.21967,44.85731 1.54576,10.17701 3.36669,23.29777 4.04652,29.15726 0.67982,5.85948 1.74325,11.60471 2.36319,12.76716 0.89848,1.68477 0.51824,2.70853 -1.87439,5.04645 l -3.00154,2.93289 -1.72481,-2.52322 c -1.61753,-2.36629 -2.51369,-2.52322 -14.40892,-2.52322 -11.69922,0 -12.7394,0.17415 -13.39599,2.24286 -0.85274,2.68677 -2.61333,2.9221 -3.55244,0.47482 -0.37315,-0.97244 -1.87125,-2.22156 -3.32909,-2.77583 -2.87925,-1.09469 -3.65811,-4.42759 -1.03468,-4.42759 2.48591,0 2.76536,-1.25459 1.62767,-7.30755 -2.49103,-13.25325 -5.82799,-33.29109 -7.18705,-43.15692 -0.80719,-5.85949 -2.83414,-17.21399 -4.50437,-25.23224 -2.65073,-12.7254 -3.45961,-14.97391 -6.36316,-17.68813 -4.73386,-4.4252 -10.67597,-6.82769 -17.09353,-6.91118 -4.96839,-0.0646 -5.62084,-0.36636 -6.21843,-2.87579 -0.3672,-1.54197 -1.3876,-2.80358 -2.26754,-2.80358 -1.11219,0 -3.42459,6.32412 -7.58589,20.7465 -3.2923,11.41058 -9.19766,30.58708 -13.12304,42.61445 -6.97141,21.36045 -12.91519,42.80944 -12.91519,46.60629 0,1.68359 1.03901,1.81917 9.25182,1.20734 19.17076,-1.42815 24.60383,-2.51314 26.80731,-5.3534 l 2.05537,-2.64937 0.67151,2.41955 c 0.36932,1.33075 1.6873,2.68518 2.92883,3.00985 2.88661,0.75486 2.05804,3.42856 -1.21117,3.90834 -4.30965,0.63246 -4.94182,4.75541 -3.4688,22.6231 1.45242,17.61778 1.6908,121.60366 0.4,174.49142 -0.71811,29.42335 -0.29244,38.5808 1.79337,38.5808 0.54884,0 2.41839,-2.07337 4.15456,-4.60749 1.73616,-2.53413 8.46872,-10.48228 14.96123,-17.66257 18.18383,-20.11011 16.79197,-15.8853 16.79197,-50.96961 0,-27.20131 0.59045,-33.51306 2.80055,-29.93704 1.17122,1.89506 2.46419,60.8197 1.42119,64.76764 -0.75549,2.8597 -1.55532,3.64466 -3.71373,3.64466 -1.51298,0 -2.75088,0.47054 -2.75088,1.04564 0,0.57512 -3.98659,5.34876 -8.85908,10.60811 -4.8725,5.25934 -10.77487,11.97998 -13.11638,14.93476 -2.34151,2.95478 -5.72231,6.96191 -7.51288,8.90473 -2.19644,2.38319 -3.03472,4.22832 -2.5767,5.67146 0.48604,1.53137 -0.26017,2.83333 -2.62669,4.58298 l -3.30561,2.44394 -2.38492,-3.3493 c -1.3513,-1.89773 -3.40556,-3.34931 -4.73991,-3.34931 -1.29526,0 -5.51675,-0.5506 -9.38112,-1.22355 -7.72486,-1.34523 -11.79788,-3.5324 -9.97909,-5.35868 0.75041,-0.75351 4.08957,-0.42014 10.09289,1.00763 4.93431,1.17354 10.35924,2.15093 12.0554,2.17201 l 3.08394,0.0383 0.069,-33.92334 c 0.0379,-18.65784 0.41643,-47.29643 0.84108,-63.64131 0.90755,-34.93294 0.57984,-99.99776 -0.62413,-123.91832 l -0.84667,-16.82149 -2.80358,0.18685 c -1.54197,0.10272 -9.27697,0.55879 -17.18889,1.01337 -13.87011,0.79694 -14.45037,0.93081 -16.20173,3.73818 -0.99902,1.60139 -2.0104,3.16315 -2.2475,3.47058 -0.23711,0.30742 -1.08287,-0.33239 -1.87948,-1.42181 -1.35231,-1.84941 -1.57192,-1.79217 -3.31169,0.86304 -1.75151,2.67314 -1.74321,2.88254 0.13827,3.48944 1.10088,0.35509 3.34548,1.14602 4.98801,1.75761 l 2.98642,1.11196 -0.64436,11.95975 c -0.79738,14.79924 -0.38855,77.28538 0.63954,97.74935 0.41832,8.32664 0.49149,25.48456 0.16261,38.12871 -0.33876,13.02348 -0.1577,23.59705 0.41766,24.39117 0.61596,0.85013 0.57781,1.95344 -0.0969,2.80358 -0.61193,0.77098 -1.70883,3.25384 -2.43755,5.51746 -1.50737,4.68234 -3.96205,7.31476 -5.10157,5.47096 -1.44828,-2.34335 -3.92884,-1.01042 -15.61595,8.39128 -10.33033,8.3102 -11.89283,10.00822 -11.89283,12.92423 0,2.59393 -0.67099,3.61218 -2.9517,4.47931 -1.62345,0.61723 -3.81457,0.84838 -4.86918,0.51365 -2.13947,-0.67904 -12.1245,5.65648 -24.58935,15.60198 -8.1905,6.53506 -10.20422,9.05607 -10.20422,12.7748 0,1.19889 -1.06193,2.8849 -2.35984,3.74667 -2.2934,1.52276 -2.35505,2.29115 -2.18972,27.29122 0.0935,14.14839 0.37551,25.92975 0.62656,26.18079 0.65148,0.65148 32.02299,-29.05402 58.13289,-55.04567 19.80349,-19.7138 25.41184,-24.39365 25.41184,-21.20475 0,1.68921 -38.76748,40.89476 -48.38952,48.93631 -15.12015,12.63658 -33.631,31.96966 -32.87889,34.33936 0.45998,1.44928 -0.30494,2.50282 -2.72629,3.75495 -4.72478,2.44327 -6.73153,2.17535 -7.96279,-1.06313 z m 4.0237,-33.92334 c -0.23657,-15.2655 -0.48171,-27.86866 -0.54477,-28.00702 -0.063,-0.13836 -1.50241,-0.95547 -3.19857,-1.81582 -3.67376,-1.86343 -10.89962,-1.77984 -12.82786,0.1484 -1.08409,1.08409 -1.87344,0.74715 -3.74328,-1.59784 -2.82385,-3.54145 -7.23319,-4.34735 -33.05227,-6.04098 -21.98403,-1.44206 -34.01956,-2.57794 -57.19307,-5.39773 -10.177,-1.23834 -26.07331,-3.06992 -35.32513,-4.07016 -9.25182,-1.00023 -18.74538,-2.32917 -21.0968,-2.9532 -2.35142,-0.62402 -7.80219,-1.16777 -12.11283,-1.20834 -6.31084,-0.0594 -8.12525,0.31975 -9.31462,1.94631 -1.40008,1.91471 -1.54723,1.88904 -2.82158,-0.49212 -0.97631,-1.82425 -2.16834,-2.417 -4.353,-2.16461 -2.76653,0.31961 -3.00852,0.75345 -3.00852,5.39401 0,3.73811 0.43612,5.04645 1.68215,5.04645 1.4206,0 1.73399,3.13865 2.01552,20.18579 0.31917,19.32624 0.43856,20.26173 2.80358,21.96938 2.65969,1.9204 18.57385,5.72506 32.18819,7.69534 42.07228,6.08876 55.71278,8.14057 63.92167,9.6151 5.2427,0.94172 16.09256,2.20489 24.1108,2.80703 24.04771,1.80593 39.71371,3.27939 52.14663,4.90461 6.47627,0.84658 13.66028,1.59586 15.96447,1.66505 l 4.18943,0.12581 -0.43014,-27.75546 z m -233.91743,17.58457 c 0,-6.41725 -0.14433,-6.78609 -2.52322,-6.44824 -2.26031,0.32101 -2.48222,0.88419 -2.12967,5.40481 0.38738,4.96725 1.73467,7.85003 3.66877,7.85003 0.54127,0 0.98412,-3.06297 0.98412,-6.8066 z m -8.03744,0.2443 c 1.22651,-8.66502 -1.08175,-9.58631 -28.40913,-11.3388 -10.48539,-0.67241 -21.58758,-1.70666 -24.67152,-2.29832 -3.08394,-0.59166 -14.69077,-2.3779 -25.79295,-3.96941 -11.10219,-1.59153 -25.23224,-3.8738 -31.40012,-5.07173 -6.16788,-1.19792 -18.784,-2.92585 -28.03582,-3.83984 -9.25182,-0.91399 -20.35401,-2.17467 -24.67152,-2.80152 -18.21299,-2.64425 -35.54308,-4.48734 -36.51945,-3.88391 -1.25475,0.77548 -1.36294,6.13502 -0.16196,8.02412 1.24091,1.95194 9.99002,3.64628 19.46062,3.76873 8.62655,0.11158 23.30704,1.82381 46.93876,5.47473 7.70985,1.19111 19.31668,2.98009 25.79295,3.97548 6.47628,0.99541 14.55059,2.50487 17.94293,3.35436 3.39233,0.84948 13.48523,2.35122 22.42865,3.3372 8.94343,0.98597 21.81187,2.57497 28.59654,3.5311 39.89374,5.62201 37.96454,5.53493 38.50202,1.73781 z m 39.1216,-14.08736 3.60905,-3.46115 0.0355,-14.16747 c 0.0333,-13.23993 -0.11125,-14.20588 -2.20726,-14.754 -1.907,-0.49869 -2.25532,-1.56786 -2.32599,-7.13975 -0.21621,-17.04498 -3.29377,-21.68164 -6.99052,-10.53194 -2.15804,6.50882 -1.77999,11.26803 0.89506,11.26803 2.56444,0 3.42065,5.68089 2.81428,18.67254 l -0.56071,12.0135 -3.30793,0.88068 c -1.81937,0.48437 -3.58562,0.60404 -3.92501,0.26594 -0.3394,-0.33809 -0.78581,-5.74633 -0.99202,-12.01831 -0.20622,-6.27199 -0.79697,-11.84297 -1.3128,-12.37997 -0.51582,-0.537 -2.99649,3.22358 -5.51259,8.35685 -2.5161,5.13326 -4.57473,9.42239 -4.57473,9.5314 0,0.10901 1.51394,0.82531 3.3643,1.59175 3.3313,1.37987 3.3643,1.47932 3.3643,10.13723 0,12.74616 0.10698,12.86743 7.67132,8.69585 3.49062,-1.92502 7.97066,-5.05755 9.95564,-6.96118 z m -31.34306,-25.14148 c 0.28222,-23.24535 -0.19896,-27.53315 -2.64552,-23.57454 -0.58883,0.95275 -1.07513,44.54736 -0.54339,48.71262 0.046,0.3598 0.71432,0.44422 1.4853,0.1876 1.05287,-0.35042 1.47692,-6.6543 1.70361,-25.32568 z m -7.59113,12.01084 c 0,-5.47557 -0.39875,-9.95558 -0.88611,-9.95558 -0.48736,0 -6.41694,-0.73259 -13.17684,-1.62796 -6.75989,-0.89539 -19.35575,-2.43208 -27.99078,-3.41488 -17.44949,-1.98601 -42.91011,-5.42815 -58.31451,-7.88381 -5.55109,-0.88491 -20.18579,-2.65057 -32.52155,-3.92369 -12.33576,-1.27313 -27.88491,-3.07313 -34.55366,-4.00003 -14.99523,-2.08418 -16.47153,-1.7233 -16.47153,4.02645 0,3.58869 0.41796,4.39366 2.43538,4.69052 3.5879,0.52794 3.79861,2.97913 0.3682,4.28337 -1.64224,0.62438 -2.7842,1.74028 -2.5377,2.4798 0.50722,1.52166 22.89228,5.95191 35.61997,7.04958 4.62591,0.39895 14.21416,1.71852 21.30722,2.93238 26.54066,4.542 32.12964,5.41509 38.68944,6.04391 6.02357,0.57741 18.05247,2.17987 70.08955,9.33716 9.89814,1.36141 15.62464,1.70772 16.54113,1.00033 0.93492,-0.72161 1.40179,-4.39776 1.40179,-11.03755 z m -25.23224,3.5194 c -17.72636,-2.6337 -24.1108,-4.3406 -24.1108,-6.44608 0,-1.27871 0.86444,-1.52007 3.64465,-1.01757 2.00457,0.3623 11.21433,1.69048 20.46615,2.95152 21.0918,2.87483 21.86794,3.055 21.86794,5.07642 0,2.14723 -4.37824,2.03425 -21.86794,-0.56429 z m -44.29659,-6.40261 c -4.90969,-0.37537 -33.04492,-3.7056 -50.91727,-6.02684 -4.87495,-0.63315 -9.76206,-1.63206 -10.86025,-2.2198 -1.09818,-0.58773 -4.15313,-1.0686 -6.78877,-1.0686 -7.04028,0 -32.48832,-3.27735 -35.61721,-4.587 -1.81493,-0.75966 -2.32401,-1.49734 -1.56036,-2.26099 0.76365,-0.76366 9.32604,0.023 26.24391,2.41109 13.81075,1.9495 27.38136,3.77688 30.1569,4.06085 11.02202,1.12768 51.21101,6.07411 54.10914,6.65971 2.96382,0.59888 4.55403,4.01471 1.68215,3.61331 -0.77099,-0.10777 -3.6727,-0.36953 -6.44824,-0.58173 z m -115.50758,-6.94158 c 0,-1.32549 -4.05869,-2.33959 -9.43873,-2.35835 -5.47934,-0.0191 -4.42064,1.2665 1.88988,2.29492 7.00919,1.14229 7.54885,1.14682 7.54885,0.0635 z m 185.51975,-14.98978 c -0.42565,-4.47171 -1.20265,-8.96065 -1.72665,-9.97542 -1.3498,-2.61398 -8.35198,-3.91609 -35.20326,-6.54628 -12.95254,-1.26875 -26.83028,-2.77753 -30.8394,-3.35284 -28.05992,-4.02665 -42.20334,-5.7746 -58.97174,-7.28816 -10.53848,-0.95124 -22.88249,-2.19682 -27.43115,-2.76798 -4.54864,-0.57114 -9.67782,-0.75693 -11.39816,-0.41287 -2.68689,0.53738 -3.1279,1.16314 -3.1279,4.43818 0,3.0349 0.57187,4.03001 2.80358,4.87851 3.57679,1.35989 3.55269,2.66296 -0.0798,4.31806 -1.7977,0.81909 -2.74323,2.04186 -2.51107,3.24737 0.40398,2.09771 -0.50843,1.93697 42.96249,7.56856 12.33576,1.59808 27.47511,3.61587 33.64299,4.48399 6.16788,0.86813 17.27006,2.13592 24.67152,2.81731 7.40146,0.6814 18.75596,1.72694 25.23224,2.32343 6.47627,0.59649 17.57846,1.75813 24.67152,2.58141 20.35282,2.3623 18.2052,3.14582 17.30483,-6.31327 z m -75.8997,-7.19094 c 0.77099,-0.31109 2.0326,-0.31109 2.80359,0 0.77098,0.3111 0.14018,0.56564 -1.40179,0.56564 -1.54197,0 -2.17278,-0.25454 -1.4018,-0.56564 z m -64.97301,-7.87339 c 0.80953,-0.32395 1.77678,-0.28411 2.14942,0.0885 0.37264,0.37264 -0.28971,0.6377 -1.47188,0.589 -1.30642,-0.0538 -1.57214,-0.31954 -0.67754,-0.67752 z m -64.06677,19.62015 c -0.35799,-0.8946 -0.62372,-0.62887 -0.67753,0.67754 -0.0487,1.18217 0.21636,1.84452 0.589,1.47188 0.37264,-0.37264 0.41248,-1.33989 0.0885,-2.14942 z m 11.547,0.64922 c 4.39277,-1.75764 4.50843,-1.94292 4.50843,-7.22312 0,-6.07411 -1.18789,-7.5678 -3.8786,-4.87708 -1.6778,1.6778 -7.33573,11.94059 -7.33573,13.30612 0,1.0288 2.03577,0.6627 6.7059,-1.20592 z m -10.84597,-32.69497 c -0.33429,-3.24627 -1.05346,-6.17777 -1.59816,-6.51441 -1.1952,-0.73868 -1.31187,26.23373 -0.14103,32.60255 0.67139,3.65198 0.96614,2.19293 1.58582,-7.85003 0.41864,-6.78467 0.48766,-14.99182 0.15337,-18.23811 z m 445.51282,21.52274 c 0.41321,-2.20258 0.37004,-11.66467 -0.0959,-21.02686 -0.46595,-9.3622 -0.78763,-23.43232 -0.71483,-31.26693 0.12492,-13.44336 -0.006,-14.34109 -2.31307,-15.95758 l -2.44543,-1.71284 2.38542,-2.54606 c 1.79258,-1.91329 2.11342,-3.03011 1.29096,-4.4937 -0.744,-1.32398 -0.6556,-2.7604 0.27605,-4.48573 1.03571,-1.91805 1.38975,-19.71544 1.44921,-72.85165 0.0507,-45.28794 0.4778,-70.70567 1.2001,-71.41522 0.61679,-0.60591 2.63537,-1.26207 4.48573,-1.45813 l 3.3643,-0.35648 0.31468,50.46447 c 0.17309,27.75546 -0.17073,58.03415 -0.76404,67.28597 -0.59329,9.25182 -0.73491,17.16253 -0.31468,17.57935 0.42022,0.41683 8.63689,-3.11568 18.25928,-7.85002 l 17.49522,-8.6079 0.83688,-10.76443 c 0.4603,-5.92045 0.21559,-26.68219 -0.5438,-46.13724 -0.75938,-19.45503 -1.14778,-42.24033 -0.8631,-50.634 l 0.51755,-15.26122 -5.90561,0 -5.90561,0 -0.78046,5.20446 c -0.92931,6.19706 -1.06617,24.91256 -0.55239,75.5387 0.2097,20.6624 0.0197,39.2081 -0.42219,41.21266 -0.8028,3.64164 -3.98956,5.18707 -3.98956,1.93475 0,-0.94045 -1.24864,-2.18464 -2.77478,-2.76488 l -2.77477,-1.05497 0.339,-59.98941 c 0.23818,-42.14799 -0.0205,-60.12406 -0.86988,-60.44218 -1.36669,-0.51188 -52.9345,0.0183 -121.20219,1.24612 -25.28831,0.45482 -52.98777,0.41094 -61.55436,-0.0976 -10.85981,-0.64457 -15.94408,-0.55601 -16.79261,0.29252 -0.66934,0.66934 -1.16965,3.3495 -1.11177,5.95589 0.43045,19.38688 0.49451,19.98578 2.20802,20.64331 0.95036,0.36469 2.54358,-0.15259 3.5405,-1.14951 1.58603,-1.58602 2.03668,-1.60977 3.60564,-0.18987 2.06203,1.8661 12.33406,2.42731 64.77777,3.53909 l 33.92335,0.71915 0.0646,-8.2902 c 0.0355,-4.55961 0.41403,-10.20449 0.84108,-12.54418 1.38807,-7.60497 3.01931,-3.96792 3.01931,6.73197 0,13.97965 0.61406,14.59396 12.51064,12.51582 7.24807,-1.26612 8.99145,-1.9808 9.90358,-4.05984 1.3981,-3.18676 2.07802,-3.16128 5.44325,0.20394 2.98455,2.98457 3.42336,8.05637 0.95439,11.03129 -1.10482,1.33124 -1.49581,10.88551 -1.67001,40.80968 -0.21372,36.70937 -0.099,39.26102 1.89734,42.20629 2.19665,3.24079 2.20793,3.15558 -1.41369,10.67801 -0.39111,0.81238 -5.35409,3.41935 -11.02883,5.79329 -9.82072,4.10832 -15.92383,7.5936 -16.00072,9.13744 -0.0194,0.38925 4.88505,1.07486 10.89873,1.52359 6.01369,0.44873 16.62399,1.4282 23.57845,2.1766 10.40698,1.11994 12.86335,1.09701 13.88134,-0.12959 0.87613,-1.05567 1.19308,-22.01152 1.08674,-71.85243 -0.0928,-43.52181 0.26227,-71.00021 0.93096,-72.03489 3.23874,-5.01144 3.52181,1.48506 3.19086,73.2294 l -0.33426,72.4581 3.71288,0.88578 c 4.85023,1.15709 4.67451,3.03596 -0.32515,3.47668 l -3.94841,0.3481 -0.004,19.83774 c -0.002,10.91074 -0.32963,26.95339 -0.72751,35.65029 l -0.72343,15.81257 3.53111,1.23094 c 4.25454,1.48314 4.58775,3.30942 0.69266,3.79637 -4.70127,0.58772 -3.6698,2.55233 1.71701,3.27035 10.00646,1.33376 9.92624,1.35613 10.74255,-2.99518 z m -19.97399,0.42117 c -0.66705,-2.00115 -5.28926,-2.91938 -21.0626,-4.1842 -7.84212,-0.62884 -15.48546,-1.60987 -16.9852,-2.18008 -2.91281,-1.10745 -11.91643,-1.97069 -66.54619,-6.38031 -19.12043,-1.54337 -41.07248,-3.77126 -48.78233,-4.95086 -8.43573,-1.29067 -14.42751,-1.73796 -15.04651,-1.12326 -2.27846,2.26268 2.19959,3.00927 71.11815,11.85666 16.96168,2.17746 38.6614,4.47455 48.22162,5.10467 9.56021,0.63009 22.42865,1.52829 28.59653,1.99598 18.11,1.37321 20.98398,1.35377 20.48653,-0.1386 z m 26.42251,-1.36923 c 1.03799,-2.70495 -2.93097,-53.6352 -4.02712,-51.6765 -1.12298,2.00664 1.42098,53.26495 2.64356,53.26495 0.42571,0 1.04831,-0.7148 1.38356,-1.58845 z m -443.33554,-4.49339 c 0,-0.87786 1.1939,-3.0226 2.65311,-4.76608 1.45921,-1.7435 4.03471,-5.90576 5.72333,-9.24947 2.9595,-5.86025 3.00536,-6.21547 1.27191,-9.85059 -2.65081,-5.5588 -2.25785,-9.09448 1.38945,-12.50157 1.85128,-1.72934 3.52016,-4.74956 3.98056,-7.20371 0.43603,-2.32423 1.77707,-4.84058 2.98011,-5.59189 1.20303,-0.7513 2.18732,-2.23016 2.18732,-3.28634 0,-3.9501 2.5465,-7.63305 5.27769,-7.63305 2.58461,0 2.66364,-0.25227 2.34322,-7.48029 -0.20008,-4.51363 -0.85974,-7.65473 -1.6633,-7.92012 -2.03292,-0.67141 -5.95761,3.8482 -5.95761,6.86069 0,1.58118 -1.09363,3.39118 -2.6751,4.42741 -1.47131,0.96404 -3.92645,3.92378 -5.45586,6.57721 -1.52941,2.65342 -5.38188,9.1139 -8.56103,14.3566 l -5.78028,9.53217 0.15316,17.66257 c 0.0842,9.71441 0.5987,17.66257 1.14324,17.66257 0.54455,0 0.99008,-0.71825 0.99008,-1.59611 z m 212.86105,-3.10217 c 2.73093,-0.31539 3.04647,-0.83813 3.35156,-5.55224 0.22091,-3.41346 1.0891,-5.88489 2.52322,-7.18276 1.43244,-1.29633 2.18644,-3.43935 2.18644,-6.21425 0,-3.4499 0.64017,-4.69141 3.45117,-6.69302 2.6758,-1.90533 3.30551,-3.03786 2.8028,-5.0408 -0.48402,-1.9285 0.1163,-3.18485 2.36826,-4.95623 2.52039,-1.98254 3.09464,-3.4513 3.49082,-8.92837 0.2608,-3.60552 -0.0272,-7.45148 -0.6401,-8.54659 -1.02856,-1.83793 -1.34232,-1.76309 -4.07806,0.97265 -2.20946,2.20946 -2.78898,3.6602 -2.277,5.70008 0.56656,2.25739 0.22969,2.80131 -1.9247,3.10762 -1.54071,0.21906 -3.23163,1.66914 -4.12395,3.53658 -1.30863,2.73871 -1.27122,3.43189 0.27762,5.14334 1.65175,1.82516 1.57292,2.23059 -1.01987,5.24546 -2.09984,2.44165 -2.81034,4.54545 -2.81136,8.32445 -0.001,3.84158 -0.54044,5.39371 -2.24423,6.45775 -1.25246,0.78216 -2.24287,2.6152 -2.24287,4.15108 0,1.51271 -1.05873,3.73676 -2.35275,4.94231 -1.92236,1.79097 -2.192,2.87596 -1.474,5.93122 0.53433,2.27368 1.04404,2.99666 1.30049,1.84459 0.24055,-1.0807 1.71695,-2.04428 3.43651,-2.24287 z m 245.24426,-2.70316 c 14.88141,-11.85127 15.77043,-12.66397 13.92022,-12.72533 -0.97891,-0.0324 -5.96621,3.23928 -11.08289,7.27053 -5.11668,4.03126 -10.24533,7.83384 -11.39699,8.45021 -1.15168,0.61635 -2.09395,1.60752 -2.09395,2.20261 0,2.32313 3.12247,0.79964 10.65361,-5.19802 z m -42.05373,2.84952 c 0,-0.58039 -0.50465,-1.05525 -1.12144,-1.05525 -0.61678,0 -1.12143,0.78675 -1.12143,1.74834 0,0.96158 0.50465,1.43644 1.12143,1.05524 0.61679,-0.38119 1.12144,-1.16795 1.12144,-1.74833 z m -393.62292,0.0662 c 0,-0.61678 -0.22254,-1.12143 -0.49453,-1.12143 -0.27199,0 -0.80642,0.50465 -1.18762,1.12143 -0.3812,0.61679 -0.15866,1.12144 0.49453,1.12144 0.65319,0 1.18762,-0.50465 1.18762,-1.12144 z m 381.28716,-1.25379 c 0,-0.61679 -0.50465,-0.80955 -1.12144,-0.42835 -0.61679,0.38119 -1.12143,1.19772 -1.12143,1.81451 0,0.61679 0.50464,0.80955 1.12143,0.42835 0.61679,-0.3812 1.12144,-1.19772 1.12144,-1.81451 z m -385.44237,-3.31687 c 4.2349,-1.51596 4.25393,-1.55071 3.92501,-7.16744 -0.29852,-5.09783 -0.58785,-5.6441 -2.98928,-5.6441 -2.07253,0 -3.37845,1.34689 -5.9227,6.10852 -3.1802,5.95184 -3.47038,9.79134 -0.66091,8.74494 0.76579,-0.28522 3.30733,-1.20409 5.64788,-2.04192 z m 361.89228,1.20637 c 0,-0.61679 -0.50465,-1.12144 -1.12144,-1.12144 -0.61678,0 -1.12143,0.50465 -1.12143,1.12144 0,0.61678 0.50465,1.12143 1.12143,1.12143 0.61679,0 1.12144,-0.50465 1.12144,-1.12143 z m -186.37188,-4.12787 c 0.30885,-2.15822 -0.30346,-2.49264 -5.60716,-3.06251 -3.27462,-0.35185 -12.51424,-1.34254 -20.53248,-2.20153 -8.01825,-0.859 -19.85194,-1.64693 -26.29709,-1.75097 -11.10063,-0.1792 -14.6905,-0.51952 -34.821,-3.3011 -4.62591,-0.63919 -14.71881,-1.72097 -22.42866,-2.40394 -7.70985,-0.68299 -17.2981,-1.96616 -21.30722,-2.85149 -4.00912,-0.88535 -8.80325,-1.52524 -10.65361,-1.42199 -1.85037,0.10328 -4.24318,-0.20101 -5.31735,-0.67613 -2.16867,-0.95921 -4.14827,2.17865 -2.40123,3.80616 1.35375,1.26112 63.29007,8.65294 93.78855,11.19324 34.50224,2.87379 43.16435,3.70678 47.38053,4.55637 6.25114,1.25965 7.79749,0.90383 8.19672,-1.88611 z m 8.54551,-4.84362 0.73354,-2.80358 -1.68919,2.80358 c -1.88257,3.12455 -2.37371,5.58189 -0.77327,3.86895 0.54746,-0.58595 1.32548,-2.32698 1.72892,-3.86895 z m 41.85814,3.55791 c 1.05395,-0.66916 1.14873,-2.27755 0.37747,-6.4059 -0.56641,-3.03181 -0.61947,-6.28069 -0.11792,-7.21972 1.16958,-2.18979 1.84259,-45.22823 0.86768,-55.48808 -0.42209,-4.44211 -0.28622,-8.35042 0.31553,-9.07548 0.62774,-0.75638 1.1744,-28.05928 1.34628,-67.24066 0.22803,-51.97969 0.59012,-66.06739 1.70763,-66.4398 1.13325,-0.37766 1.40811,13.09827 1.36787,67.06526 -0.0277,37.14583 0.12351,67.71176 0.33603,67.92427 0.46914,0.46915 14.07268,1.3663 34.44587,2.27169 16.00122,0.7111 20.02266,-0.36582 4.93343,-1.32116 -15.0672,-0.95394 -28.86695,-2.80791 -30.40571,-4.08498 -1.0538,-0.87457 -1.13307,-1.62549 -0.28005,-2.65331 0.82803,-0.99771 0.83224,-1.65446 0.0138,-2.16026 -0.64671,-0.3997 -1.17586,0.06 -1.17586,1.02159 0,1.00071 -0.9591,1.74834 -2.24287,1.74834 -2.66984,0 -2.48834,5.13301 -2.67449,-75.63891 l -0.12909,-56.01384 -5.04645,-0.2757 c -2.77554,-0.15163 -8.25168,-0.57541 -12.16918,-0.94175 -4.68247,-0.43788 -7.66005,-0.22014 -8.6911,0.63556 -1.81941,1.50997 -2.06061,22.73762 -0.54686,48.12718 0.49644,8.32664 0.51353,32.80191 0.038,54.38949 -0.47556,21.58758 -0.6149,39.50167 -0.30966,39.8091 0.51297,0.51664 1.33449,-0.41039 4.29662,-4.84845 0.74828,-1.12113 2.2555,-1.49579 4.52966,-1.126 l 3.40823,0.55421 -0.22706,37.19507 c -0.12489,20.45727 0.0155,38.07818 0.312,39.15756 0.56474,2.05601 3.32514,2.55531 5.72023,1.03468 z M 554.3582,764.34289 c -0.54732,-77.07442 -0.22164,-84.94853 3.5136,-84.94853 0.71493,0 0.82873,3.71649 0.3176,10.37325 -1.086,14.14388 -1.08726,17.62064 -0.0177,48.50197 0.51269,14.80291 0.94904,27.41903 0.96967,28.03582 0.16098,4.8118 -1.54275,39.66797 -2.01443,41.21265 -1.91079,6.25763 -2.48081,-2.6313 -2.76872,-43.17516 z m 1.19917,125.25393 c 0,-0.96159 -0.50464,-1.43645 -1.12143,-1.05525 -0.61679,0.3812 -1.12143,1.16795 -1.12143,1.74834 0,0.58038 0.50464,1.05524 1.12143,1.05524 0.61679,0 1.12143,-0.78675 1.12143,-1.74833 z m 69.61295,0.31851 c -0.13871,-1.3409 -1.67687,-1.08122 -2.15876,0.36446 -0.24672,0.74015 0.157,1.14386 0.89714,0.89715 0.74015,-0.24672 1.30788,-0.81444 1.26162,-1.26161 z M 112.97455,876.00704 c -0.27306,-7.81918 -0.75308,-14.63189 -1.06671,-15.13935 -0.31362,-0.50746 -1.6759,-0.95464 -3.02727,-0.99374 l -2.45704,-0.0711 2.48968,-1.0018 c 3.47488,-1.39823 4.2644,-5.6925 1.94515,-10.57994 -1.06066,-2.2352 -2.3553,-3.91806 -2.87697,-3.73971 -1.49604,0.51147 -19.026866,17.91786 -20.853172,20.70515 -1.838143,2.80536 -0.917957,5.88812 1.142529,3.82764 2.488934,-2.48893 3.013438,-0.98345 3.013438,8.64946 0,6.18034 0.502945,10.37155 1.345719,11.21433 0.840245,0.84025 5.007118,1.34572 11.093416,1.34572 l 9.7477,0 -0.49647,-14.21668 z m 501.80382,13.01114 c -0.22101,-0.66305 -0.88126,-1.20554 -1.46721,-1.20554 -0.58594,0 -1.24619,0.54249 -1.4672,1.20554 -0.22102,0.66305 0.43922,1.20554 1.4672,1.20554 1.02799,0 1.68823,-0.54249 1.46721,-1.20554 z m 89.92957,-1.53186 c 0,-1.50556 -0.50465,-3.04928 -1.12143,-3.43048 -0.65427,-0.40437 -1.12144,0.73597 -1.12144,2.73739 0,1.88677 0.50465,3.43049 1.12144,3.43049 0.61678,0 1.12143,-1.23183 1.12143,-2.7374 z m -100.92895,0.49453 c 0,-0.61678 -0.22254,-1.12143 -0.49453,-1.12143 -0.272,0 -0.80643,0.50465 -1.18762,1.12143 -0.3812,0.61679 -0.15866,1.12144 0.49453,1.12144 0.65319,0 1.18762,-0.50465 1.18762,-1.12144 z m 88.69846,-3.45455 c -1.01906,-2.54952 -1.08882,-2.47974 -1.15562,1.15562 -0.0488,2.65559 0.29133,3.50653 1.08453,2.71333 0.76522,-0.76522 0.78923,-2.07227 0.0711,-3.86895 z m -166.25681,-8.73416 c 6.15515,-11.78009 6.73233,-15.52782 2.20923,-14.345 -1.33581,0.34931 -6.16199,0.16179 -10.72488,-0.41673 -4.56287,-0.57851 -15.1968,-1.57277 -23.63095,-2.20947 -8.43414,-0.63669 -16.51676,-1.42249 -17.96137,-1.74621 -1.99175,-0.44634 -3.54824,0.38868 -6.44009,3.45494 -2.09745,2.22394 -4.29786,3.74421 -4.88979,3.37837 -0.67502,-0.41718 -1.0144,-33.84948 -0.91035,-89.67739 0.15515,-83.2471 0.0362,-89.29978 -1.83622,-93.45211 l -2.00211,-4.43987 -34.94404,-0.73571 c -53.80378,-1.13277 -56.29827,-1.14418 -57.72202,-0.26426 -1.86946,1.15539 -1.66161,5.75102 0.33505,7.4081 2.13735,1.77385 5.10633,0.64039 5.8587,-2.23667 0.79319,-3.03316 3.44642,-2.83809 3.89012,0.28602 0.32781,2.3081 1.17103,2.59798 9.89053,3.40004 14.00387,1.28814 43.73424,-0.12838 44.49856,-2.12016 0.67327,-1.75454 3.72305,-2.14978 3.72305,-0.4825 0,0.59277 1.10061,2.10313 2.4458,3.35637 l 2.44581,2.27861 -2.32051,2.53116 c -3.47154,3.78669 -4.02549,15.77101 -3.07935,66.61956 0.80164,43.08303 0.89191,44.4021 3.18985,46.61772 1.80092,1.73642 2.00021,2.41262 0.83572,2.83563 -0.84102,0.30552 -2.34095,1.50361 -3.33317,2.66244 -2.27261,2.65423 -3.28332,2.64606 -5.61156,-0.0454 -1.64365,-1.90007 -4.55671,-2.30795 -24.85127,-3.47959 -12.64416,-0.72996 -23.38996,-1.57109 -23.87957,-1.86918 -0.48962,-0.29808 -1.52259,-0.0172 -2.29552,0.62434 -2.08013,1.72635 -2.56664,34.89565 -0.53077,36.18668 0.81049,0.51396 4.35553,0.94221 7.87787,0.95165 3.52235,0.009 11.34434,0.5098 17.38221,1.11192 6.03788,0.60211 20.06156,1.88521 31.16375,2.85133 23.12685,2.01253 25.23224,2.35428 25.23224,4.09574 0,1.65299 -18.45618,0.80052 -54.68521,-2.52583 -14.96379,-1.3739 -27.53573,-2.16917 -27.93764,-1.76727 -0.4019,0.40191 -0.81264,6.56475 -0.91276,13.69521 -0.15149,10.78893 0.11457,13.11944 1.58556,13.88798 0.97218,0.50793 8.5803,1.49985 16.90694,2.20425 8.32664,0.70441 19.42883,2.00701 24.67152,2.89467 5.2427,0.88767 16.59721,2.14611 25.23224,2.79655 8.63503,0.65043 19.4849,1.66278 24.11081,2.24966 4.62591,0.58689 16.48506,1.6607 26.35367,2.38624 9.86861,0.72556 18.95221,1.71688 20.18579,2.20297 1.23358,0.48607 2.74751,0.7538 3.3643,0.59496 0.61679,-0.15884 3.81621,-5.44623 7.10983,-11.74976 z m 148.20861,9.31895 c 0,-0.96159 -0.50464,-1.43645 -1.12143,-1.05525 -0.61679,0.3812 -1.12143,1.16795 -1.12143,1.74834 0,0.58038 0.50464,1.05524 1.12143,1.05524 0.61679,0 1.12143,-0.78675 1.12143,-1.74833 z m -16.07879,-3.01776 c -0.31109,-0.77098 -0.56564,-0.14018 -0.56564,1.40179 0,1.54197 0.25455,2.17278 0.56564,1.40179 0.3111,-0.77098 0.3111,-2.03259 0,-2.80358 z m -294.90141,-4.92826 c 0.43322,-1.12892 -0.0979,-2.43344 -1.36935,-3.36312 -1.99715,-1.46034 -1.97663,-1.61238 0.53311,-3.95056 2.5152,-2.34327 2.57583,-2.80244 1.66601,-12.6173 -0.5193,-5.60205 -0.97574,-48.53853 -1.01429,-95.41442 -0.0386,-46.87589 -0.46998,-85.8597 -0.95875,-86.63068 -0.48875,-0.77099 -2.45106,-1.4018 -4.36066,-1.4018 l -3.47201,0 0.98024,18.784 c 1.17053,22.43043 1.11997,68.32263 -0.0963,87.47176 -0.65111,10.25073 -1.25143,13.73755 -2.36512,13.73755 -2.39557,0 -3.03646,-5.17925 -1.71077,-13.82537 1.7515,-11.42317 2.37616,-60.14498 0.97042,-75.69013 -0.65132,-7.20258 -1.08135,-16.38463 -0.95564,-20.40454 0.36497,-11.67026 1.89013,-11.06899 -31.24082,-12.31647 -15.72731,-0.59218 -39.90208,-1.08669 -53.72171,-1.0989 l -25.12667,-0.0222 0.92076,21.58758 c 0.97952,22.96547 0.77199,65.46157 -0.41484,84.94853 -0.57253,9.40035 -1.05641,11.77504 -2.39931,11.77504 -1.45691,0 -1.60707,-2.92818 -1.12143,-21.86794 0.75532,-29.45745 0.46497,-62.35209 -0.71271,-80.74315 -0.90088,-14.06858 -1.12808,-15.13935 -3.21231,-15.13935 -2.02097,0 -2.31734,0.99853 -2.99558,10.0929 -1.22757,16.45977 0.3125,106.83294 1.85654,108.94455 1.07974,1.47663 4.55253,1.90211 19.38869,2.37551 15.59601,0.49764 18.63311,0.31107 22.15699,-1.36112 3.54173,-1.68066 3.98812,-2.31836 3.36386,-4.80558 -0.95968,-3.82365 -0.91688,-81.40044 0.0503,-91.21599 0.75192,-7.63088 0.72685,-7.72955 -2.25298,-8.86247 -3.00592,-1.14286 -3.03781,-3.39275 -0.0481,-3.39275 0.86708,0 2.11667,-1.00929 2.77686,-2.24287 1.51913,-2.8385 4.1281,-2.89345 5.01294,-0.10553 0.63557,2.00249 2.10029,2.14601 23.225,2.2756 12.40066,0.076 22.91182,0.36401 23.35815,0.63985 0.44632,0.27585 1.71412,-0.49585 2.81733,-1.71488 2.48242,-2.74304 5.66408,-2.86654 6.54132,-0.25392 0.36243,1.07938 1.29131,2.82896 2.06418,3.88795 1.17862,1.61494 1.0024,2.30074 -1.09278,4.2527 l -2.49802,2.32726 0.62948,50.69425 c 0.60183,48.46975 0.72664,50.7977 2.84404,53.05156 1.75998,1.87341 1.9945,2.93617 1.1425,5.17712 -0.58965,1.55089 -1.86771,3.12511 -2.84015,3.49826 -1.28561,0.49335 -1.76805,2.21806 -1.76805,6.32084 0,3.10329 0.50167,5.64235 1.11483,5.64235 0.61314,0 3.88199,-4.28948 7.26411,-9.53218 6.03404,-9.35353 8.0315,-10.82487 11.61303,-8.55426 1.17152,0.74272 1.24888,2.2389 0.36343,7.02879 -1.41302,7.64371 -0.34022,70.46485 1.23732,72.4561 1.52623,1.92647 3.01333,1.75585 3.85692,-0.44253 z m 341.24172,-15.75206 c 0.016,-11.73916 -1.40403,-17.70982 -2.55197,-10.72959 -0.87089,5.29558 -1.00313,21.41834 -0.19652,23.95974 1.56719,4.93777 2.7313,-0.66578 2.74849,-13.23015 z m 34.78159,2.45704 c 0,-7.85003 -0.43882,-12.89648 -1.12144,-12.89648 -0.67861,0 -1.12143,4.79725 -1.12143,12.14885 0,10.65566 0.40938,13.64411 1.86906,13.64411 0.20559,0 0.37381,-5.80342 0.37381,-12.89648 z m -388.01576,6.7286 c 0,-4.68905 -0.46408,-4.84936 -2.96942,-1.02573 -1.61719,2.46816 -1.66272,3.04926 -0.3062,3.90784 2.69321,1.7046 3.27562,1.19215 3.27562,-2.88211 z m 341.51747,-8.64077 c 0.35892,-12.60316 -0.18289,-16.81511 -1.82875,-14.21642 -1.14076,1.80115 -1.37912,24.92385 -0.26838,26.03458 1.44713,1.44714 1.77141,-0.38028 2.09713,-11.81816 z m 133.74632,0.35191 11.43805,-9.41028 0,-31.24166 c 0,-26.99889 -0.22805,-31.24165 -1.67926,-31.24165 -1.46492,0 -1.59293,3.61437 -1.00292,28.31618 0.44137,18.47901 0.273,29.34078 -0.48465,31.26548 -0.65,1.65119 -6.37844,6.98962 -13.01499,12.1289 -11.48906,8.89701 -12.64971,10.10595 -11.14597,11.60969 0.86387,0.86386 1.55421,0.36743 15.88974,-11.42666 z m -453.8207,-15.66313 c 0.0956,-12.11472 0.23034,-26.82088 0.29936,-32.68037 l 0.12549,-10.65361 -2.97449,-0.34428 -2.97449,-0.34429 -0.82566,10.9979 c -0.47773,6.36355 -0.28453,18.08621 0.45852,27.81938 0.70629,9.25182 1.28091,19.38677 1.27692,22.52211 -0.008,6.3106 0.72794,7.79104 2.9545,5.94316 1.1299,-0.93774 1.52764,-6.51137 1.65985,-23.26 z m 285.8295,10.98932 c 0,-6.82107 -0.43867,-12.13083 -0.97482,-11.79946 -1.40767,0.86998 -1.56032,24.20141 -0.15835,24.20141 0.69496,0 1.13317,-4.79594 1.13317,-12.40195 z m -348.42601,7.3555 c 0.12162,-0.61679 -1.26406,-1.29051 -3.07929,-1.49717 -2.93746,-0.33441 -3.13378,-0.17496 -1.78527,1.44989 1.59535,1.92227 4.48931,1.9504 4.86456,0.0473 z m 420.96378,-0.77098 c -0.35799,-0.8946 -0.62372,-0.62888 -0.67753,0.67753 -0.0487,1.18217 0.21636,1.84452 0.589,1.47188 0.37264,-0.37264 0.41247,-1.33988 0.0885,-2.14941 z m -61.32344,-5.46308 c 0,-4.24429 -0.42094,-6.53463 -1.12143,-6.1017 -0.61679,0.3812 -1.12143,3.43885 -1.12143,6.79479 0,3.35593 0.50464,6.10169 1.12143,6.10169 0.62423,0 1.12143,-3.01255 1.12143,-6.79478 z m 134.55477,-23.85771 c 0.0135,-21.77271 -0.28839,-27.74706 -1.3833,-27.38209 -1.05455,0.35151 -1.3438,4.87576 -1.17103,18.31673 0.12618,9.81745 0.25948,22.89636 0.2962,29.06424 0.0456,7.67043 0.41031,10.68274 1.15387,9.53218 0.62624,-0.96905 1.09437,-13.48809 1.10426,-29.53106 z m -189.86035,27.07792 c -0.35798,-0.8946 -0.62372,-0.62888 -0.67752,0.67754 -0.0487,1.18217 0.21636,1.84452 0.589,1.47188 0.37264,-0.37264 0.41247,-1.33989 0.0885,-2.14942 z m 32.76214,-5.11654 c -0.10071,-6.64199 -0.2329,-7.08865 -1.07853,-3.64465 -0.86483,3.52216 -0.3453,11.21433 0.7574,11.21433 0.23975,0 0.38426,-3.40636 0.32113,-7.56968 z m -11.13254,-4.10867 c -0.67802,-1.67636 -0.93388,-0.59115 -0.90256,3.82832 0.0396,5.5815 0.12952,5.80392 0.94628,2.33956 0.4964,-2.10557 0.47674,-4.88111 -0.0437,-6.16788 z m -105.38169,5.03114 c 0,-0.57202 -1.32967,-2.08595 -2.95482,-3.3643 -2.35284,-1.85074 -4.58038,-2.32844 -10.93397,-2.3448 -4.38853,-0.0113 -13.0256,-0.70713 -19.19348,-1.54629 -11.6073,-1.57921 -23.39314,-1.7675 -24.76499,-0.39565 -1.99198,1.99198 2.31154,4.20962 8.36117,4.30859 3.47101,0.0567 15.14221,0.99159 25.936,2.07736 10.79379,1.08578 20.50821,2.0486 21.58758,2.13963 1.07938,0.0911 1.96251,-0.30252 1.96251,-0.87454 z m -304.29128,-2.54625 c -0.35452,-1.35568 -0.0914,-3.13142 0.58469,-3.94606 0.91525,-1.1028 0.73909,-2.02283 -0.68955,-3.60146 -1.66656,-1.84152 -1.70007,-2.24419 -0.25492,-3.0629 2.58466,-1.46425 3.5139,-46.22883 1.03316,-49.77058 -1.59135,-2.27198 -1.57217,-2.57907 0.22395,-3.58423 1.80875,-1.01222 1.90236,-2.80059 1.18116,-22.56519 -0.43079,-11.80622 -0.88989,-38.62377 -1.02019,-59.59456 l -0.2369,-38.12872 -3.62412,0 -3.62412,0 -0.17268,91.58558 c -0.1835,97.32775 -0.29903,95.13298 5.00776,95.13298 1.75136,0 2.09656,-0.53453 1.59176,-2.46486 z m -10.83134,-1.59746 c 0,-2.44475 -0.27491,-2.71275 -1.62949,-1.58855 -1.159,0.96189 -4.96358,1.16415 -13.17683,0.70051 -13.49327,-0.76169 -13.25971,-0.16611 0.78841,2.01039 14.40626,2.23199 14.01791,2.26308 14.01791,-1.12235 z m 398.85135,-0.70377 c -0.31109,-0.77098 -0.56564,-0.14018 -0.56564,1.40179 0,1.54197 0.25455,2.17278 0.56564,1.40179 0.3111,-0.77098 0.3111,-2.03259 0,-2.80358 z m 11.59306,2.58941 c 0,-0.58039 -0.50464,-1.36714 -1.12143,-1.74834 -0.61679,-0.38119 -1.12143,0.0936 -1.12143,1.05525 0,0.96158 0.50464,1.74834 1.12143,1.74834 0.61679,0 1.12143,-0.47486 1.12143,-1.05525 z M 260.26517,850.7633 c -0.35798,-0.8946 -0.62372,-0.62887 -0.67752,0.67754 -0.0487,1.18217 0.21634,1.84452 0.589,1.47188 0.37264,-0.37264 0.41247,-1.33989 0.0885,-2.14942 z M 93.482041,844.67148 c 3.389225,-2.85185 3.437368,-3.02023 1.645456,-5.75503 -1.21543,-1.85498 -1.637701,-4.10032 -1.236306,-6.57383 0.335287,-2.06613 0.138196,-4.04796 -0.43798,-4.40405 -0.576177,-0.3561 -1.047594,-1.62696 -1.047594,-2.82414 0,-3.14841 -1.369425,-2.69711 -5.305125,1.74834 -1.911219,2.15876 -4.245192,3.92501 -5.186606,3.92501 -2.30171,0 -3.41998,2.02503 -2.039804,3.69378 0.61531,0.74397 1.289562,2.8666 1.498335,4.71697 0.306998,2.72093 0.858812,3.3138 2.885533,3.10022 1.844266,-0.19434 2.690662,0.47189 3.205513,2.52323 0.881239,3.51112 1.691043,3.49088 6.018578,-0.1505 z M 528.85092,830.7986 c 0.42277,-8.93747 0.42277,-22.8152 0,-30.8394 l -0.76865,-14.58944 -7.28931,-0.69528 c -4.00913,-0.3824 -14.4805,-1.04869 -23.26973,-1.48063 l -15.98042,-0.78536 0,30.39272 c 0,23.34449 0.32508,30.48928 1.40179,30.8091 2.76706,0.8219 32.93001,3.51196 38.96979,3.47549 l 6.16788,-0.0372 0.76865,-16.24995 z m 11.72458,11.54789 c -1.34689,-1.3469 -3.28794,1.6762 -2.43064,3.78561 0.75995,1.8699 0.92542,1.829 2.00722,-0.49608 0.64845,-1.39368 0.83899,-2.87397 0.42342,-3.28953 z m 74.06244,2.80965 c -0.35798,-0.8946 -0.62372,-0.62888 -0.67752,0.67754 -0.0487,1.18217 0.21636,1.84452 0.589,1.47188 0.37264,-0.37264 0.41247,-1.33989 0.0885,-2.14942 z m -503.16796,-3.15403 c 0,-0.61679 -0.22254,-1.12143 -0.49453,-1.12143 -0.272,0 -0.80642,0.50464 -1.18762,1.12143 -0.3812,0.61679 -0.15866,1.12143 0.49453,1.12143 0.65319,0 1.18762,-0.50464 1.18762,-1.12143 z m 9.52899,-1.1114 c 0.38977,-1.22805 0.37435,-2.77379 -0.0343,-3.43496 -0.40863,-0.66117 0.0837,-2.11554 1.09398,-3.23193 1.28727,-1.42243 1.71071,-3.49855 1.41509,-6.93829 -0.40618,-4.72634 -2.42889,-7.51464 -2.51232,-3.46324 -0.0224,1.08739 -0.90553,3.21174 -1.96251,4.72081 -2.47995,3.54068 -2.71862,14.58044 -0.31518,14.58044 0.88362,0 1.92549,-1.00477 2.31525,-2.23283 z m 179.47911,-18.65925 c -0.38995,-2.0787 -1.1908,-3.77944 -1.77963,-3.77944 -1.26151,0 -1.479,22.76398 -0.22955,24.02544 1.18865,1.20008 2.86449,-15.68683 2.00918,-20.246 z m 177.5789,-8.46687 c 0.0593,-28.36138 -0.35471,-32.31985 -3.38008,-32.31985 -0.54127,0 -0.98412,13.87773 -0.98412,30.8394 0,29.65482 0.0826,30.8394 2.15141,30.8394 2.06459,0 2.1539,-1.18492 2.21279,-29.35895 z m -267.90091,27.18227 c 0,-0.58038 -0.50465,-1.36713 -1.12144,-1.74833 -0.61678,-0.3812 -1.12143,0.0936 -1.12143,1.05524 0,0.96159 0.50465,1.74834 1.12143,1.74834 0.61679,0 1.12144,-0.47486 1.12144,-1.05525 z m 464.27318,-2.80358 c 0,-2.12235 -0.50464,-4.17072 -1.12143,-4.55192 -0.67727,-0.41857 -1.12143,1.1098 -1.12143,3.85883 0,2.50356 0.50464,4.55192 1.12143,4.55192 0.61679,0 1.12143,-1.73647 1.12143,-3.85883 z m -357.73707,-8.97146 c 0,-6.43987 -0.43617,-11.97844 -0.96927,-12.3079 -1.29269,-0.79893 -2.68702,15.15196 -1.75759,20.1063 1.41573,7.54648 2.72686,3.79685 2.72686,-7.7984 z m 387.38988,5.89639 c -0.62288,-1.96253 -0.93384,-2.09702 -1.69673,-0.73381 -0.51374,0.91801 -0.63206,2.82401 -0.26293,4.23554 0.57907,2.21441 0.81181,2.31506 1.69672,0.73381 0.56407,-1.00794 0.6824,-2.91394 0.26294,-4.23554 z m 27.19187,0.48566 c -0.28207,-1.07938 -0.51286,-0.19625 -0.51286,1.96251 0,2.15876 0.23079,3.04189 0.51286,1.96251 0.28206,-1.07938 0.28206,-2.84564 0,-3.92502 z m -557.00371,2.58941 c 0,-0.88878 -0.50465,-1.92785 -1.12144,-2.30905 -0.61678,-0.3812 -1.12143,0.34598 -1.12143,1.61596 0,1.26998 0.50465,2.30906 1.12143,2.30906 0.61679,0 1.12144,-0.72719 1.12144,-1.61597 z m 517.98717,-4.83227 c -0.10744,-6.03749 -0.17782,-6.19822 -1.10421,-2.52323 -0.92703,3.67753 -0.52597,8.97147 0.67964,8.97147 0.29665,0 0.4877,-2.90171 0.42457,-6.44824 z m -399.6275,-12.36049 c -0.20992,-2.29935 -0.44061,-4.93761 -0.51263,-5.8628 -0.11639,-1.49524 -0.25173,-1.49524 -1.21803,0 -1.27363,1.97081 -1.51465,21.65903 -0.28036,22.90147 1.05242,1.05935 2.52458,-11.4137 2.01102,-17.03867 z M 720.408,836.95566 c 0,-0.92518 -0.50465,-1.68215 -1.12143,-1.68215 -0.61679,0 -1.12144,0.75697 -1.12144,1.68215 0,0.92519 0.50465,1.68215 1.12144,1.68215 0.61678,0 1.12143,-0.75696 1.12143,-1.68215 z m -174.65504,-5.65131 c 1.10445,-2.86346 1.38583,-5.17563 0.76487,-6.28521 -0.56437,-1.00848 -0.49422,-19.42561 0.16488,-43.28631 0.79743,-28.86801 0.7866,-46.9487 -0.0356,-59.29949 -0.65045,-9.77265 -1.18268,-22.66758 -1.18268,-28.65539 0,-10.69668 -1.34958,-14.84208 -3.15306,-9.68498 -0.49829,1.42488 -0.663,12.17895 -0.36602,23.89792 0.75492,29.78964 0.72772,98.36854 -0.0452,113.81398 -0.85635,17.11396 0.0519,19.3535 3.85269,9.49948 z m 139.85652,2.00666 c -0.0278,-3.43154 -0.24676,-3.84009 -1.18982,-2.22024 -0.63565,1.09183 -0.83862,2.98425 -0.45105,4.20537 1.07644,3.39154 1.67856,2.66309 1.64087,-1.98513 z M 252.93762,818.00837 c -0.56322,-9.46039 -2.37141,-5.59281 -2.3928,5.11802 -0.0213,10.65474 1.40253,15.20756 2.22059,7.10068 0.3112,-3.08394 0.38869,-8.58235 0.17221,-12.2187 z m 7.66575,5.20974 c -0.0117,-8.19782 -0.36502,-11.51714 -1.10426,-10.37325 -1.99462,3.08645 -1.34988,22.42865 0.74763,22.42865 0.20559,0 0.36608,-5.42493 0.35663,-12.0554 z m 398.12582,10.37325 c 0,-0.92518 -0.48881,-1.68214 -1.08624,-1.68214 -0.59742,0 -0.79576,0.75696 -0.44073,1.68214 0.35503,0.92519 0.84383,1.68215 1.08624,1.68215 0.2424,0 0.44073,-0.75696 0.44073,-1.68215 z M 276.3206,826.30205 c 0,-4.48573 -0.48061,-7.85003 -1.12143,-7.85003 -0.64082,0 -1.12143,3.3643 -1.12143,7.85003 0,4.48573 0.48061,7.85003 1.12143,7.85003 0.64082,0 1.12143,-3.3643 1.12143,-7.85003 z M 210.1389,819.92 c 0.009,-5.68146 -0.48611,-10.61812 -1.10427,-11.00016 -0.72274,-0.44667 -1.11533,3.81578 -1.10426,11.98922 0.0117,8.60259 0.36688,12.14118 1.10426,11.00016 0.59791,-0.92519 1.09483,-6.32033 1.10427,-11.98922 z m 343.66084,4.41954 c 0.43304,-1.38777 0.51398,-2.52322 0.17986,-2.52322 -0.85918,0 -4.02939,6.32869 -4.02939,8.04387 0,1.82856 2.8168,-2.21103 3.84953,-5.52065 z m -351.51087,-5.60716 c -0.0117,-7.47372 -0.3612,-10.40162 -1.10427,-9.25182 -1.97919,3.06259 -1.345,20.18579 0.74763,20.18579 0.20559,0 0.36608,-4.92029 0.35664,-10.93397 z m 395.88295,8.13039 c 0,-1.54197 -0.50464,-2.80358 -1.12143,-2.80358 -0.61679,0 -1.12143,1.26161 -1.12143,2.80358 0,1.54197 0.50464,2.80358 1.12143,2.80358 0.61679,0 1.12143,-1.26161 1.12143,-2.80358 z m -497.34597,-0.59059 c 0.39674,-1.25001 1.99836,-3.10948 3.55916,-4.13216 2.72624,-1.78631 2.91858,-1.75235 4.89181,0.86364 2.73272,3.62284 2.98238,2.6313 3.75784,-14.92489 0.51772,-11.72107 0.35233,-14.29827 -0.91758,-14.29827 -1.70261,0 -4.0114,5.56604 -4.0114,9.67072 0,1.76293 -1.08965,3.17093 -3.3643,4.34719 -1.85036,0.95686 -3.42251,2.35759 -3.49365,3.11274 -0.0712,0.75515 -0.19731,2.01907 -0.28036,2.80872 -0.0831,0.78965 -1.412618,2.06617 -2.954589,2.83671 -1.54197,0.77053 -2.753117,2.01687 -2.691438,2.76963 0.06168,0.75278 0.18784,3.13493 0.280358,5.29369 0.131732,3.07375 0.638264,3.92502 2.335509,3.92502 1.192013,0 2.4919,-1.02274 2.88864,-2.27274 z m 73.11367,-8.84183 c 0.26327,-6.18857 -0.0201,-10.27711 -0.74334,-10.72408 -0.64285,-0.39731 -1.22177,-0.31411 -1.28649,0.18488 -0.48921,3.77226 -0.65659,20.15687 -0.21337,20.8873 1.22439,2.01783 1.83743,-0.81023 2.2432,-10.3481 z m 13.70907,0.74131 c 0.0441,-3.60374 -0.41588,-6.44823 -1.04261,-6.44823 -0.65794,0 -1.08886,3.5921 -1.04261,8.6911 0.0922,10.16352 1.9581,8.15653 2.08522,-2.24287 z m -6.64978,-1.40179 c 0,-5.60716 -0.46176,-9.53218 -1.12143,-9.53218 -0.65967,0 -1.12143,3.92502 -1.12143,9.53218 0,5.60717 0.46176,9.53218 1.12143,9.53218 0.65967,0 1.12143,-3.92501 1.12143,-9.53218 z m -28.03582,-2.24286 c 0,-4.55311 -0.50464,-8.59027 -1.12143,-8.97146 -0.71449,-0.44158 -1.12143,2.814 -1.12143,8.97146 0,6.15746 0.40694,9.41304 1.12143,8.97146 0.61679,-0.3812 1.12143,-4.41836 1.12143,-8.97146 z m 6.64977,0.28036 c -0.0529,-6.21152 -0.39552,-8.51477 -1.0426,-7.00896 -1.36258,3.17089 -1.36258,16.26078 0,16.26078 0.66337,0 1.08923,-3.77902 1.0426,-9.25182 z m -14.30091,-5.88753 -0.70582,-5.60716 -0.62948,6.00146 c -0.34621,3.3008 -0.39085,7.84261 -0.0993,10.09289 l 0.53028,4.09144 0.80502,-4.48573 c 0.44276,-2.46715 0.4874,-7.00896 0.0992,-10.0929 z m 21.10834,7.78385 c 0,-3.12286 -0.43645,-4.84289 -1.12144,-4.41955 -0.61678,0.3812 -1.12143,2.68189 -1.12143,5.11264 0,2.43075 0.50465,4.41954 1.12143,4.41954 0.61679,0 1.12144,-2.30069 1.12144,-5.11263 z m 515.85909,4.11377 c 0,-0.54938 -3.65867,-1.29219 -8.13039,-1.65071 -4.47171,-0.35852 -11.91522,-1.13945 -16.54113,-1.73539 -10.00218,-1.28856 -35.52206,-1.43045 -31.39342,-0.17455 1.54565,0.47017 6.08745,0.96509 10.09289,1.09981 4.00545,0.13472 14.34765,0.90198 22.98268,1.70503 20.17075,1.87585 22.98937,1.96852 22.98937,0.75581 z m 4.48573,-5.12957 c 0,-1.65234 -6.31395,-3.34318 -15.13934,-4.05422 -5.55109,-0.44725 -15.60288,-1.39281 -22.3373,-2.10124 -14.34574,-1.50914 -58.74921,-2.43227 -59.48808,-1.23675 -1.17122,1.89507 12.39791,3.46285 40.05065,4.62742 16.19143,0.68189 32.71916,1.63637 36.72828,2.12107 8.48344,1.02564 20.18579,1.39883 20.18579,0.64372 z M 682.827,787.33226 c 1.09391,-24.64898 1.07686,-34.37358 -0.092,-52.42698 l -1.01646,-15.70006 -22.42866,-0.0928 c -22.76984,-0.0943 -48.57085,-1.08783 -60.27701,-2.32107 l -6.44824,-0.67931 0,41.61649 0,41.6165 2.52322,0.55128 c 3.49847,0.76435 13.78685,1.39152 45.69839,2.78567 15.11131,0.66019 28.48439,1.38195 29.71797,1.60392 1.23358,0.22197 4.33447,0.47231 6.89089,0.55631 l 4.64801,0.15271 0.78386,-17.66256 z m 6.48853,-21.6073 c 0.53919,-32.06658 0.37811,-39.81383 -0.87817,-42.23529 l -1.53848,-2.96542 -0.76096,3.03194 c -0.41854,1.66756 -0.22278,9.94973 0.43499,18.40484 0.77507,9.96282 0.86114,23.4634 0.24454,38.36228 -0.52327,12.64415 -0.71936,23.36785 -0.43574,23.83044 1.854,3.02391 2.34494,-3.40676 2.93382,-38.42879 z m -480.63627,34.57387 c -0.35798,-0.8946 -0.62372,-0.62888 -0.67752,0.67754 -0.0487,1.18217 0.21635,1.84452 0.589,1.47188 0.37264,-0.37264 0.41247,-1.33989 0.0885,-2.14942 z m 375.46307,-1.19152 c 1.86128,-10.42429 0.31477,-86.53001 -1.80483,-88.81748 -0.60449,-0.65238 -0.98538,-0.43501 -0.98255,0.56072 0.002,0.89434 -0.32307,13.2329 -0.72359,27.41903 -0.77814,27.56071 -0.61699,62.10657 0.2966,63.5848 1.19196,1.92863 2.59335,0.73096 3.21437,-2.74707 z m 119.53119,0.72896 c 3.96127,-1.60362 7.40282,-3.10781 7.64791,-3.34264 0.78764,-0.75467 0.0101,-79.5031 -0.79323,-80.28309 -0.4256,-0.41351 -4.054,-0.1571 -8.06313,0.56977 l -7.28931,1.32161 -0.16576,12.88742 c -0.0912,7.08807 -0.45972,18.34528 -0.819,25.01602 -0.7284,13.52387 0.35734,46.7466 1.5277,46.7466 0.41389,0 3.99356,-1.31206 7.95482,-2.91569 z m -273.32256,-1.28968 c 0.31474,-1.69617 0.44517,-12.16754 0.28983,-23.26973 -0.15533,-11.10218 -0.37275,-34.69433 -0.48315,-52.42698 l -0.20074,-32.24119 -12.61612,-0.0492 c -8.0443,-0.0314 -14.24166,-0.63485 -17.10185,-1.66528 -2.46715,-0.88881 -8.37898,-1.62363 -13.13738,-1.63291 -9.51015,-0.0185 -10.86478,0.89925 -10.94389,7.41491 -0.27802,22.90076 0.33552,86.21166 0.9061,93.49715 l 0.74651,9.53217 8.97147,0.86356 c 4.9343,0.47496 15.53184,1.28408 23.55008,1.79804 8.01825,0.51397 15.67399,1.0085 17.01275,1.09895 1.82671,0.12343 2.57693,-0.60509 3.00639,-2.91947 z m -257.20218,-0.90726 c 0,-0.96158 -0.50464,-1.43644 -1.12143,-1.05525 -0.61679,0.3812 -1.12143,1.16795 -1.12143,1.74834 0,0.58039 0.50464,1.05525 1.12143,1.05525 0.61679,0 1.12143,-0.78676 1.12143,-1.74834 z M 373.3486,785.0894 c -0.42999,-6.63047 -0.90101,-31.23191 -1.0467,-54.66985 l -0.2649,-42.61445 -2.4276,-0.3567 -2.4276,-0.35671 0.0325,52.81784 c 0.0178,29.04981 -0.26989,53.3071 -0.63948,53.90512 -1.17404,1.89964 0.60215,3.33015 4.13487,3.33015 l 3.42068,0 -0.78179,-12.0554 z m 160.97305,5.14527 c -0.91903,-2.29332 -1.0554,-2.05967 -1.08775,1.86368 -0.0281,3.42045 0.22135,4.04314 1.05077,2.62205 0.68575,-1.17492 0.69941,-2.83272 0.037,-4.48573 z M 333.25583,742.33662 c 0.21966,-36.90371 -0.0491,-51.30731 -0.97839,-52.42698 -0.98934,-1.19208 -5.3344,-1.54382 -19.07077,-1.54382 -10.28357,0 -19.91036,-0.56723 -22.81602,-1.34438 -2.76457,-0.73941 -5.32617,-1.04471 -5.69244,-0.67845 -0.36626,0.36627 -0.68419,23.74612 -0.70649,51.95522 -0.0331,41.82915 0.23825,51.46596 1.47097,52.24718 0.83134,0.52684 6.30565,1.02831 12.16514,1.11437 5.85948,0.086 14.18612,0.53036 18.50364,0.98735 4.31751,0.45699 9.86861,0.77279 12.33576,0.70179 l 4.48573,-0.12911 0.30287,-50.88317 z m 485.27754,48.87025 4.48573,-2.53675 0.81873,-8.93949 c 1.23787,-13.51626 1.36775,-67.35234 0.20688,-85.75765 l -1.02561,-16.26077 -4.84896,-0.34889 c -7.98262,-0.57435 -8.05298,-0.36939 -7.57059,22.05255 0.23415,10.88414 0.47497,36.56879 0.53512,57.07699 0.0852,29.03479 0.41964,37.28356 1.51118,37.26919 0.77098,-0.0101 3.42037,-1.15997 5.88752,-2.55518 z m 20.03241,-16.86453 c 0.72944,-10.27302 -0.17937,-94.19963 -1.05014,-96.97872 -0.30009,-0.95773 -1.92927,-1.34854 -4.67499,-1.12143 l -4.21438,0.34859 0.14385,16.26077 c 0.47356,53.53014 0.42709,69.08789 -0.23844,79.80864 l -0.74256,11.96194 5.02336,0 5.02337,0 0.72993,-10.27979 z m -307.7779,2.89703 c 4.60429,-2.62058 4.76594,-7.61968 0.37833,-11.70055 -2.99737,-2.78781 -3.72929,-2.90142 -26.07331,-4.04661 -19.74794,-1.01214 -23.35235,-0.94517 -25.56371,0.47502 -1.41589,0.9093 -3.56063,1.34024 -4.76609,0.95764 -1.96908,-0.62496 -2.19,-0.14678 -2.17458,4.70675 0.0215,6.7569 1.17042,8.70874 4.62855,7.86297 1.52034,-0.37185 3.58265,0.0505 4.85371,0.99397 1.65794,1.23067 4.17952,1.48956 10.09289,1.03626 4.33553,-0.33236 11.66762,-0.15952 16.29353,0.38411 13.66939,1.60639 18.59117,1.45882 22.33068,-0.66956 z m 8.49695,-40.01062 c -0.45133,-11.43537 -1.17863,-20.57031 -1.61622,-20.29987 -0.85439,0.52805 -0.31459,35.27889 0.61662,39.69631 1.39981,6.64032 1.75513,-0.25414 0.9996,-19.39644 z m -10.25126,13.09623 c 0.84891,-8.98861 0.73366,-30.99605 -0.24765,-47.28741 l -0.70365,-11.68192 -8.97146,-0.24701 c -4.93431,-0.13586 -9.8315,0.20612 -10.88266,0.75994 -1.05115,0.55382 -7.61153,1.30609 -14.57862,1.67169 -6.96709,0.36561 -12.91044,0.89758 -13.20743,1.18218 -0.52566,0.50369 -0.0704,60.08825 0.4634,60.65121 0.14738,0.15542 10.06547,0.71005 22.04021,1.2325 11.97474,0.52245 22.58242,1.0261 23.57261,1.11921 1.42975,0.13444 1.94749,-1.38888 2.51525,-7.40039 z m -54.0532,-7.68056 c -0.57741,-16.24911 -2.33397,-17.13477 -2.37492,-1.19745 -0.026,10.13859 0.29671,13.15591 1.36769,12.78559 1.03127,-0.35658 1.29749,-3.41954 1.00723,-11.58814 z m 290.58332,-37.17675 c -0.34437,-7.55565 -1.05702,-13.73755 -1.58368,-13.73755 -1.17832,0 -1.28274,45.35657 -0.11649,50.60465 1.26925,5.71163 2.46198,-20.15205 1.70017,-36.8671 z M 474.46992,695.39612 c -0.28433,-1.09112 -0.53566,-0.46992 -0.55852,1.38045 -0.0229,1.85036 0.20978,2.74309 0.51697,1.98384 0.30718,-0.75924 0.32588,-2.27317 0.0416,-3.36429 z m 313.67607,-14.03925 c 0.61113,-3.33317 0.42216,-4.20538 -0.9111,-4.20538 -2.03031,0 -3.48372,6.50354 -2.29231,10.25734 0.78571,2.47553 0.86507,2.49394 1.62916,0.37786 0.44178,-1.22345 1.15018,-4.11687 1.57425,-6.42982 z m -260.11957,5.97788 c 0.92706,-1.5 -12.34144,-2.75994 -29.13378,-2.76645 -19.38828,-0.008 -22.50729,1.90513 -4.45335,2.73088 23.67483,1.08286 32.93381,1.09267 33.58713,0.0355 z m 8.4666,-10.0235 c 0,-1.92989 -20.16065,-3.09353 -27.05457,-1.56155 -3.02167,0.67148 -1.74972,0.96794 6.30806,1.47023 17.17775,1.0708 20.74651,1.08652 20.74651,0.0913 z m 195.69002,-4.12567 c 49.95983,-0.33725 93.40941,-0.87132 96.55462,-1.1868 5.43371,-0.54504 5.72326,-0.7391 5.81302,-3.89598 l 0.0944,-3.32237 -107.14341,0.58701 c -58.92888,0.32286 -107.47892,0.79437 -107.88898,1.0478 -0.41005,0.25344 -18.64895,-0.0141 -40.53086,-0.59459 -21.88191,-0.58047 -78.27058,-1.17019 -125.30816,-1.31051 -82.35954,-0.24569 -85.54724,-0.17836 -86.18137,1.82027 -0.36218,1.14147 -0.20311,2.53079 0.35348,3.08738 0.56621,0.56621 30.87263,1.26897 68.79917,1.59535 72.90674,0.62742 163.87762,2.60291 164.79111,3.57855 0.30839,0.32937 9.392,0.28572 20.18579,-0.097 10.79379,-0.38274 60.5013,-0.97183 110.46113,-1.30909 z m -369.52396,-4.43056 c 0.76131,-0.91732 1.11688,-2.36449 0.79015,-3.21594 -0.76287,-1.98801 -5.91039,-2.99271 -7.44915,-1.45395 -1.83431,1.83431 -1.3891,4.99702 0.78333,5.56473 3.5603,0.93041 4.47668,0.79086 5.87567,-0.89484 z m -12.88463,-2.9113 c 0,-2.54594 -0.48495,-2.75348 -8.00392,-3.42543 -12.39308,-1.10755 -92.91675,-2.39147 -96.77929,-1.54312 -2.28387,0.50163 -3.43505,1.43231 -3.43505,2.77708 0,1.90026 2.62839,2.07225 43.45552,2.84329 23.90053,0.45137 47.745,1.19328 52.9877,1.64868 11.75993,1.02152 11.77504,1.01857 11.77504,-2.3005 z m -121.71188,-0.95993 c 1.42664,-2.6657 -0.33506,-4.08385 -4.44931,-3.58165 -3.58331,0.43738 -4.96123,1.77835 -4.10912,3.99893 0.99123,2.58312 7.11239,2.28468 8.55843,-0.41728 z m 8.79688,-1.48272 c 0.2563,-1.3309 -0.34144,-1.94964 -1.88345,-1.94964 -2.57184,0 -3.99609,1.67492 -2.91362,3.4264 1.09146,1.76602 4.36674,0.75774 4.79707,-1.47676 z m 426.35547,-0.80991 c 28.06386,-0.57559 78.67909,-1.11549 112.4783,-1.19977 l 61.45311,-0.15324 2.62983,-4.09873 c 1.64222,-2.5595 4.1723,-10.83701 6.73716,-22.04166 2.25904,-9.8686 5.84514,-23.79837 7.96913,-30.95502 2.12398,-7.15666 3.86178,-14.084 3.86178,-15.3941 0,-1.3101 1.3174,-5.79988 2.92755,-9.97727 1.61015,-4.1774 4.81374,-13.90333 7.11909,-21.61318 2.30535,-7.70985 7.35986,-24.36313 11.23225,-37.00729 3.87239,-12.64415 10.43083,-34.09155 14.57432,-47.66089 4.14348,-13.56933 10.09228,-32.74584 13.21954,-42.61444 7.61646,-24.03507 12.89091,-43.26412 12.08754,-44.0675 -0.81354,-0.81353 -36.26332,2.76485 -47.70309,4.81526 -12.90342,2.31276 -34.1001,4.88692 -46.53946,5.65184 -6.16788,0.37928 -18.02704,1.41832 -26.35367,2.30897 -21.00978,2.2473 -53.81255,4.30084 -64.12877,4.01463 -4.73981,-0.1315 -13.06645,0.2841 -18.50364,0.92355 -5.43719,0.63945 -19.72637,2.14877 -31.75374,3.35404 -20.29903,2.03418 -34.3672,3.68699 -58.31451,6.85115 -5.2427,0.69271 -16.5972,1.63592 -25.23224,2.09601 -37.81545,2.01486 -114.54612,9.52257 -132.32907,12.94773 -9.45811,1.82171 -15.79495,2.54905 -34.2037,3.92585 -7.70985,0.57663 -18.05507,1.52886 -22.98937,2.11607 -23.25524,2.76752 -55.05878,5.71205 -66.72526,6.17776 -7.09306,0.28315 -18.44756,1.30492 -25.23223,2.27059 -6.78467,0.96568 -14.44888,2.03375 -17.03158,2.37348 -3.91721,0.51527 -6.98529,2.54483 -18.50365,12.24031 -27.64511,23.27005 -30.66801,25.9806 -32.87218,29.47559 -1.58457,2.51256 -3.12016,3.56904 -5.23189,3.59956 -1.84385,0.0267 -5.14274,1.86923 -8.61033,4.80928 -31.01491,26.29642 -50.45195,43.15444 -65.66454,56.95172 -3.76395,3.41379 -9.2957,7.89157 -12.29275,9.95061 -5.02255,3.45062 -16.60654,12.92316 -46.38297,37.92862 -6.30331,5.29336 -13.431431,10.93344 -15.840257,12.53351 -2.408827,1.60006 -10.120011,8.44239 -17.135965,15.20518 -7.015954,6.76279 -16.793437,15.77169 -21.727742,20.01982 -4.934304,4.24811 -9.163038,8.24709 -9.397186,8.88662 -0.292995,0.80027 35.194741,0.98798 113.82544,0.60211 100.38444,-0.49262 162.23526,0.11102 196.11575,1.91398 5.55109,0.29541 53.74466,0.84828 107.09683,1.22859 53.35217,0.38031 105.83522,1.06629 116.62901,1.52439 10.79379,0.45809 21.89598,0.90037 24.67152,0.98285 2.77555,0.0824 28.00779,-0.32098 56.07164,-0.89658 z m 293.50243,-13.75584 c -0.33256,-2.62135 -1.64218,-12.33576 -2.91024,-21.58759 -1.26807,-9.25182 -3.11066,-23.63419 -4.09465,-31.96083 -0.98398,-8.32664 -2.30565,-17.11704 -2.93702,-19.53424 -0.63138,-2.4172 -1.87428,-10.99616 -2.76199,-19.06435 -0.88772,-8.06821 -2.11508,-19.21127 -2.72746,-24.76236 -0.61238,-5.55109 -1.85645,-14.13005 -2.76459,-19.06436 -1.54537,-8.39667 -7.12995,-45.61088 -9.5604,-63.70812 -2.8681,-21.35599 -6.59929,-44.78815 -7.23262,-45.42148 -1.31905,-1.31905 -2.43576,2.07863 -5.56296,16.92573 -1.71739,8.15375 -4.83174,21.18085 -6.92076,28.94909 -2.08902,7.76824 -4.12603,17.35649 -4.5267,21.30722 l -0.72848,7.18315 2.43612,-2.1603 c 4.78072,-4.23945 5.05505,-2.13754 4.84491,37.12216 -0.1777,33.20137 -0.0114,36.94932 1.75489,39.54717 1.25683,1.84857 1.96148,5.06474 1.98007,9.03771 0.0159,3.39233 1.67096,14.63056 3.67794,24.97382 2.00698,10.34327 4.41049,24.97797 5.34115,32.52155 1.5052,12.20063 5.37044,31.26693 6.81126,33.59821 0.29365,0.47515 6.37318,0.8639 13.51005,0.8639 l 12.97614,0 -0.60466,-4.76608 z m -90.6835,-69.16041 c 1.28661,-4.57748 1.90028,-7.85767 1.36372,-7.28932 -0.53657,0.56836 -2.00168,4.81821 -3.25581,9.44412 -1.25413,4.62591 -2.57438,9.42003 -2.9339,10.65361 -0.35952,1.23357 0.0529,0.72893 0.91651,-1.12143 0.86361,-1.85037 2.62288,-7.10951 3.90948,-11.68698 z m 39.813,-64.89862 c 0.0409,-21.84822 -0.34676,-34.26843 -1.09311,-35.01477 -2.2375,-2.23751 -4.77097,2.78631 -8.77875,17.40801 -3.70622,13.52152 -3.98777,15.68222 -3.98777,30.60355 l 0,16.05485 5.88752,2.6718 c 3.23814,1.46948 6.34226,2.55095 6.89806,2.40326 0.56973,-0.15139 1.03824,-15.0379 1.07405,-34.1267 z m -20.6054,22.97099 c -0.014,-1.99753 -0.22047,-2.14245 -1.10426,-0.77488 -1.4278,2.20935 -1.4278,4.80743 0,3.92501 0.61679,-0.3812 1.11371,-1.79875 1.10426,-3.15013 z m -2.31037,-13.11064 c 0.0255,-2.59404 -1.68776,0.83464 -2.5215,5.04644 l -0.66596,3.3643 1.58548,-3.3643 c 0.87203,-1.85036 1.59292,-4.12126 1.60198,-5.04644 z M 231.71717,494.98649 c 5.38233,-4.57083 10.80726,-8.63474 12.0554,-9.03087 1.24814,-0.39615 2.32425,-1.31707 2.39135,-2.0465 0.54904,-5.96808 -0.44758,-63.19952 -1.11225,-63.87246 -0.47124,-0.4771 -6.37078,-0.22477 -13.11011,0.56072 l -12.25331,1.42816 -0.29521,39.24376 c -0.16236,21.58407 -0.052,39.87745 0.24517,40.65194 0.2972,0.7745 0.93468,1.40091 1.41664,1.39202 0.48194,-0.009 5.27998,-3.75593 10.66232,-8.32677 z m 662.79327,314.09046 c -2.43299,-1.20498 -2.52517,-1.81163 -2.57768,-16.96416 -0.0299,-8.64298 -0.46672,-20.76094 -0.9706,-26.92882 -0.50388,-6.16788 -0.49551,-26.54377 0.0186,-45.27976 0.77329,-28.18206 1.24367,-34.53692 2.72355,-36.79551 0.99324,-1.51587 2.63017,-2.56915 3.68054,-2.36821 1.6643,0.31839 1.99569,3.05646 2.75672,22.77761 1.78558,46.27057 0.7312,107.22869 -1.84983,106.9462 -0.69193,-0.0757 -2.3935,-0.70004 -3.78127,-1.38735 z m 1.92816,-57.91089 c 0,-7.36184 -1.71902,-9.19709 -2.59927,-2.77501 -0.839,6.1212 0.1431,11.69697 1.64333,9.3298 0.52577,-0.82959 0.95594,-3.77925 0.95594,-6.55479 z m 1.15578,-23.61628 c 0,-2.33963 -1.64979,-2.92212 -2.83677,-1.00154 -1.01724,1.64594 0.33797,4.72257 1.70742,3.87621 0.62114,-0.38389 1.12935,-1.67749 1.12935,-2.87467 z m 6.29099,73.15852 c -0.35717,-0.57792 -0.089,-9.05964 0.5959,-18.84827 0.68492,-9.78863 1.07789,-25.87181 0.87328,-35.74042 -0.20461,-9.86861 -0.34027,-27.55566 -0.30146,-39.30455 0.0717,-21.70913 0.83883,-26.29927 4.39525,-26.29927 0.92519,0 2.92211,-0.81245 4.43761,-1.80545 1.51552,-0.99299 3.53629,-1.50583 4.49061,-1.13962 0.95433,0.36621 2.65764,0.0897 3.78513,-0.6144 1.12749,-0.70413 2.88171,-0.96107 3.89828,-0.57097 1.68781,0.64767 1.82243,5.50736 1.55034,55.96827 l -0.29796,55.259 -2.58494,0.36644 c -1.42173,0.20154 -3.31415,-0.23873 -4.20538,-0.97838 -1.37429,-1.14057 -1.62042,-0.53516 -1.62042,3.98566 l 0,5.33048 -3.85837,-0.62611 c -3.53586,-0.5738 -3.88738,-0.37515 -4.20537,2.37648 -0.26648,2.30574 -1.03818,3.08261 -3.32504,3.34725 -1.63792,0.18955 -3.27028,-0.12822 -3.62746,-0.70614 z m 6.78748,-114.8657 c -0.3111,-0.77099 -0.56564,-0.14018 -0.56564,1.40179 0,1.54197 0.25454,2.17277 0.56564,1.40179 0.31109,-0.77099 0.31109,-2.0326 0,-2.80358 z m 8.99482,1.19152 c -0.35799,-0.8946 -0.62372,-0.62888 -0.67753,0.67754 -0.0487,1.18216 0.21636,1.84452 0.589,1.47188 0.37264,-0.37265 0.41248,-1.33989 0.0885,-2.14942 z m -786.89932,58.38783 c 0.16003,-17.50314 -0.0758,-39.39356 -0.52407,-48.64538 -0.56458,-11.65223 -0.42597,-17.81699 0.45104,-20.06097 0.69634,-1.78171 1.59447,-2.91106 1.99585,-2.50967 1.06432,1.06431 1.83139,35.65189 1.40836,63.50293 -0.20144,13.26095 -0.40056,27.34549 -0.4425,31.29899 -0.0537,5.06744 -0.53405,7.34304 -1.62795,7.71309 -1.30165,0.44033 -1.50481,-4.60331 -1.26073,-31.29899 z M 294.1349,417.59808 c -0.27634,-0.27634 -3.7668,-1.24064 -7.75658,-2.14288 -3.98978,-0.90224 -10.27273,-2.70744 -13.96212,-4.01155 -3.68939,-1.30411 -11.98176,-3.41975 -18.4275,-4.70142 -6.44572,-1.28166 -15.45669,-3.82674 -20.02437,-5.65573 l -8.30486,-3.32543 -8.65778,5.684 c -8.09682,5.31571 -12.45279,6.96924 -12.45279,4.72709 0,-0.5263 3.65486,-3.38722 8.12192,-6.35761 8.55313,-5.68745 8.83411,-8.40626 0.35524,-3.43731 -5.55473,3.25529 -8.47716,3.69467 -8.47716,1.27453 0,-0.895 3.34884,-3.50004 7.44185,-5.78899 4.09302,-2.28894 7.68439,-5.08919 7.98083,-6.22276 0.34948,-1.33643 1.57724,-2.06643 3.49212,-2.07636 1.62422,-0.008 4.0191,-0.30143 5.32193,-0.65113 1.70168,-0.45675 2.52373,-0.0433 2.91897,1.46807 0.53784,2.05671 9.63531,5.8153 23.8695,9.86162 3.08394,0.87666 13.42915,3.92355 22.98937,6.77086 9.56021,2.84731 21.92401,6.4651 27.4751,8.03953 5.5511,1.57443 10.51535,3.24269 11.03168,3.70725 2.52648,2.27313 -2.36052,1.89307 -12.87026,-1.00093 -6.39023,-1.75964 -14.39416,-3.84755 -17.78649,-4.63982 -3.39234,-0.79226 -7.68182,-2.09563 -9.53218,-2.89638 -5.65181,-2.44581 -25.63615,-8.31368 -28.30415,-8.31075 -1.38115,0.002 -5.16599,-1.00628 -8.41074,-2.23955 -6.48554,-2.46502 -8.70314,-2.77506 -8.70314,-1.21679 0,1.21671 23.28292,9.06626 26.89186,9.06626 1.37174,0 8.4469,2.01858 15.72259,4.48573 7.27569,2.46715 14.5578,4.48573 16.18246,4.48573 3.75448,0 10.73193,2.87923 10.73193,4.42851 0,1.13324 -5.82571,1.70773 -6.85723,0.67621 z"
       style="fill:#a2a2a2" />
  </g>
</svg>
