<?xml version="1.0"?>
<svg xmlns:rdf="http://www.w3.org/1999/02/22-rdf-syntax-ns#" xmlns="http://www.w3.org/2000/svg" xmlns:cc="http://creativecommons.org/ns#" xmlns:dc="http://purl.org/dc/elements/1.1/" xmlns:svg="http://www.w3.org/2000/svg" id="svg3231" viewBox="0 0 317.64 353.86" version="1.0">
  <g id="layer1" transform="translate(-210.46 -367.1)">
    <g id="g3853" stroke-linejoin="round" fill-opacity=".99219" transform="matrix(.92064 0 0 .92064 16.801 29.232)" stroke="#000" stroke-linecap="round" fill="#fff">
      <path id="path3241" stroke-width="2.1724" d="m264.29 469.5l-32.38 53.61-20.47 0.68 8.56 182.85 325.72 2.87 8.56-197.15-13.22 0.43-29.62-40.43-37.35 42.68-171.33 5.47-38.47-51.01z"/>
      <path id="path3249" stroke-width="2.1724" d="m317.14 708.08l140-0.11-2.85-277.57-27.15-0.1-40-62.22-42.85 65.18h-28.58l1.43 274.82z"/>
      <path id="path3765" stroke-width="2.1724" d="m361.43 618.08l2.86 50 52.85 1.43 2.86-55.72c-23.66-25.44-42.52-19.72-58.57 4.29z"/>
      <path id="path3767" stroke-width="2.1724" d="m362.86 668.08l-37.15 57.14v25.05l121.43-0.76v-30l-31.43-51.43h-52.85z"/>
      <path id="path3769" stroke-width="2.1724" d="m362.86 466.65l2.26 42.86h45.24l2.5-44.29c-18.1-10.88-31.91-10.55-50 1.43z"/>
      <path id="path3775" stroke-width="2.1724" d="m250 598.75v41.43l37.14-1.43v-41.42l-37.14 1.42z"/>
      <path id="path3777" stroke-width="2.1724" d="m525.71 536.65v41.43l-37.14-1.43v-41.43l37.14 1.43z"/>
      <path id="path3779" stroke-width="2.1724" d="m522.86 596.65v41.43l-34.29-1.43v-41.43l34.29 1.43z"/>
      <path id="path3781" stroke-width="2.1724" d="m365 539.87l2.26 42.86h45.24l2.5-44.29c-18.1-10.88-31.9-10.55-50 1.43z"/>
      <path id="path3791" stroke-width="1.0862" d="m245.97 578.1v7.07l42.93-1.01 0.51-7.58-43.44 1.52z"/>
      <path id="path3793" stroke-width="1.0862" d="m246.98 639.46v7.07l42.93-1.01 0.51-7.57-43.44 1.51z"/>
      <path id="path3795" stroke-width="1.0862" d="m483.42 635.96l-0.15 7.07 42.94-0.08 0.67-7.56-43.46 0.57z"/>
      <path id="path3797" stroke-width="1.0862" d="m484.48 575.57l-0.25 7.06 42.94 0.5 0.77-7.55-43.46-0.01z"/>
      <path id="path3799" stroke-width="1.0862" d="m364.26 582.58l-0.19 8.93 51.9-0.1 0.81-9.56-52.52 0.73z"/>
      <path id="path3801" stroke-width="1.0862" d="m359.72 508.76l-0.19 8 54.88-0.09 0.85-8.56-55.54 0.65z"/>
      <path id="path3803" stroke-width="1.0862" d="m213.14 531.12h24.25l26.26-44.44 29.29 40.4 23.24 1.01-1.01-1.01v1.01"/>
      <path id="path3805" stroke-width="1.0862" d="m315.17 441.22h36.36l34.35-55.56 31.31 51.52 35.36 2.02"/>
      <path id="path3807" stroke-width="1.0862" d="m454.57 523.04h25.25l30.31-35.35 20.2 31.31 24.24 2.02"/>
      <path id="path3809" stroke-width="1.0862" d="m339.41 750.39l-1.01-19.26 33.34-56.56h34.34l27.28 48.48 1.07 26.33-95.02 1.01z"/>
      <path id="path3811" stroke-width="1.0862" d="m338.88 738.2l94.48-2.02"/>
      <path id="path3813" stroke-width="1.0862" d="m343.45 723.05l88.9-1.01"/>
      <path id="path3815" stroke-width="1.0862" d="m351.55 708.91h72.7"/>
      <path id="path3817" stroke-width="1.0862" d="m359.61 695.78h59.6"/>
      <path id="path3819" stroke-width="1.0862" d="m366.69 684.67h44.44"/>
      <path id="path3821" stroke-width="1.0862" d="m389.92 598.8v67.68"/>
      <path id="path3831" stroke-width="2.1724" d="m249.12 536.38v41.43l37.14-1.43v-41.43l-37.14 1.43z"/>
    </g>
  </g>
  <metadata>
    <rdf:RDF>
      <cc:Work>
        <dc:format>image/svg+xml</dc:format>
        <dc:type rdf:resource="http://purl.org/dc/dcmitype/StillImage"/>
        <cc:license rdf:resource="http://creativecommons.org/licenses/publicdomain/"/>
        <dc:publisher>
          <cc:Agent rdf:about="http://openclipart.org/">
            <dc:title>Openclipart</dc:title>
          </cc:Agent>
        </dc:publisher>
        <dc:title>Coll&#xE8;ge</dc:title>
        <dc:date>2010-03-24T02:25:57</dc:date>
        <dc:description>black and white, building, clip art, clipart, college, colouring book, line art, outline, school, university, </dc:description>
        <dc:source>http://openclipart.org/detail/33631/coll&#xE8;ge-by-lmproulx</dc:source>
        <dc:creator>
          <cc:Agent>
            <dc:title>lmproulx</dc:title>
          </cc:Agent>
        </dc:creator>
        <dc:subject>
          <rdf:Bag>
            <rdf:li>black and white</rdf:li>
            <rdf:li>building</rdf:li>
            <rdf:li>clip art</rdf:li>
            <rdf:li>clipart</rdf:li>
            <rdf:li>college</rdf:li>
            <rdf:li>colouring book</rdf:li>
            <rdf:li>line art</rdf:li>
            <rdf:li>outline</rdf:li>
            <rdf:li>school</rdf:li>
            <rdf:li>university</rdf:li>
          </rdf:Bag>
        </dc:subject>
      </cc:Work>
      <cc:License rdf:about="http://creativecommons.org/licenses/publicdomain/">
        <cc:permits rdf:resource="http://creativecommons.org/ns#Reproduction"/>
        <cc:permits rdf:resource="http://creativecommons.org/ns#Distribution"/>
        <cc:permits rdf:resource="http://creativecommons.org/ns#DerivativeWorks"/>
      </cc:License>
    </rdf:RDF>
  </metadata>
</svg>
