<?xml version="1.0" standalone="no"?>
<!DOCTYPE svg PUBLIC "-//W3C//DTD SVG 20010904//EN"
 "http://www.w3.org/TR/2001/REC-SVG-20010904/DTD/svg10.dtd">
<svg version="1.0" xmlns="http://www.w3.org/2000/svg"
 width="900.000000pt" height="681.000000pt" viewBox="0 0 900.000000 681.000000"
 preserveAspectRatio="xMidYMid meet">
<metadata>
Created by potrace 1.10, written by Peter Selinger 2001-2011
</metadata>
<g transform="translate(0.000000,681.000000) scale(0.100000,-0.100000)"
fill="#000000" stroke="none">
<path d="M4705 6100 c-11 -4 -54 -18 -95 -30 -41 -11 -88 -28 -103 -36 -16 -8
-37 -14 -47 -14 -10 0 -31 -6 -47 -14 -27 -13 -51 -21 -188 -61 -33 -10 -75
-24 -93 -31 -18 -8 -40 -14 -48 -14 -9 0 -28 -6 -42 -14 -35 -18 -157 -56
-182 -56 -10 0 -22 -4 -25 -10 -3 -5 -16 -10 -29 -10 -12 0 -31 -7 -42 -15
-10 -8 -30 -15 -44 -15 -14 0 -34 -7 -44 -15 -11 -8 -29 -15 -41 -15 -12 0
-30 -7 -41 -15 -10 -8 -28 -14 -39 -15 -24 0 -198 -55 -238 -76 -16 -8 -41
-14 -57 -14 -15 0 -33 -7 -40 -15 -7 -8 -23 -15 -36 -15 -14 0 -32 -4 -42 -9
-30 -15 -149 -51 -170 -51 -11 0 -25 -7 -32 -15 -7 -8 -24 -15 -39 -15 -14 0
-35 -7 -45 -15 -11 -8 -32 -15 -46 -15 -14 0 -30 -4 -36 -9 -5 -5 -45 -18 -89
-30 -44 -12 -93 -29 -108 -37 -16 -8 -38 -14 -49 -14 -11 0 -32 -6 -46 -14
-36 -19 -222 -76 -249 -76 -11 0 -26 -7 -33 -15 -7 -8 -26 -15 -42 -15 -16 0
-36 -7 -44 -15 -9 -8 -24 -15 -35 -15 -11 0 -32 -6 -47 -14 -15 -7 -43 -17
-62 -20 -19 -4 -44 -11 -55 -15 -42 -17 -91 -33 -124 -41 -18 -5 -38 -13 -44
-19 -6 -6 -23 -11 -37 -11 -14 0 -35 -7 -46 -15 -10 -8 -29 -15 -42 -15 -12 0
-30 -4 -40 -9 -26 -14 -150 -51 -170 -51 -30 0 -60 -41 -66 -90 -2 -25 -5 -46
-5 -48 -1 -1 -12 5 -25 14 -48 31 -99 -2 -61 -40 9 -8 34 -20 55 -26 22 -6 48
-19 57 -29 14 -14 39 -20 111 -24 52 -3 104 -2 118 3 21 8 22 12 13 39 -9 25
-14 29 -28 22 -10 -6 -23 -6 -32 0 -22 14 -37 11 -58 -12 l-19 -21 -7 22 c-5
15 -13 20 -30 18 -23 -3 -75 20 -75 32 0 4 15 10 33 14 42 9 6125 8 6139 0 18
-12 -23 -34 -61 -34 -27 0 -32 -3 -21 -10 24 -15 87 -12 94 5 4 12 25 15 97
15 71 0 94 3 103 15 9 12 37 17 115 20 147 5 312 -15 262 -33 -7 -2 -20 -12
-29 -22 -12 -15 -19 -16 -34 -7 -16 10 -22 8 -37 -12 l-18 -23 -19 20 c-13 14
-31 20 -56 19 -33 -1 -38 -5 -44 -30 -3 -15 -3 -31 1 -35 4 -4 52 -6 108 -4
90 3 104 6 129 28 16 13 40 24 52 24 29 0 71 44 62 66 -5 13 -14 15 -45 10
-34 -5 -39 -3 -49 20 -7 14 -12 31 -12 38 0 17 -43 56 -61 56 -8 0 -56 14
-107 30 -51 17 -101 30 -110 30 -9 0 -26 7 -36 15 -11 8 -32 15 -47 15 -14 0
-32 7 -39 15 -7 8 -19 15 -26 15 -8 0 -54 14 -104 30 -50 17 -98 30 -108 30
-10 0 -27 7 -38 15 -10 8 -31 15 -45 15 -15 0 -32 7 -39 15 -7 8 -23 15 -37
15 -13 0 -34 6 -46 14 -12 8 -43 17 -69 20 -26 4 -50 11 -53 17 -4 5 -16 9
-28 9 -12 0 -35 7 -51 15 -15 8 -36 15 -45 15 -10 0 -26 7 -37 15 -10 8 -30
15 -44 15 -14 0 -36 7 -50 15 -14 8 -34 14 -45 15 -11 0 -32 6 -47 14 -14 8
-45 17 -67 21 -23 4 -43 11 -47 16 -3 5 -18 9 -33 9 -16 0 -34 7 -41 15 -7 8
-25 15 -40 15 -15 0 -33 7 -40 15 -7 8 -27 15 -46 15 -18 0 -35 4 -38 9 -6 9
-74 26 -89 23 -4 -2 -18 4 -30 13 -12 8 -31 15 -42 15 -11 0 -29 7 -39 15 -11
8 -31 15 -45 15 -14 0 -35 7 -45 15 -11 8 -28 15 -38 15 -9 0 -32 6 -50 14
-18 8 -62 22 -98 31 -36 9 -77 23 -92 31 -14 8 -37 14 -50 14 -12 0 -32 7 -42
15 -11 8 -29 15 -41 15 -12 0 -30 7 -41 15 -10 8 -27 15 -37 15 -9 0 -25 4
-35 10 -9 5 -43 14 -74 20 -32 6 -60 16 -63 21 -4 5 -16 9 -29 9 -12 0 -27 5
-33 11 -6 6 -26 14 -44 19 -19 4 -47 13 -64 19 -16 5 -77 24 -135 41 -58 17
-118 38 -133 46 -16 8 -38 14 -50 14 -12 0 -31 7 -41 15 -11 8 -30 15 -43 15
-12 0 -37 6 -55 14 -50 20 -134 46 -149 45 -8 0 -23 -4 -34 -9z m26 -99 l29
-29 0 -494 c0 -271 -4 -498 -8 -504 -4 -5 -29 -10 -56 -9 -35 1 -52 6 -63 20
-11 16 -13 101 -11 505 3 446 4 488 21 513 23 35 51 34 88 -2z m127 7 c7 -7
24 -12 39 -13 20 0 29 -6 34 -25 12 -44 10 -988 -2 -996 -6 -3 -31 -7 -55 -9
-40 -3 -46 0 -55 22 -10 27 -13 973 -3 1011 7 24 24 28 42 10z m-284 -39 c11
-56 7 -979 -4 -1000 -9 -15 -15 -17 -30 -9 -11 6 -31 8 -45 4 -20 -5 -26 -1
-35 21 -14 38 -13 882 1 941 11 41 14 44 44 44 20 0 35 6 39 15 9 25 23 17 30
-16z m499 -29 c16 0 30 -8 37 -19 6 -13 10 -183 10 -484 0 -481 -2 -501 -40
-477 -7 4 -23 4 -36 0 -48 -19 -49 -12 -49 489 0 256 4 479 8 495 7 26 9 27
26 12 10 -9 29 -16 44 -16z m-673 -495 c0 -253 -4 -465 -8 -471 -4 -5 -29 -10
-57 -10 -42 1 -51 5 -62 26 -19 36 -14 843 5 880 15 28 102 62 114 45 4 -5 8
-217 8 -470z m853 429 c17 -4 32 -16 38 -31 15 -40 12 -859 -3 -870 -7 -4 -33
-8 -57 -8 -42 0 -45 2 -53 33 -11 42 -6 863 5 880 5 7 16 11 25 8 10 -3 30 -8
45 -12z m-1038 -56 c8 -55 2 -834 -6 -843 -4 -3 -28 -8 -53 -10 -79 -6 -77
-18 -74 436 3 362 4 396 21 421 12 17 30 28 50 31 18 2 37 5 44 5 7 1 14 -16
18 -40z m1222 -2 c57 -19 58 -26 58 -425 0 -216 -4 -377 -10 -395 -9 -29 -13
-31 -60 -30 -42 1 -52 5 -62 25 -10 18 -13 121 -13 399 0 391 6 458 38 444 9
-4 31 -12 49 -18z m-1403 -47 c8 -39 8 -746 0 -775 -5 -18 -15 -23 -57 -27
-86 -9 -82 -30 -82 397 0 419 -3 404 73 424 56 15 59 14 66 -19z m1581 -8 c23
-5 33 -15 42 -41 15 -44 18 -696 3 -734 -8 -23 -15 -26 -59 -26 -35 0 -51 4
-55 16 -8 21 -8 752 0 782 5 17 11 21 23 16 9 -3 30 -9 46 -13z m-1763 -66 c9
-51 8 -672 -1 -705 -6 -22 -13 -25 -58 -27 -37 -1 -56 3 -65 14 -10 13 -13 89
-13 352 0 384 2 397 63 404 62 7 66 4 74 -38z m1908 16 c0 -6 17 -11 37 -13
58 -5 61 -25 62 -378 1 -357 1 -356 -73 -354 -29 1 -52 7 -57 15 -13 20 -11
696 1 720 11 20 30 26 30 10z m-2096 -49 c4 -10 7 -166 9 -346 2 -372 6 -355
-80 -351 -44 1 -48 3 -56 35 -4 18 -7 167 -5 330 3 324 3 322 62 339 48 14 64
13 70 -7z m2275 -5 c6 -8 29 -19 51 -26 27 -8 41 -19 45 -34 3 -12 4 -157 3
-322 l-3 -300 -45 -3 c-24 -2 -50 -8 -58 -14 -7 -6 -16 -8 -20 -4 -9 9 -15
638 -7 684 6 34 16 40 34 19z m-2451 -356 c1 -196 -1 -318 -7 -324 -6 -6 -27
-10 -47 -9 -21 1 -43 -3 -51 -9 -26 -22 -33 40 -32 304 0 144 3 280 7 302 7
38 10 40 39 37 17 -2 34 2 38 8 4 6 17 10 28 8 22 -3 22 -4 25 -317z m2636
294 c3 -9 18 -15 35 -15 49 0 56 -37 56 -325 0 -180 -3 -256 -12 -271 -9 -16
-24 -23 -59 -26 -41 -3 -47 -1 -55 20 -10 26 -12 552 -3 601 7 33 28 42 38 16z
m-2816 -331 l-3 -299 -58 -1 c-53 -1 -60 2 -68 23 -10 28 -11 475 0 512 3 13
13 28 21 32 47 26 96 45 103 39 4 -3 6 -141 5 -306z m3001 262 c13 -7 32 -11
41 -9 35 9 45 -55 45 -299 0 -173 -3 -230 -13 -240 -16 -16 -104 -18 -114 -4
-9 13 -10 511 -2 544 7 25 10 26 43 8z m-3185 -42 c3 -9 6 -123 6 -254 0 -187
-3 -241 -14 -252 -7 -8 -33 -13 -62 -13 l-49 1 -7 45 c-8 56 -8 349 0 414 7
46 9 50 40 56 18 4 36 9 39 13 12 12 41 6 47 -10z m3360 -13 c10 -11 30 -21
44 -23 46 -5 52 -34 52 -254 0 -142 -3 -203 -12 -212 -7 -7 -29 -12 -49 -12
-21 0 -41 -5 -45 -12 -5 -7 -11 -5 -21 7 -10 15 -13 72 -13 249 0 280 4 301
44 257z m-3530 -48 c8 -50 8 -357 0 -416 l-7 -46 -43 6 c-28 4 -49 1 -59 -7
-12 -10 -16 -8 -25 15 -11 29 -14 318 -4 403 l7 52 37 0 c24 0 40 5 44 15 3 8
14 15 24 15 15 0 21 -9 26 -37z m3721 -13 c3 -5 17 -10 29 -10 41 0 51 -45 51
-236 0 -198 -2 -204 -71 -200 -24 1 -47 6 -51 10 -10 10 -10 405 -1 429 8 19
33 23 43 7z m-3907 -236 l-3 -209 -57 -3 c-50 -3 -58 0 -68 19 -13 23 -9 331
4 360 4 9 27 22 52 29 24 7 47 17 50 22 18 29 24 -30 22 -218z m4120 169 c19
-3 37 -14 44 -27 16 -28 17 -321 2 -336 -6 -6 -35 -12 -63 -14 -41 -2 -54 2
-62 15 -10 20 -12 299 -3 349 6 27 10 31 28 25 12 -4 36 -9 54 -12z m-4310
-42 c16 -53 15 -279 -1 -311 -11 -21 -20 -25 -61 -25 -42 -1 -49 2 -58 25 -11
28 -6 275 7 303 4 10 18 17 35 17 15 0 33 7 40 15 19 23 26 19 38 -24z m4489
-18 c12 -3 28 -15 36 -27 16 -25 27 -159 18 -231 l-6 -50 -45 -6 c-75 -11 -80
0 -80 158 0 139 10 180 40 167 8 -4 25 -9 37 -11z m-4667 -32 c12 -24 13 -250
1 -270 -11 -16 -99 -22 -118 -8 -9 7 -13 40 -13 107 0 129 7 160 34 160 11 1
32 7 46 15 33 19 37 18 50 -4z m4849 -31 c19 -5 38 -15 43 -22 4 -7 8 -61 8
-119 0 -121 0 -122 -79 -112 -45 5 -50 8 -55 36 -8 38 -8 141 0 190 7 41 20
45 83 27z m-5038 -41 c11 -37 10 -165 -1 -193 -8 -23 -15 -26 -59 -26 -59 0
-61 5 -60 103 1 101 8 121 44 125 17 2 34 8 40 13 14 14 29 5 36 -22z m5204
-13 c15 -8 33 -12 41 -9 18 7 29 -38 28 -115 -1 -73 -9 -82 -69 -82 -66 0 -70
7 -68 110 1 50 5 95 8 100 9 14 28 12 60 -4z m-5385 -32 c13 -33 13 -130 0
-153 -7 -14 -20 -18 -62 -16 -46 2 -53 5 -59 26 -8 28 0 96 13 122 5 10 20 17
39 17 17 0 32 6 35 15 9 23 23 18 34 -11z m5559 -28 c15 -8 38 -12 49 -9 21 5
22 2 22 -70 l0 -76 -51 1 c-61 2 -79 21 -79 86 0 40 13 82 26 82 3 0 18 -7 33
-14z m-5745 -28 c8 -32 7 -91 -2 -103 -4 -6 -28 -11 -54 -12 -54 -2 -64 12
-52 72 7 37 19 52 29 36 7 -12 37 -2 48 16 12 19 24 16 31 -9z m5958 -42 c31
-1 33 -4 33 -36 0 -33 -2 -35 -35 -36 -19 0 -47 -4 -62 -8 l-28 -8 0 59 c0 33
3 63 7 66 3 4 17 -2 29 -14 13 -12 38 -22 56 -23z m-6142 -61 c-9 -11 -17 -11
-36 -3 -18 9 -28 8 -36 0 -19 -19 -28 -14 -28 14 0 23 3 25 28 19 21 -4 33 0
47 15 l19 22 9 -27 c6 -17 5 -30 -3 -40z"/>
<path d="M3507 4872 c-73 -1 -115 -6 -112 -12 7 -12 339 -12 375 0 18 6 4 8
-47 9 -39 1 -77 2 -85 4 -7 1 -66 1 -131 -1z"/>
<path d="M5190 4870 c-49 -4 -59 -7 -40 -12 37 -11 343 -9 360 2 11 7 -1 10
-40 10 -30 1 -91 2 -135 3 -44 1 -109 0 -145 -3z"/>
<path d="M6397 4873 c-66 -2 -105 -7 -102 -13 8 -13 355 -13 375 0 11 7 -1 10
-40 10 -30 0 -71 2 -90 3 -19 2 -84 2 -143 0z"/>
<path d="M1845 4860 c11 -5 52 -9 90 -9 39 0 79 4 90 9 13 5 -20 9 -90 9 -70
0 -103 -4 -90 -9z"/>
<path d="M2078 4859 c-11 -7 -10 -13 4 -36 23 -39 71 -44 93 -9 9 14 15 31 13
38 -5 15 -89 20 -110 7z"/>
<path d="M2235 4860 c11 -5 94 -9 185 -9 91 0 174 4 185 9 12 5 -62 9 -185 9
-123 0 -197 -4 -185 -9z"/>
<path d="M2653 4853 c-9 -24 26 -63 55 -63 29 0 72 38 72 62 0 20 -120 20
-127 1z"/>
<path d="M2820 4860 c8 -5 92 -10 185 -10 94 0 177 5 185 10 10 6 -52 10 -185
10 -133 0 -195 -4 -185 -10z"/>
<path d="M3233 4854 c-8 -22 30 -63 59 -64 27 0 72 43 65 64 -5 15 -118 15
-124 0z"/>
<path d="M3820 4847 c0 -63 68 -77 104 -22 l20 30 192 -4 c125 -2 198 1 211 8
24 14 -430 15 -457 1 -13 -7 -21 -7 -25 0 -3 5 -15 10 -26 10 -13 0 -19 -7
-19 -23z"/>
<path d="M4393 4857 c-9 -15 32 -62 56 -65 26 -4 71 33 71 58 0 14 -10 17 -61
16 -33 0 -63 -5 -66 -9z"/>
<path d="M4565 4860 c8 -12 331 -12 360 0 12 5 -56 9 -173 9 -126 1 -191 -2
-187 -9z"/>
<path d="M4991 4857 c-5 -5 -4 -21 2 -38 14 -37 54 -39 85 -6 37 39 29 55 -28
54 -27 0 -54 -5 -59 -10z"/>
<path d="M5566 4862 c-12 -11 -5 -39 12 -55 30 -27 65 -21 86 14 10 17 15 33
12 36 -7 7 -104 12 -110 5z"/>
<path d="M5725 4860 c8 -12 331 -12 360 0 12 5 -56 9 -173 9 -126 1 -191 -2
-187 -9z"/>
<path d="M6140 4847 c0 -28 29 -57 56 -57 17 0 72 56 62 64 -1 2 -29 6 -60 10
-56 6 -58 5 -58 -17z"/>
<path d="M6733 4862 c-13 -2 -23 -7 -23 -11 0 -20 44 -61 64 -61 28 0 56 29
56 57 0 18 -6 21 -37 20 -21 -1 -48 -3 -60 -5z"/>
<path d="M6870 4860 c18 -12 357 -12 385 0 12 5 -64 9 -190 9 -139 1 -205 -3
-195 -9z"/>
<path d="M7304 4858 c-3 -5 0 -22 6 -39 10 -22 19 -29 41 -29 30 0 65 38 57
61 -5 15 -96 21 -104 7z"/>
<path d="M7734 4846 c-3 -14 1 -34 9 -48 12 -18 13 -37 6 -93 -5 -38 -8 -397
-6 -796 2 -608 4 -729 16 -743 12 -14 16 -15 28 -3 11 11 14 142 13 768 0 415
-3 775 -6 801 -6 45 -5 48 22 58 l28 11 -30 18 c-16 10 -35 25 -43 34 -19 23
-30 21 -37 -7z"/>
<path d="M1693 4831 c-42 -28 -42 -28 -18 -39 l24 -11 -1 -543 c-1 -513 -2
-544 -19 -567 -24 -30 -24 -36 2 -60 l21 -19 -2 -1319 c-1 -725 0 -1329 2
-1343 l3 -25 -415 0 -415 0 -3 963 c-2 911 -1 962 15 962 10 1 183 0 385 0
359 -1 399 3 372 30 -5 5 -212 10 -459 10 -430 2 -450 1 -450 -17 0 -15 8 -18
45 -18 l45 0 2 -984 c1 -541 4 -990 7 -997 8 -20 7274 -20 7282 0 3 7 6 455 7
997 l2 984 55 0 c44 0 55 3 58 17 3 17 -96 18 -1860 15 -1648 -2 -1863 -4
-1863 -17 0 -11 13 -15 49 -16 48 -1 66 -13 66 -44 0 -9 -6 -22 -12 -29 -10
-9 -13 -210 -13 -937 l0 -924 -1432 0 c-856 0 -1434 4 -1437 9 -4 5 -1 22 5
38 12 30 15 3730 3 3810 -6 39 -4 42 25 57 17 9 31 23 31 31 0 25 -61 17 -107
-14z m6365 -2006 c1 -1 3 -434 3 -961 l0 -959 -973 0 -973 0 3 35 c2 19 6 429
8 911 4 813 4 878 -12 894 -16 15 -72 16 -727 14 -670 -2 -710 -1 -719 15 -7
12 -7 26 1 43 l11 24 1688 -6 c928 -4 1688 -8 1690 -10z m-3348 -990 c3 -484
9 -887 13 -896 11 -21 -15 -41 -48 -37 l-27 3 1 895 c1 492 1 901 1 908 0 9
10 12 28 10 l27 -3 5 -880z m1362 867 c4 -4 8 -410 8 -902 2 -828 0 -895 -15
-895 -15 0 -16 59 -16 777 1 665 -1 778 -13 791 -12 12 -81 14 -423 15 -280 1
-412 -3 -421 -10 -10 -9 -12 -160 -12 -792 l1 -781 -211 0 -211 0 1 899 c0
494 2 902 4 905 6 9 1299 2 1308 -7z m-114 -264 c-3 -8 -95 -11 -344 -10 -186
1 -343 1 -347 2 -5 0 -5 5 -2 10 9 15 698 14 693 -2z m62 -783 c1 -685 0 -750
-15 -750 -15 0 -16 65 -16 748 1 412 4 753 7 759 4 5 10 6 15 1 5 -5 9 -346 9
-758z m-791 713 c-1 -37 -2 -39 -9 -18 -12 36 -12 60 0 60 6 0 10 -19 9 -42z
m701 13 c13 -1 15 -86 15 -703 0 -564 3 -708 13 -726 29 -51 20 -52 -349 -52
l-338 0 3 736 c1 521 5 737 13 742 8 5 520 7 643 3z m-696 -974 c4 -470 3
-508 -12 -505 -12 2 -17 13 -16 33 1 17 5 245 9 508 4 263 9 476 11 475 1 -2
5 -232 8 -511z"/>
<path d="M5312 1898 c-14 -14 -16 -54 -3 -62 13 -8 14 -447 1 -539 -12 -86 -6
-107 34 -107 45 0 46 6 46 360 0 353 -1 360 -45 360 -12 0 -26 -5 -33 -12z"/>
<path d="M4876 4555 c-25 -25 -27 -100 -24 -620 2 -384 6 -505 16 -522 l13
-23 399 0 400 0 14 23 c12 18 15 113 16 574 l1 551 -23 16 c-20 14 -72 16
-410 16 -330 0 -389 -2 -402 -15z m749 -47 c0 -10 -64 -13 -342 -16 -282 -2
-343 0 -343 11 0 8 2 16 4 18 2 2 157 3 343 2 275 -1 338 -4 338 -15z m36
-518 c0 -390 -3 -485 -13 -485 -10 0 -14 93 -16 465 -1 256 0 475 3 488 3 13
10 22 16 20 7 -2 10 -164 10 -488z m-736 469 c4 -5 7 -220 7 -476 0 -472 -1
-482 -34 -483 -4 0 -4 28 0 63 9 81 9 798 0 860 -6 37 -5 47 7 47 7 0 17 -5
20 -11z m663 -472 l-3 -452 -305 0 -305 0 0 455 0 455 290 5 c160 3 298 1 308
-3 16 -7 17 -37 15 -460z m27 -507 c10 -11 15 -23 12 -26 -8 -8 -688 -7 -696
1 -3 4 5 15 18 26 22 18 43 19 336 19 300 0 313 -1 330 -20z"/>
<path d="M3401 4536 c-15 -18 -14 -1111 0 -1138 9 -17 38 -18 414 -18 l404 0
13 23 c10 17 13 140 13 562 0 422 -3 545 -13 563 l-13 22 -403 0 c-334 0 -406
-2 -415 -14z m437 -27 c270 2 312 0 312 -13 0 -8 -5 -18 -12 -22 -17 -11 -619
-12 -640 -2 -10 5 -18 18 -18 29 0 17 4 19 23 13 12 -4 163 -6 335 -5z m-370
-529 c2 -473 0 -506 -32 -494 -9 3 -10 25 -4 87 5 45 8 260 7 477 -1 217 -1
399 0 403 1 5 7 7 14 5 9 -4 13 -110 15 -478z m727 38 c0 -244 3 -464 7 -490
7 -46 7 -47 -15 -39 l-22 8 -3 469 c-1 258 0 475 3 482 2 6 10 12 17 12 10 0
13 -89 13 -442z m-73 -41 c0 -247 -2 -450 -4 -452 -6 -6 -598 -8 -604 -2 -3 3
-7 773 -4 900 0 4 138 6 306 5 l306 -3 0 -448z m16 -503 c12 -4 22 -13 22 -20
0 -12 -58 -14 -345 -14 -292 0 -345 2 -345 14 0 8 8 17 18 19 26 7 624 8 650
1z"/>
<path d="M6330 3240 c-752 -4 -909 -7 -930 -19 -13 -8 -38 -18 -55 -22 -16 -4
-55 -16 -85 -27 -30 -11 -89 -30 -130 -42 -41 -12 -87 -28 -102 -36 -14 -8
-37 -14 -50 -14 -13 0 -28 -4 -34 -8 -5 -5 -40 -18 -79 -30 -38 -12 -114 -35
-169 -52 -54 -16 -109 -30 -120 -30 -28 0 -60 -23 -55 -39 3 -9 436 -12 1858
-12 1020 0 1855 2 1858 4 8 9 -53 40 -101 52 -125 31 -255 73 -309 101 -16 8
-38 14 -49 14 -11 0 -32 6 -46 14 -15 7 -74 28 -132 46 -58 17 -121 38 -140
45 -74 28 -200 65 -212 63 -7 -2 -420 -5 -918 -8z m-706 -66 c12 -30 7 -192
-6 -200 -16 -10 -90 -5 -105 7 -19 16 -25 100 -10 149 13 47 14 48 103 59 7 0
15 -6 18 -15z m177 -10 c9 -23 11 -156 3 -178 -5 -12 -20 -16 -60 -16 -53 0
-53 0 -60 36 -7 38 -1 155 10 172 3 5 27 9 53 7 35 -1 48 -6 54 -21z m183 -13
c8 -46 7 -130 0 -158 -6 -20 -13 -23 -60 -23 -53 0 -53 0 -60 36 -7 37 -1 155
9 170 3 5 28 9 55 10 50 0 50 0 56 -35z m181 17 c3 -13 5 -61 3 -108 l-3 -85
-65 0 -65 0 -3 70 c-2 39 0 84 3 102 5 30 9 32 53 36 26 2 53 4 59 5 7 1 15
-8 18 -20z m176 -9 c9 -31 11 -152 3 -173 -7 -19 -98 -23 -109 -6 -11 17 -7
180 4 194 6 7 29 12 53 11 36 -1 43 -5 49 -26z m184 -3 c4 -17 5 -65 3 -106
l-3 -75 -54 0 c-52 0 -55 1 -63 30 -8 28 -3 159 7 174 2 4 27 7 54 7 49 0 51
-1 56 -30z m178 15 c12 -12 16 -169 3 -189 -4 -7 -28 -12 -57 -12 -45 0 -51 3
-60 28 -13 32 -6 171 9 181 16 10 92 5 105 -8z m177 3 c14 -14 23 -133 12
-169 -8 -29 -11 -30 -63 -30 l-54 0 -3 65 c-2 36 -1 84 3 106 l6 41 45 -1 c24
-1 49 -7 54 -12z m200 -1 c8 -7 13 -151 6 -178 -6 -25 -9 -26 -69 -23 l-62 3
-3 94 c-1 52 -1 100 2 107 4 9 21 11 63 7 32 -3 60 -8 63 -10z m171 -18 c9
-40 10 -135 3 -162 -6 -20 -13 -23 -60 -23 l-53 0 -7 46 c-6 44 -1 145 9 161
3 5 27 8 54 8 45 -1 48 -2 54 -30z m-1807 -11 c3 -9 6 -44 6 -79 0 -91 -3 -95
-65 -95 -58 0 -65 9 -64 80 1 53 11 70 54 90 50 23 61 24 69 4z m1922 1 c10
-8 29 -15 41 -15 29 0 49 -68 37 -120 l-9 -35 -60 0 -60 0 -3 79 c-2 44 -1 85
2 93 7 17 27 17 52 -2z m-2105 -85 c1 -14 1 -40 1 -57 l-2 -33 -55 0 -55 0 0
45 c0 35 4 47 18 51 9 3 31 12 47 20 34 15 43 10 46 -26z m2283 25 c11 -8 28
-15 38 -15 19 0 32 -33 26 -71 -3 -21 -9 -24 -54 -27 l-52 -3 -6 36 c-9 44 1
95 17 95 7 0 21 -7 31 -15z m172 -71 c15 -22 15 -27 3 -35 -27 -17 -39 -10
-39 26 0 41 13 45 36 9z m-2638 -8 c5 -25 -12 -39 -37 -31 -20 6 -20 8 -4 31
17 27 36 27 41 0z m2697 -26 c-11 -17 -23 -1 -18 21 5 19 7 19 15 5 5 -9 6
-21 3 -26z"/>
<path d="M1605 3220 c-3 -5 -24 -14 -45 -20 -22 -6 -40 -15 -40 -20 0 -6 -13
-10 -28 -10 -15 0 -32 -4 -37 -8 -6 -5 -44 -19 -85 -31 -41 -12 -88 -29 -103
-37 -16 -8 -39 -14 -52 -14 -12 0 -28 -6 -34 -14 -6 -8 -24 -16 -39 -19 -15
-3 -58 -17 -96 -31 -38 -14 -77 -26 -87 -26 -9 0 -30 -7 -46 -14 -15 -8 -56
-23 -90 -33 -35 -10 -61 -22 -60 -28 3 -9 866 -9 876 0 2 2 4 74 5 159 1 140
-1 156 -16 156 -9 0 -20 -4 -23 -10z m-57 -132 c13 -13 15 -49 6 -86 -5 -16
-13 -22 -28 -20 -16 2 -22 11 -24 40 -3 36 11 78 26 78 5 0 13 -5 20 -12z
m-100 -69 l-3 -44 -53 -3 c-41 -2 -54 0 -58 13 -9 23 12 65 33 65 10 1 29 7
43 15 33 18 42 7 38 -46z m-178 -25 c0 -15 -6 -24 -15 -24 -17 0 -18 4 -9 37
8 29 24 20 24 -13z"/>
<path d="M3450 2473 c-19 -3 -41 -9 -47 -15 -10 -8 -13 -123 -13 -519 0 -279
4 -510 8 -513 4 -2 14 -1 22 4 13 8 15 80 16 482 1 400 3 473 15 473 12 0 14
-74 17 -474 1 -341 -1 -478 -9 -487 -6 -8 -22 -14 -34 -14 -28 0 -43 -47 -25
-79 11 -21 17 -21 415 -21 l404 0 13 23 c10 17 13 141 13 563 0 506 -1 543
-18 562 -17 19 -32 19 -380 19 -199 0 -378 -2 -397 -4z m393 -47 c233 0 307
-3 307 -12 0 -6 -7 -15 -16 -18 -20 -8 -618 -8 -638 0 -9 3 -16 15 -16 25 0
16 4 18 28 12 15 -5 165 -8 335 -7z m351 -511 c1 -259 6 -478 10 -487 6 -13 4
-18 -6 -18 -37 0 -38 13 -38 486 0 254 3 470 6 479 21 55 26 -23 28 -460z
m-77 432 c6 -6 7 -897 1 -903 -3 -2 -473 -6 -590 -4 -17 0 -18 28 -18 453 0
250 2 456 4 458 6 6 597 2 603 -4z m26 -947 c11 0 17 -6 15 -16 -3 -14 -41
-16 -343 -16 -297 0 -340 2 -343 15 -2 10 5 17 20 19 17 2 539 1 651 -2z"/>
</g>
</svg>
