<svg width="512" height="512" xmlns="http://www.w3.org/2000/svg">
 <!-- Created with UXWing SVG Editor - https://uxwing.com/svg-icon-editor/ -->

 <g>
  <title>background</title>
  <rect fill="none" id="canvas_background" height="514" width="514" y="-1" x="-1"/>
  <g display="none" overflow="visible" y="0" x="0" height="100%" width="100%" id="canvasGrid">
   <rect fill="url(#gridpattern)" stroke-width="0" y="0" x="0" height="100%" width="100%"/>
  </g>
 </g>
 <g>
  <title>Layer 1</title>
  <g stroke="null" id="svg_7">
   <g stroke="null" transform="matrix(3.842543232086199,0,0,3.842543232086199,-58.462290346408494,-125.80112827569243) " id="svg_5">
    <path stroke="null" fill="#ffffff" id="svg_6" d="m135.342025,58.461572l-3.62,0l0,3.08c0,2.93 -1.19,5.58 -3.12,7.51c-1.93,1.92 -4.58,3.12 -7.51,3.12l-70.05,0c-2.93,0 -5.58,-1.19 -7.51,-3.12c-1.93,-1.93 -3.12,-4.58 -3.12,-7.51l0,-3.52l-1.45,0c-1.54,0 -2.94,0.63 -3.96,1.65c-1.02,1.02 -1.65,2.42 -1.65,3.96l0,16.24c0,1.54 0.63,2.94 1.65,3.96c1.02,1.02 2.42,1.65 3.96,1.65l28.31,0c1.23,0 1.66,-0.01 2.08,-0.01c4.87,-0.08 10.31,-0.17 14.56,2.91c1.46,1.05 2.62,2.39 3.46,4.04c0.81,1.58 1.3,3.44 1.46,5.59c0,0.06 0.01,0.12 0.01,0.18l0,0l0,8.21l4.29,0c1.88,0 3.59,0.77 4.82,2c1.24,1.24 2,2.94 2,4.82l0,40.76c0,1.88 -0.77,3.59 -2,4.82c-1.24,1.24 -2.94,2 -4.82,2l-13.34,0c-1.88,0 -3.59,-0.77 -4.82,-2c-1.24,-1.24 -2,-2.94 -2,-4.82l0,-40.76c0,-1.88 0.77,-3.59 2,-4.82c1.24,-1.24 2.94,-2 4.82,-2l4.03,0l0,-8.16c-0.11,-1.4 -0.43,-2.57 -0.92,-3.54c-0.47,-0.93 -1.12,-1.67 -1.93,-2.26c-2.91,-2.11 -7.47,-2.04 -11.54,-1.97c-1.02,0.02 -2.02,0.03 -2.16,0.03l-28.31,0c-2.93,0 -5.58,-1.19 -7.51,-3.12c-1.93,-1.93 -3.12,-4.59 -3.12,-7.51l0,-16.24c0,-2.93 1.2,-5.58 3.12,-7.51c1.93,-1.92 4.58,-3.12 7.51,-3.12l1.45,0l0,-4.45c0,-2.93 1.19,-5.58 3.12,-7.51c1.93,-1.93 4.58,-3.12 7.51,-3.12l70.05,0c2.93,0 5.58,1.19 7.51,3.12c1.93,1.92 3.12,4.58 3.12,7.51l0,4.89l3.62,0l0,5.02l0,0zm-14.25,-15.53l-70.05,0c-1.54,0 -2.94,0.63 -3.96,1.65c-1.02,1.02 -1.65,2.42 -1.65,3.96l0,12.99c0,1.54 0.63,2.94 1.65,3.96c1.02,1.02 2.42,1.65 3.96,1.65l70.05,0c1.54,0 2.94,-0.63 3.96,-1.65c1.02,-1.02 1.65,-2.42 1.65,-3.96l0,-12.98c0,-1.54 -0.63,-2.94 -1.65,-3.96c-1.02,-1.02 -2.42,-1.66 -3.96,-1.66l0,0zm-27.97,68.48l-13.33,0c-0.49,0 -0.95,0.2 -1.28,0.53c-0.33,0.33 -0.53,0.78 -0.53,1.28l0,40.76c0,0.49 0.2,0.95 0.53,1.28c0.33,0.33 0.78,0.53 1.28,0.53l13.33,0c0.49,0 0.95,-0.2 1.28,-0.53c0.33,-0.33 0.53,-0.78 0.53,-1.28l0,-40.76c0,-0.49 -0.2,-0.95 -0.53,-1.28c-0.33,-0.33 -0.79,-0.53 -1.28,-0.53l0,0z"/>
   </g>
  </g>
 </g>
</svg>